ISO-10303-21;
HEADER;
/* Generated by software containing ST-Developer
 * from STEP Tools, Inc. (www.steptools.com) 
 */

FILE_DESCRIPTION(
/* description */ ('STEP AP214'),
/* implementation_level */ '2;1');

FILE_NAME(
/* name */ 'A759PY687M1HAAE026.stp',
/* time_stamp */ '2025-04-14T23:19:54-05:00',
/* author */ ('barre'),
/* organization */ (''),
/* preprocessor_version */ 'ST-DEVELOPER v20',
/* originating_system */ 'Autodesk Inventor 2025',
/* authorisation */ '');

FILE_SCHEMA (('AUTOMOTIVE_DESIGN { 1 0 10303 214 3 1 1 }'));
ENDSEC;

DATA;
#10=MECHANICAL_DESIGN_GEOMETRIC_PRESENTATION_REPRESENTATION('',(#1180,#1181,
#1182,#1183,#1184,#1185,#1186,#1187,#1188,#1189,#1190,#1191,#1192,#1193,
#1194,#1195,#1196,#1197,#1198,#1199,#1200,#1201,#1202,#1203,#1204,#1205,
#1206,#1207,#1208,#1209,#1210,#1211,#1212,#1213,#1214,#1215,#1216,#1217,
#1218,#1219,#1220,#1221,#1222,#1223,#1224,#1225,#1226,#1227,#1228,#1229,
#1230,#1231,#1232,#1233,#1234,#1235,#1236,#1237,#1238,#1239,#1240,#1241,
#1242,#1243,#1244,#1245,#1246,#1247,#1248,#1249,#1250),#2103);
#11=GEOMETRICALLY_BOUNDED_WIREFRAME_SHAPE_REPRESENTATION('',(#12),#2102);
#12=GEOMETRIC_CURVE_SET('Sketch1',(#2099));
#13=SHAPE_REPRESENTATION_RELATIONSHIP('SRR','None',#2110,#15);
#14=SHAPE_REPRESENTATION_RELATIONSHIP('SRR','None',#2110,#11);
#15=ADVANCED_BREP_SHAPE_REPRESENTATION('',(#16,#17,#18,#19),#2102);
#16=MANIFOLD_SOLID_BREP('Solid2',#1318);
#17=MANIFOLD_SOLID_BREP('Solid3',#1319);
#18=MANIFOLD_SOLID_BREP('Solid4',#1320);
#19=MANIFOLD_SOLID_BREP('Solid5',#1321);
#20=FACE_BOUND('',#475,.T.);
#21=FACE_BOUND('',#476,.T.);
#22=PLANE('',#1364);
#23=PLANE('',#1365);
#24=PLANE('',#1366);
#25=PLANE('',#1367);
#26=PLANE('',#1368);
#27=PLANE('',#1369);
#28=PLANE('',#1370);
#29=PLANE('',#1371);
#30=PLANE('',#1372);
#31=PLANE('',#1373);
#32=PLANE('',#1374);
#33=PLANE('',#1375);
#34=PLANE('',#1376);
#35=PLANE('',#1377);
#36=PLANE('',#1378);
#37=PLANE('',#1379);
#38=PLANE('',#1380);
#39=PLANE('',#1381);
#40=PLANE('',#1382);
#41=PLANE('',#1383);
#42=PLANE('',#1384);
#43=PLANE('',#1385);
#44=PLANE('',#1386);
#45=PLANE('',#1387);
#46=PLANE('',#1388);
#47=PLANE('',#1389);
#48=PLANE('',#1390);
#49=PLANE('',#1391);
#50=PLANE('',#1392);
#51=PLANE('',#1393);
#52=PLANE('',#1394);
#53=PLANE('',#1395);
#54=PLANE('',#1396);
#55=PLANE('',#1397);
#56=PLANE('',#1398);
#57=PLANE('',#1399);
#58=PLANE('',#1400);
#59=PLANE('',#1401);
#60=PLANE('',#1402);
#61=PLANE('',#1403);
#62=PLANE('',#1404);
#63=PLANE('',#1405);
#64=PLANE('',#1406);
#65=PLANE('',#1407);
#66=PLANE('',#1408);
#67=PLANE('',#1409);
#68=PLANE('',#1410);
#69=PLANE('',#1411);
#70=PLANE('',#1412);
#71=PLANE('',#1413);
#72=PLANE('',#1414);
#73=PLANE('',#1415);
#74=PLANE('',#1416);
#75=PLANE('',#1417);
#76=PLANE('',#1418);
#77=PLANE('',#1419);
#78=PLANE('',#1420);
#79=PLANE('',#1421);
#80=PLANE('',#1422);
#81=PLANE('',#1423);
#82=PLANE('',#1424);
#83=LINE('',#1766,#240);
#84=LINE('',#1771,#241);
#85=LINE('',#1777,#242);
#86=LINE('',#1781,#243);
#87=LINE('',#1790,#244);
#88=LINE('',#1792,#245);
#89=LINE('',#1794,#246);
#90=LINE('',#1795,#247);
#91=LINE('',#1798,#248);
#92=LINE('',#1800,#249);
#93=LINE('',#1801,#250);
#94=LINE('',#1804,#251);
#95=LINE('',#1806,#252);
#96=LINE('',#1807,#253);
#97=LINE('',#1810,#254);
#98=LINE('',#1812,#255);
#99=LINE('',#1813,#256);
#100=LINE('',#1816,#257);
#101=LINE('',#1818,#258);
#102=LINE('',#1819,#259);
#103=LINE('',#1822,#260);
#104=LINE('',#1824,#261);
#105=LINE('',#1825,#262);
#106=LINE('',#1828,#263);
#107=LINE('',#1830,#264);
#108=LINE('',#1831,#265);
#109=LINE('',#1834,#266);
#110=LINE('',#1836,#267);
#111=LINE('',#1837,#268);
#112=LINE('',#1840,#269);
#113=LINE('',#1842,#270);
#114=LINE('',#1843,#271);
#115=LINE('',#1846,#272);
#116=LINE('',#1848,#273);
#117=LINE('',#1849,#274);
#118=LINE('',#1851,#275);
#119=LINE('',#1852,#276);
#120=LINE('',#1858,#277);
#121=LINE('',#1860,#278);
#122=LINE('',#1862,#279);
#123=LINE('',#1863,#280);
#124=LINE('',#1866,#281);
#125=LINE('',#1868,#282);
#126=LINE('',#1869,#283);
#127=LINE('',#1872,#284);
#128=LINE('',#1874,#285);
#129=LINE('',#1875,#286);
#130=LINE('',#1878,#287);
#131=LINE('',#1880,#288);
#132=LINE('',#1881,#289);
#133=LINE('',#1884,#290);
#134=LINE('',#1886,#291);
#135=LINE('',#1887,#292);
#136=LINE('',#1890,#293);
#137=LINE('',#1892,#294);
#138=LINE('',#1893,#295);
#139=LINE('',#1896,#296);
#140=LINE('',#1898,#297);
#141=LINE('',#1899,#298);
#142=LINE('',#1902,#299);
#143=LINE('',#1904,#300);
#144=LINE('',#1905,#301);
#145=LINE('',#1908,#302);
#146=LINE('',#1910,#303);
#147=LINE('',#1911,#304);
#148=LINE('',#1914,#305);
#149=LINE('',#1916,#306);
#150=LINE('',#1917,#307);
#151=LINE('',#1920,#308);
#152=LINE('',#1922,#309);
#153=LINE('',#1923,#310);
#154=LINE('',#1926,#311);
#155=LINE('',#1928,#312);
#156=LINE('',#1929,#313);
#157=LINE('',#1932,#314);
#158=LINE('',#1934,#315);
#159=LINE('',#1935,#316);
#160=LINE('',#1938,#317);
#161=LINE('',#1940,#318);
#162=LINE('',#1941,#319);
#163=LINE('',#1944,#320);
#164=LINE('',#1946,#321);
#165=LINE('',#1947,#322);
#166=LINE('',#1950,#323);
#167=LINE('',#1952,#324);
#168=LINE('',#1953,#325);
#169=LINE('',#1956,#326);
#170=LINE('',#1958,#327);
#171=LINE('',#1959,#328);
#172=LINE('',#1962,#329);
#173=LINE('',#1964,#330);
#174=LINE('',#1965,#331);
#175=LINE('',#1968,#332);
#176=LINE('',#1970,#333);
#177=LINE('',#1971,#334);
#178=LINE('',#1974,#335);
#179=LINE('',#1976,#336);
#180=LINE('',#1977,#337);
#181=LINE('',#1980,#338);
#182=LINE('',#1982,#339);
#183=LINE('',#1983,#340);
#184=LINE('',#1986,#341);
#185=LINE('',#1988,#342);
#186=LINE('',#1989,#343);
#187=LINE('',#1991,#344);
#188=LINE('',#1992,#345);
#189=LINE('',#1998,#346);
#190=LINE('',#2000,#347);
#191=LINE('',#2002,#348);
#192=LINE('',#2003,#349);
#193=LINE('',#2006,#350);
#194=LINE('',#2008,#351);
#195=LINE('',#2009,#352);
#196=LINE('',#2012,#353);
#197=LINE('',#2014,#354);
#198=LINE('',#2015,#355);
#199=LINE('',#2018,#356);
#200=LINE('',#2020,#357);
#201=LINE('',#2021,#358);
#202=LINE('',#2024,#359);
#203=LINE('',#2026,#360);
#204=LINE('',#2027,#361);
#205=LINE('',#2030,#362);
#206=LINE('',#2032,#363);
#207=LINE('',#2033,#364);
#208=LINE('',#2036,#365);
#209=LINE('',#2038,#366);
#210=LINE('',#2039,#367);
#211=LINE('',#2042,#368);
#212=LINE('',#2044,#369);
#213=LINE('',#2045,#370);
#214=LINE('',#2048,#371);
#215=LINE('',#2050,#372);
#216=LINE('',#2051,#373);
#217=LINE('',#2054,#374);
#218=LINE('',#2056,#375);
#219=LINE('',#2057,#376);
#220=LINE('',#2060,#377);
#221=LINE('',#2062,#378);
#222=LINE('',#2063,#379);
#223=LINE('',#2066,#380);
#224=LINE('',#2068,#381);
#225=LINE('',#2069,#382);
#226=LINE('',#2072,#383);
#227=LINE('',#2074,#384);
#228=LINE('',#2075,#385);
#229=LINE('',#2078,#386);
#230=LINE('',#2080,#387);
#231=LINE('',#2081,#388);
#232=LINE('',#2084,#389);
#233=LINE('',#2086,#390);
#234=LINE('',#2087,#391);
#235=LINE('',#2090,#392);
#236=LINE('',#2092,#393);
#237=LINE('',#2093,#394);
#238=LINE('',#2095,#395);
#239=LINE('',#2096,#396);
#240=VECTOR('',#1451,6.75);
#241=VECTOR('',#1456,0.325);
#242=VECTOR('',#1463,0.325);
#243=VECTOR('',#1468,6.75);
#244=VECTOR('',#1481,1000.);
#245=VECTOR('',#1482,1000.);
#246=VECTOR('',#1483,1000.);
#247=VECTOR('',#1484,1000.);
#248=VECTOR('',#1487,1000.);
#249=VECTOR('',#1488,1000.);
#250=VECTOR('',#1489,1000.);
#251=VECTOR('',#1492,1000.);
#252=VECTOR('',#1493,1000.);
#253=VECTOR('',#1494,1000.);
#254=VECTOR('',#1497,1000.);
#255=VECTOR('',#1498,1000.);
#256=VECTOR('',#1499,1000.);
#257=VECTOR('',#1502,1000.);
#258=VECTOR('',#1503,1000.);
#259=VECTOR('',#1504,1000.);
#260=VECTOR('',#1507,999.999999999999);
#261=VECTOR('',#1508,1000.);
#262=VECTOR('',#1509,999.999999999999);
#263=VECTOR('',#1512,1000.);
#264=VECTOR('',#1513,1000.);
#265=VECTOR('',#1514,1000.);
#266=VECTOR('',#1517,1000.);
#267=VECTOR('',#1518,1000.);
#268=VECTOR('',#1519,1000.);
#269=VECTOR('',#1522,1000.);
#270=VECTOR('',#1523,1000.);
#271=VECTOR('',#1524,1000.);
#272=VECTOR('',#1527,1000.);
#273=VECTOR('',#1528,1000.);
#274=VECTOR('',#1529,1000.);
#275=VECTOR('',#1532,1000.);
#276=VECTOR('',#1533,1000.);
#277=VECTOR('',#1540,1000.);
#278=VECTOR('',#1541,1000.);
#279=VECTOR('',#1542,1000.);
#280=VECTOR('',#1543,1000.);
#281=VECTOR('',#1546,1000.);
#282=VECTOR('',#1547,1000.);
#283=VECTOR('',#1548,1000.);
#284=VECTOR('',#1551,1000.);
#285=VECTOR('',#1552,1000.);
#286=VECTOR('',#1553,1000.);
#287=VECTOR('',#1556,1000.);
#288=VECTOR('',#1557,1000.);
#289=VECTOR('',#1558,1000.);
#290=VECTOR('',#1561,1000.);
#291=VECTOR('',#1562,1000.);
#292=VECTOR('',#1563,1000.);
#293=VECTOR('',#1566,1000.);
#294=VECTOR('',#1567,1000.);
#295=VECTOR('',#1568,1000.);
#296=VECTOR('',#1571,1000.);
#297=VECTOR('',#1572,1000.);
#298=VECTOR('',#1573,1000.);
#299=VECTOR('',#1576,1000.);
#300=VECTOR('',#1577,1000.);
#301=VECTOR('',#1578,1000.);
#302=VECTOR('',#1581,1000.);
#303=VECTOR('',#1582,1000.);
#304=VECTOR('',#1583,1000.);
#305=VECTOR('',#1586,1000.);
#306=VECTOR('',#1587,1000.);
#307=VECTOR('',#1588,1000.);
#308=VECTOR('',#1591,1000.);
#309=VECTOR('',#1592,1000.);
#310=VECTOR('',#1593,1000.);
#311=VECTOR('',#1596,1000.);
#312=VECTOR('',#1597,1000.);
#313=VECTOR('',#1598,1000.);
#314=VECTOR('',#1601,1000.);
#315=VECTOR('',#1602,1000.);
#316=VECTOR('',#1603,1000.);
#317=VECTOR('',#1606,1000.);
#318=VECTOR('',#1607,1000.);
#319=VECTOR('',#1608,1000.);
#320=VECTOR('',#1611,1000.);
#321=VECTOR('',#1612,1000.);
#322=VECTOR('',#1613,1000.);
#323=VECTOR('',#1616,1000.);
#324=VECTOR('',#1617,1000.);
#325=VECTOR('',#1618,1000.);
#326=VECTOR('',#1621,1000.);
#327=VECTOR('',#1622,1000.);
#328=VECTOR('',#1623,1000.);
#329=VECTOR('',#1626,1000.);
#330=VECTOR('',#1627,1000.);
#331=VECTOR('',#1628,1000.);
#332=VECTOR('',#1631,1000.);
#333=VECTOR('',#1632,1000.);
#334=VECTOR('',#1633,1000.);
#335=VECTOR('',#1636,1000.);
#336=VECTOR('',#1637,1000.);
#337=VECTOR('',#1638,1000.);
#338=VECTOR('',#1641,1000.);
#339=VECTOR('',#1642,1000.);
#340=VECTOR('',#1643,1000.);
#341=VECTOR('',#1646,1000.);
#342=VECTOR('',#1647,1000.);
#343=VECTOR('',#1648,1000.);
#344=VECTOR('',#1651,1000.);
#345=VECTOR('',#1652,1000.);
#346=VECTOR('',#1659,1000.);
#347=VECTOR('',#1660,1000.);
#348=VECTOR('',#1661,1000.);
#349=VECTOR('',#1662,1000.);
#350=VECTOR('',#1665,1000.);
#351=VECTOR('',#1666,1000.);
#352=VECTOR('',#1667,1000.);
#353=VECTOR('',#1670,1000.);
#354=VECTOR('',#1671,1000.);
#355=VECTOR('',#1672,1000.);
#356=VECTOR('',#1675,1000.);
#357=VECTOR('',#1676,1000.);
#358=VECTOR('',#1677,1000.);
#359=VECTOR('',#1680,1000.);
#360=VECTOR('',#1681,1000.);
#361=VECTOR('',#1682,1000.);
#362=VECTOR('',#1685,1000.);
#363=VECTOR('',#1686,1000.);
#364=VECTOR('',#1687,1000.);
#365=VECTOR('',#1690,1000.);
#366=VECTOR('',#1691,1000.);
#367=VECTOR('',#1692,1000.);
#368=VECTOR('',#1695,1000.);
#369=VECTOR('',#1696,1000.);
#370=VECTOR('',#1697,1000.);
#371=VECTOR('',#1700,1000.);
#372=VECTOR('',#1701,1000.);
#373=VECTOR('',#1702,1000.);
#374=VECTOR('',#1705,1000.);
#375=VECTOR('',#1706,1000.);
#376=VECTOR('',#1707,1000.);
#377=VECTOR('',#1710,1000.);
#378=VECTOR('',#1711,1000.);
#379=VECTOR('',#1712,1000.);
#380=VECTOR('',#1715,1000.);
#381=VECTOR('',#1716,1000.);
#382=VECTOR('',#1717,1000.);
#383=VECTOR('',#1720,1000.);
#384=VECTOR('',#1721,1000.);
#385=VECTOR('',#1722,1000.);
#386=VECTOR('',#1725,1000.);
#387=VECTOR('',#1726,1000.);
#388=VECTOR('',#1727,1000.);
#389=VECTOR('',#1730,1000.);
#390=VECTOR('',#1731,1000.);
#391=VECTOR('',#1732,1000.);
#392=VECTOR('',#1735,1000.);
#393=VECTOR('',#1736,1000.);
#394=VECTOR('',#1737,1000.);
#395=VECTOR('',#1740,1000.);
#396=VECTOR('',#1741,1000.);
#397=CYLINDRICAL_SURFACE('',#1355,6.75);
#398=CYLINDRICAL_SURFACE('',#1356,0.325);
#399=CYLINDRICAL_SURFACE('',#1359,0.325);
#400=CYLINDRICAL_SURFACE('',#1362,6.75);
#401=FACE_OUTER_BOUND('',#468,.T.);
#402=FACE_OUTER_BOUND('',#469,.T.);
#403=FACE_OUTER_BOUND('',#470,.T.);
#404=FACE_OUTER_BOUND('',#471,.T.);
#405=FACE_OUTER_BOUND('',#472,.T.);
#406=FACE_OUTER_BOUND('',#473,.T.);
#407=FACE_OUTER_BOUND('',#474,.T.);
#408=FACE_OUTER_BOUND('',#477,.T.);
#409=FACE_OUTER_BOUND('',#478,.T.);
#410=FACE_OUTER_BOUND('',#479,.T.);
#411=FACE_OUTER_BOUND('',#480,.T.);
#412=FACE_OUTER_BOUND('',#481,.T.);
#413=FACE_OUTER_BOUND('',#482,.T.);
#414=FACE_OUTER_BOUND('',#483,.T.);
#415=FACE_OUTER_BOUND('',#484,.T.);
#416=FACE_OUTER_BOUND('',#485,.T.);
#417=FACE_OUTER_BOUND('',#486,.T.);
#418=FACE_OUTER_BOUND('',#487,.T.);
#419=FACE_OUTER_BOUND('',#488,.T.);
#420=FACE_OUTER_BOUND('',#489,.T.);
#421=FACE_OUTER_BOUND('',#490,.T.);
#422=FACE_OUTER_BOUND('',#491,.T.);
#423=FACE_OUTER_BOUND('',#492,.T.);
#424=FACE_OUTER_BOUND('',#493,.T.);
#425=FACE_OUTER_BOUND('',#494,.T.);
#426=FACE_OUTER_BOUND('',#495,.T.);
#427=FACE_OUTER_BOUND('',#496,.T.);
#428=FACE_OUTER_BOUND('',#497,.T.);
#429=FACE_OUTER_BOUND('',#498,.T.);
#430=FACE_OUTER_BOUND('',#499,.T.);
#431=FACE_OUTER_BOUND('',#500,.T.);
#432=FACE_OUTER_BOUND('',#501,.T.);
#433=FACE_OUTER_BOUND('',#502,.T.);
#434=FACE_OUTER_BOUND('',#503,.T.);
#435=FACE_OUTER_BOUND('',#504,.T.);
#436=FACE_OUTER_BOUND('',#505,.T.);
#437=FACE_OUTER_BOUND('',#506,.T.);
#438=FACE_OUTER_BOUND('',#507,.T.);
#439=FACE_OUTER_BOUND('',#508,.T.);
#440=FACE_OUTER_BOUND('',#509,.T.);
#441=FACE_OUTER_BOUND('',#510,.T.);
#442=FACE_OUTER_BOUND('',#511,.T.);
#443=FACE_OUTER_BOUND('',#512,.T.);
#444=FACE_OUTER_BOUND('',#513,.T.);
#445=FACE_OUTER_BOUND('',#514,.T.);
#446=FACE_OUTER_BOUND('',#515,.T.);
#447=FACE_OUTER_BOUND('',#516,.T.);
#448=FACE_OUTER_BOUND('',#517,.T.);
#449=FACE_OUTER_BOUND('',#518,.T.);
#450=FACE_OUTER_BOUND('',#519,.T.);
#451=FACE_OUTER_BOUND('',#520,.T.);
#452=FACE_OUTER_BOUND('',#521,.T.);
#453=FACE_OUTER_BOUND('',#522,.T.);
#454=FACE_OUTER_BOUND('',#523,.T.);
#455=FACE_OUTER_BOUND('',#524,.T.);
#456=FACE_OUTER_BOUND('',#525,.T.);
#457=FACE_OUTER_BOUND('',#526,.T.);
#458=FACE_OUTER_BOUND('',#527,.T.);
#459=FACE_OUTER_BOUND('',#528,.T.);
#460=FACE_OUTER_BOUND('',#529,.T.);
#461=FACE_OUTER_BOUND('',#530,.T.);
#462=FACE_OUTER_BOUND('',#531,.T.);
#463=FACE_OUTER_BOUND('',#532,.T.);
#464=FACE_OUTER_BOUND('',#533,.T.);
#465=FACE_OUTER_BOUND('',#534,.T.);
#466=FACE_OUTER_BOUND('',#535,.T.);
#467=FACE_OUTER_BOUND('',#536,.T.);
#468=EDGE_LOOP('',(#836,#837,#838,#839,#840,#841));
#469=EDGE_LOOP('',(#842,#843,#844,#845,#846));
#470=EDGE_LOOP('',(#847,#848,#849,#850,#851,#852));
#471=EDGE_LOOP('',(#853,#854,#855,#856));
#472=EDGE_LOOP('',(#857,#858,#859,#860));
#473=EDGE_LOOP('',(#861,#862,#863,#864,#865));
#474=EDGE_LOOP('',(#866));
#475=EDGE_LOOP('',(#867));
#476=EDGE_LOOP('',(#868));
#477=EDGE_LOOP('',(#869));
#478=EDGE_LOOP('',(#870));
#479=EDGE_LOOP('',(#871));
#480=EDGE_LOOP('',(#872,#873,#874,#875));
#481=EDGE_LOOP('',(#876,#877,#878,#879));
#482=EDGE_LOOP('',(#880,#881,#882,#883));
#483=EDGE_LOOP('',(#884,#885,#886,#887));
#484=EDGE_LOOP('',(#888,#889,#890,#891));
#485=EDGE_LOOP('',(#892,#893,#894,#895));
#486=EDGE_LOOP('',(#896,#897,#898,#899));
#487=EDGE_LOOP('',(#900,#901,#902,#903));
#488=EDGE_LOOP('',(#904,#905,#906,#907));
#489=EDGE_LOOP('',(#908,#909,#910,#911));
#490=EDGE_LOOP('',(#912,#913,#914,#915));
#491=EDGE_LOOP('',(#916,#917,#918,#919,#920,#921,#922,#923,#924,#925,#926));
#492=EDGE_LOOP('',(#927,#928,#929,#930,#931,#932,#933,#934,#935,#936,#937));
#493=EDGE_LOOP('',(#938,#939,#940,#941));
#494=EDGE_LOOP('',(#942,#943,#944,#945));
#495=EDGE_LOOP('',(#946,#947,#948,#949));
#496=EDGE_LOOP('',(#950,#951,#952,#953));
#497=EDGE_LOOP('',(#954,#955,#956,#957));
#498=EDGE_LOOP('',(#958,#959,#960,#961));
#499=EDGE_LOOP('',(#962,#963,#964,#965));
#500=EDGE_LOOP('',(#966,#967,#968,#969));
#501=EDGE_LOOP('',(#970,#971,#972,#973));
#502=EDGE_LOOP('',(#974,#975,#976,#977));
#503=EDGE_LOOP('',(#978,#979,#980,#981));
#504=EDGE_LOOP('',(#982,#983,#984,#985));
#505=EDGE_LOOP('',(#986,#987,#988,#989));
#506=EDGE_LOOP('',(#990,#991,#992,#993));
#507=EDGE_LOOP('',(#994,#995,#996,#997));
#508=EDGE_LOOP('',(#998,#999,#1000,#1001));
#509=EDGE_LOOP('',(#1002,#1003,#1004,#1005));
#510=EDGE_LOOP('',(#1006,#1007,#1008,#1009));
#511=EDGE_LOOP('',(#1010,#1011,#1012,#1013));
#512=EDGE_LOOP('',(#1014,#1015,#1016,#1017));
#513=EDGE_LOOP('',(#1018,#1019,#1020,#1021));
#514=EDGE_LOOP('',(#1022,#1023,#1024,#1025));
#515=EDGE_LOOP('',(#1026,#1027,#1028,#1029));
#516=EDGE_LOOP('',(#1030,#1031,#1032,#1033,#1034,#1035,#1036,#1037,#1038,
#1039,#1040,#1041,#1042,#1043,#1044,#1045,#1046,#1047,#1048,#1049,#1050,
#1051,#1052));
#517=EDGE_LOOP('',(#1053,#1054,#1055,#1056,#1057,#1058,#1059,#1060,#1061,
#1062,#1063,#1064,#1065,#1066,#1067,#1068,#1069,#1070,#1071,#1072,#1073,
#1074,#1075));
#518=EDGE_LOOP('',(#1076,#1077,#1078,#1079));
#519=EDGE_LOOP('',(#1080,#1081,#1082,#1083));
#520=EDGE_LOOP('',(#1084,#1085,#1086,#1087));
#521=EDGE_LOOP('',(#1088,#1089,#1090,#1091));
#522=EDGE_LOOP('',(#1092,#1093,#1094,#1095));
#523=EDGE_LOOP('',(#1096,#1097,#1098,#1099));
#524=EDGE_LOOP('',(#1100,#1101,#1102,#1103));
#525=EDGE_LOOP('',(#1104,#1105,#1106,#1107));
#526=EDGE_LOOP('',(#1108,#1109,#1110,#1111));
#527=EDGE_LOOP('',(#1112,#1113,#1114,#1115));
#528=EDGE_LOOP('',(#1116,#1117,#1118,#1119));
#529=EDGE_LOOP('',(#1120,#1121,#1122,#1123));
#530=EDGE_LOOP('',(#1124,#1125,#1126,#1127));
#531=EDGE_LOOP('',(#1128,#1129,#1130,#1131));
#532=EDGE_LOOP('',(#1132,#1133,#1134,#1135));
#533=EDGE_LOOP('',(#1136,#1137,#1138,#1139));
#534=EDGE_LOOP('',(#1140,#1141,#1142,#1143));
#535=EDGE_LOOP('',(#1144,#1145,#1146,#1147,#1148,#1149,#1150,#1151,#1152,
#1153,#1154,#1155,#1156,#1157,#1158,#1159,#1160));
#536=EDGE_LOOP('',(#1161,#1162,#1163,#1164,#1165,#1166,#1167,#1168,#1169,
#1170,#1171,#1172,#1173,#1174,#1175,#1176,#1177));
#537=CIRCLE('',#1345,6.75);
#538=CIRCLE('',#1346,6.75);
#539=CIRCLE('',#1347,0.687500000000001);
#540=CIRCLE('',#1348,6.75);
#541=CIRCLE('',#1349,6.75);
#542=CIRCLE('',#1351,6.75);
#543=CIRCLE('',#1352,6.75);
#544=CIRCLE('',#1353,0.2);
#545=CIRCLE('',#1354,6.55);
#546=CIRCLE('',#1357,0.325);
#547=CIRCLE('',#1358,0.325);
#548=CIRCLE('',#1360,0.325);
#549=CIRCLE('',#1361,0.325);
#550=CIRCLE('',#1363,6.75);
#551=VERTEX_POINT('',#1748);
#552=VERTEX_POINT('',#1749);
#553=VERTEX_POINT('',#1752);
#554=VERTEX_POINT('',#1754);
#555=VERTEX_POINT('',#1758);
#556=VERTEX_POINT('',#1759);
#557=VERTEX_POINT('',#1762);
#558=VERTEX_POINT('',#1768);
#559=VERTEX_POINT('',#1770);
#560=VERTEX_POINT('',#1774);
#561=VERTEX_POINT('',#1776);
#562=VERTEX_POINT('',#1780);
#563=VERTEX_POINT('',#1788);
#564=VERTEX_POINT('',#1789);
#565=VERTEX_POINT('',#1791);
#566=VERTEX_POINT('',#1793);
#567=VERTEX_POINT('',#1797);
#568=VERTEX_POINT('',#1799);
#569=VERTEX_POINT('',#1803);
#570=VERTEX_POINT('',#1805);
#571=VERTEX_POINT('',#1809);
#572=VERTEX_POINT('',#1811);
#573=VERTEX_POINT('',#1815);
#574=VERTEX_POINT('',#1817);
#575=VERTEX_POINT('',#1821);
#576=VERTEX_POINT('',#1823);
#577=VERTEX_POINT('',#1827);
#578=VERTEX_POINT('',#1829);
#579=VERTEX_POINT('',#1833);
#580=VERTEX_POINT('',#1835);
#581=VERTEX_POINT('',#1839);
#582=VERTEX_POINT('',#1841);
#583=VERTEX_POINT('',#1845);
#584=VERTEX_POINT('',#1847);
#585=VERTEX_POINT('',#1856);
#586=VERTEX_POINT('',#1857);
#587=VERTEX_POINT('',#1859);
#588=VERTEX_POINT('',#1861);
#589=VERTEX_POINT('',#1865);
#590=VERTEX_POINT('',#1867);
#591=VERTEX_POINT('',#1871);
#592=VERTEX_POINT('',#1873);
#593=VERTEX_POINT('',#1877);
#594=VERTEX_POINT('',#1879);
#595=VERTEX_POINT('',#1883);
#596=VERTEX_POINT('',#1885);
#597=VERTEX_POINT('',#1889);
#598=VERTEX_POINT('',#1891);
#599=VERTEX_POINT('',#1895);
#600=VERTEX_POINT('',#1897);
#601=VERTEX_POINT('',#1901);
#602=VERTEX_POINT('',#1903);
#603=VERTEX_POINT('',#1907);
#604=VERTEX_POINT('',#1909);
#605=VERTEX_POINT('',#1913);
#606=VERTEX_POINT('',#1915);
#607=VERTEX_POINT('',#1919);
#608=VERTEX_POINT('',#1921);
#609=VERTEX_POINT('',#1925);
#610=VERTEX_POINT('',#1927);
#611=VERTEX_POINT('',#1931);
#612=VERTEX_POINT('',#1933);
#613=VERTEX_POINT('',#1937);
#614=VERTEX_POINT('',#1939);
#615=VERTEX_POINT('',#1943);
#616=VERTEX_POINT('',#1945);
#617=VERTEX_POINT('',#1949);
#618=VERTEX_POINT('',#1951);
#619=VERTEX_POINT('',#1955);
#620=VERTEX_POINT('',#1957);
#621=VERTEX_POINT('',#1961);
#622=VERTEX_POINT('',#1963);
#623=VERTEX_POINT('',#1967);
#624=VERTEX_POINT('',#1969);
#625=VERTEX_POINT('',#1973);
#626=VERTEX_POINT('',#1975);
#627=VERTEX_POINT('',#1979);
#628=VERTEX_POINT('',#1981);
#629=VERTEX_POINT('',#1985);
#630=VERTEX_POINT('',#1987);
#631=VERTEX_POINT('',#1996);
#632=VERTEX_POINT('',#1997);
#633=VERTEX_POINT('',#1999);
#634=VERTEX_POINT('',#2001);
#635=VERTEX_POINT('',#2005);
#636=VERTEX_POINT('',#2007);
#637=VERTEX_POINT('',#2011);
#638=VERTEX_POINT('',#2013);
#639=VERTEX_POINT('',#2017);
#640=VERTEX_POINT('',#2019);
#641=VERTEX_POINT('',#2023);
#642=VERTEX_POINT('',#2025);
#643=VERTEX_POINT('',#2029);
#644=VERTEX_POINT('',#2031);
#645=VERTEX_POINT('',#2035);
#646=VERTEX_POINT('',#2037);
#647=VERTEX_POINT('',#2041);
#648=VERTEX_POINT('',#2043);
#649=VERTEX_POINT('',#2047);
#650=VERTEX_POINT('',#2049);
#651=VERTEX_POINT('',#2053);
#652=VERTEX_POINT('',#2055);
#653=VERTEX_POINT('',#2059);
#654=VERTEX_POINT('',#2061);
#655=VERTEX_POINT('',#2065);
#656=VERTEX_POINT('',#2067);
#657=VERTEX_POINT('',#2071);
#658=VERTEX_POINT('',#2073);
#659=VERTEX_POINT('',#2077);
#660=VERTEX_POINT('',#2079);
#661=VERTEX_POINT('',#2083);
#662=VERTEX_POINT('',#2085);
#663=VERTEX_POINT('',#2089);
#664=VERTEX_POINT('',#2091);
#665=EDGE_CURVE('',#551,#552,#537,.T.);
#666=EDGE_CURVE('',#552,#551,#538,.T.);
#667=EDGE_CURVE('',#552,#553,#539,.T.);
#668=EDGE_CURVE('',#553,#554,#540,.T.);
#669=EDGE_CURVE('',#554,#553,#541,.T.);
#670=EDGE_CURVE('',#555,#556,#542,.T.);
#671=EDGE_CURVE('',#556,#555,#543,.T.);
#672=EDGE_CURVE('',#556,#557,#544,.T.);
#673=EDGE_CURVE('',#557,#557,#545,.T.);
#674=EDGE_CURVE('',#555,#554,#83,.T.);
#675=EDGE_CURVE('',#558,#558,#546,.T.);
#676=EDGE_CURVE('',#558,#559,#84,.T.);
#677=EDGE_CURVE('',#559,#559,#547,.T.);
#678=EDGE_CURVE('',#560,#560,#548,.T.);
#679=EDGE_CURVE('',#560,#561,#85,.T.);
#680=EDGE_CURVE('',#561,#561,#549,.T.);
#681=EDGE_CURVE('',#551,#562,#86,.T.);
#682=EDGE_CURVE('',#562,#562,#550,.T.);
#683=EDGE_CURVE('',#563,#564,#87,.T.);
#684=EDGE_CURVE('',#565,#564,#88,.T.);
#685=EDGE_CURVE('',#566,#565,#89,.T.);
#686=EDGE_CURVE('',#566,#563,#90,.T.);
#687=EDGE_CURVE('',#564,#567,#91,.T.);
#688=EDGE_CURVE('',#568,#567,#92,.T.);
#689=EDGE_CURVE('',#565,#568,#93,.T.);
#690=EDGE_CURVE('',#567,#569,#94,.T.);
#691=EDGE_CURVE('',#570,#569,#95,.T.);
#692=EDGE_CURVE('',#568,#570,#96,.T.);
#693=EDGE_CURVE('',#569,#571,#97,.T.);
#694=EDGE_CURVE('',#572,#571,#98,.T.);
#695=EDGE_CURVE('',#570,#572,#99,.T.);
#696=EDGE_CURVE('',#571,#573,#100,.T.);
#697=EDGE_CURVE('',#574,#573,#101,.T.);
#698=EDGE_CURVE('',#572,#574,#102,.T.);
#699=EDGE_CURVE('',#573,#575,#103,.T.);
#700=EDGE_CURVE('',#576,#575,#104,.T.);
#701=EDGE_CURVE('',#574,#576,#105,.T.);
#702=EDGE_CURVE('',#575,#577,#106,.T.);
#703=EDGE_CURVE('',#578,#577,#107,.T.);
#704=EDGE_CURVE('',#576,#578,#108,.T.);
#705=EDGE_CURVE('',#577,#579,#109,.T.);
#706=EDGE_CURVE('',#580,#579,#110,.T.);
#707=EDGE_CURVE('',#578,#580,#111,.T.);
#708=EDGE_CURVE('',#579,#581,#112,.T.);
#709=EDGE_CURVE('',#582,#581,#113,.T.);
#710=EDGE_CURVE('',#580,#582,#114,.T.);
#711=EDGE_CURVE('',#581,#583,#115,.T.);
#712=EDGE_CURVE('',#584,#583,#116,.T.);
#713=EDGE_CURVE('',#582,#584,#117,.T.);
#714=EDGE_CURVE('',#583,#563,#118,.T.);
#715=EDGE_CURVE('',#584,#566,#119,.T.);
#716=EDGE_CURVE('',#585,#586,#120,.T.);
#717=EDGE_CURVE('',#587,#586,#121,.T.);
#718=EDGE_CURVE('',#588,#587,#122,.T.);
#719=EDGE_CURVE('',#588,#585,#123,.T.);
#720=EDGE_CURVE('',#586,#589,#124,.T.);
#721=EDGE_CURVE('',#590,#589,#125,.T.);
#722=EDGE_CURVE('',#587,#590,#126,.T.);
#723=EDGE_CURVE('',#589,#591,#127,.T.);
#724=EDGE_CURVE('',#592,#591,#128,.T.);
#725=EDGE_CURVE('',#590,#592,#129,.T.);
#726=EDGE_CURVE('',#591,#593,#130,.T.);
#727=EDGE_CURVE('',#594,#593,#131,.T.);
#728=EDGE_CURVE('',#592,#594,#132,.T.);
#729=EDGE_CURVE('',#593,#595,#133,.T.);
#730=EDGE_CURVE('',#596,#595,#134,.T.);
#731=EDGE_CURVE('',#594,#596,#135,.T.);
#732=EDGE_CURVE('',#595,#597,#136,.T.);
#733=EDGE_CURVE('',#598,#597,#137,.T.);
#734=EDGE_CURVE('',#596,#598,#138,.T.);
#735=EDGE_CURVE('',#597,#599,#139,.T.);
#736=EDGE_CURVE('',#600,#599,#140,.T.);
#737=EDGE_CURVE('',#598,#600,#141,.T.);
#738=EDGE_CURVE('',#599,#601,#142,.T.);
#739=EDGE_CURVE('',#602,#601,#143,.T.);
#740=EDGE_CURVE('',#600,#602,#144,.T.);
#741=EDGE_CURVE('',#601,#603,#145,.T.);
#742=EDGE_CURVE('',#604,#603,#146,.T.);
#743=EDGE_CURVE('',#602,#604,#147,.T.);
#744=EDGE_CURVE('',#603,#605,#148,.T.);
#745=EDGE_CURVE('',#606,#605,#149,.T.);
#746=EDGE_CURVE('',#604,#606,#150,.T.);
#747=EDGE_CURVE('',#605,#607,#151,.T.);
#748=EDGE_CURVE('',#608,#607,#152,.T.);
#749=EDGE_CURVE('',#606,#608,#153,.T.);
#750=EDGE_CURVE('',#607,#609,#154,.T.);
#751=EDGE_CURVE('',#610,#609,#155,.T.);
#752=EDGE_CURVE('',#608,#610,#156,.T.);
#753=EDGE_CURVE('',#609,#611,#157,.T.);
#754=EDGE_CURVE('',#612,#611,#158,.T.);
#755=EDGE_CURVE('',#610,#612,#159,.T.);
#756=EDGE_CURVE('',#611,#613,#160,.T.);
#757=EDGE_CURVE('',#614,#613,#161,.T.);
#758=EDGE_CURVE('',#612,#614,#162,.T.);
#759=EDGE_CURVE('',#613,#615,#163,.T.);
#760=EDGE_CURVE('',#616,#615,#164,.T.);
#761=EDGE_CURVE('',#614,#616,#165,.T.);
#762=EDGE_CURVE('',#615,#617,#166,.T.);
#763=EDGE_CURVE('',#618,#617,#167,.T.);
#764=EDGE_CURVE('',#616,#618,#168,.T.);
#765=EDGE_CURVE('',#617,#619,#169,.T.);
#766=EDGE_CURVE('',#620,#619,#170,.T.);
#767=EDGE_CURVE('',#618,#620,#171,.T.);
#768=EDGE_CURVE('',#619,#621,#172,.T.);
#769=EDGE_CURVE('',#622,#621,#173,.T.);
#770=EDGE_CURVE('',#620,#622,#174,.T.);
#771=EDGE_CURVE('',#621,#623,#175,.T.);
#772=EDGE_CURVE('',#624,#623,#176,.T.);
#773=EDGE_CURVE('',#622,#624,#177,.T.);
#774=EDGE_CURVE('',#623,#625,#178,.T.);
#775=EDGE_CURVE('',#626,#625,#179,.T.);
#776=EDGE_CURVE('',#624,#626,#180,.T.);
#777=EDGE_CURVE('',#625,#627,#181,.T.);
#778=EDGE_CURVE('',#628,#627,#182,.T.);
#779=EDGE_CURVE('',#626,#628,#183,.T.);
#780=EDGE_CURVE('',#627,#629,#184,.T.);
#781=EDGE_CURVE('',#630,#629,#185,.T.);
#782=EDGE_CURVE('',#628,#630,#186,.T.);
#783=EDGE_CURVE('',#629,#585,#187,.T.);
#784=EDGE_CURVE('',#630,#588,#188,.T.);
#785=EDGE_CURVE('',#631,#632,#189,.T.);
#786=EDGE_CURVE('',#633,#632,#190,.T.);
#787=EDGE_CURVE('',#634,#633,#191,.T.);
#788=EDGE_CURVE('',#634,#631,#192,.T.);
#789=EDGE_CURVE('',#632,#635,#193,.T.);
#790=EDGE_CURVE('',#636,#635,#194,.T.);
#791=EDGE_CURVE('',#633,#636,#195,.T.);
#792=EDGE_CURVE('',#635,#637,#196,.T.);
#793=EDGE_CURVE('',#638,#637,#197,.T.);
#794=EDGE_CURVE('',#636,#638,#198,.T.);
#795=EDGE_CURVE('',#637,#639,#199,.T.);
#796=EDGE_CURVE('',#640,#639,#200,.T.);
#797=EDGE_CURVE('',#638,#640,#201,.T.);
#798=EDGE_CURVE('',#639,#641,#202,.T.);
#799=EDGE_CURVE('',#642,#641,#203,.T.);
#800=EDGE_CURVE('',#640,#642,#204,.T.);
#801=EDGE_CURVE('',#641,#643,#205,.T.);
#802=EDGE_CURVE('',#644,#643,#206,.T.);
#803=EDGE_CURVE('',#642,#644,#207,.T.);
#804=EDGE_CURVE('',#643,#645,#208,.T.);
#805=EDGE_CURVE('',#646,#645,#209,.T.);
#806=EDGE_CURVE('',#644,#646,#210,.T.);
#807=EDGE_CURVE('',#645,#647,#211,.T.);
#808=EDGE_CURVE('',#648,#647,#212,.T.);
#809=EDGE_CURVE('',#646,#648,#213,.T.);
#810=EDGE_CURVE('',#647,#649,#214,.T.);
#811=EDGE_CURVE('',#650,#649,#215,.T.);
#812=EDGE_CURVE('',#648,#650,#216,.T.);
#813=EDGE_CURVE('',#649,#651,#217,.T.);
#814=EDGE_CURVE('',#652,#651,#218,.T.);
#815=EDGE_CURVE('',#650,#652,#219,.T.);
#816=EDGE_CURVE('',#651,#653,#220,.T.);
#817=EDGE_CURVE('',#654,#653,#221,.T.);
#818=EDGE_CURVE('',#652,#654,#222,.T.);
#819=EDGE_CURVE('',#653,#655,#223,.T.);
#820=EDGE_CURVE('',#656,#655,#224,.T.);
#821=EDGE_CURVE('',#654,#656,#225,.T.);
#822=EDGE_CURVE('',#655,#657,#226,.T.);
#823=EDGE_CURVE('',#658,#657,#227,.T.);
#824=EDGE_CURVE('',#656,#658,#228,.T.);
#825=EDGE_CURVE('',#657,#659,#229,.T.);
#826=EDGE_CURVE('',#660,#659,#230,.T.);
#827=EDGE_CURVE('',#658,#660,#231,.T.);
#828=EDGE_CURVE('',#659,#661,#232,.T.);
#829=EDGE_CURVE('',#662,#661,#233,.T.);
#830=EDGE_CURVE('',#660,#662,#234,.T.);
#831=EDGE_CURVE('',#661,#663,#235,.T.);
#832=EDGE_CURVE('',#664,#663,#236,.T.);
#833=EDGE_CURVE('',#662,#664,#237,.T.);
#834=EDGE_CURVE('',#663,#631,#238,.T.);
#835=EDGE_CURVE('',#664,#634,#239,.T.);
#836=ORIENTED_EDGE('',*,*,#665,.F.);
#837=ORIENTED_EDGE('',*,*,#666,.F.);
#838=ORIENTED_EDGE('',*,*,#667,.T.);
#839=ORIENTED_EDGE('',*,*,#668,.T.);
#840=ORIENTED_EDGE('',*,*,#669,.T.);
#841=ORIENTED_EDGE('',*,*,#667,.F.);
#842=ORIENTED_EDGE('',*,*,#670,.F.);
#843=ORIENTED_EDGE('',*,*,#671,.F.);
#844=ORIENTED_EDGE('',*,*,#672,.T.);
#845=ORIENTED_EDGE('',*,*,#673,.F.);
#846=ORIENTED_EDGE('',*,*,#672,.F.);
#847=ORIENTED_EDGE('',*,*,#670,.T.);
#848=ORIENTED_EDGE('',*,*,#671,.T.);
#849=ORIENTED_EDGE('',*,*,#674,.T.);
#850=ORIENTED_EDGE('',*,*,#668,.F.);
#851=ORIENTED_EDGE('',*,*,#669,.F.);
#852=ORIENTED_EDGE('',*,*,#674,.F.);
#853=ORIENTED_EDGE('',*,*,#675,.T.);
#854=ORIENTED_EDGE('',*,*,#676,.T.);
#855=ORIENTED_EDGE('',*,*,#677,.F.);
#856=ORIENTED_EDGE('',*,*,#676,.F.);
#857=ORIENTED_EDGE('',*,*,#678,.T.);
#858=ORIENTED_EDGE('',*,*,#679,.T.);
#859=ORIENTED_EDGE('',*,*,#680,.F.);
#860=ORIENTED_EDGE('',*,*,#679,.F.);
#861=ORIENTED_EDGE('',*,*,#665,.T.);
#862=ORIENTED_EDGE('',*,*,#666,.T.);
#863=ORIENTED_EDGE('',*,*,#681,.T.);
#864=ORIENTED_EDGE('',*,*,#682,.F.);
#865=ORIENTED_EDGE('',*,*,#681,.F.);
#866=ORIENTED_EDGE('',*,*,#682,.T.);
#867=ORIENTED_EDGE('',*,*,#675,.F.);
#868=ORIENTED_EDGE('',*,*,#678,.F.);
#869=ORIENTED_EDGE('',*,*,#680,.T.);
#870=ORIENTED_EDGE('',*,*,#677,.T.);
#871=ORIENTED_EDGE('',*,*,#673,.T.);
#872=ORIENTED_EDGE('',*,*,#683,.T.);
#873=ORIENTED_EDGE('',*,*,#684,.F.);
#874=ORIENTED_EDGE('',*,*,#685,.F.);
#875=ORIENTED_EDGE('',*,*,#686,.T.);
#876=ORIENTED_EDGE('',*,*,#687,.T.);
#877=ORIENTED_EDGE('',*,*,#688,.F.);
#878=ORIENTED_EDGE('',*,*,#689,.F.);
#879=ORIENTED_EDGE('',*,*,#684,.T.);
#880=ORIENTED_EDGE('',*,*,#690,.T.);
#881=ORIENTED_EDGE('',*,*,#691,.F.);
#882=ORIENTED_EDGE('',*,*,#692,.F.);
#883=ORIENTED_EDGE('',*,*,#688,.T.);
#884=ORIENTED_EDGE('',*,*,#693,.T.);
#885=ORIENTED_EDGE('',*,*,#694,.F.);
#886=ORIENTED_EDGE('',*,*,#695,.F.);
#887=ORIENTED_EDGE('',*,*,#691,.T.);
#888=ORIENTED_EDGE('',*,*,#696,.T.);
#889=ORIENTED_EDGE('',*,*,#697,.F.);
#890=ORIENTED_EDGE('',*,*,#698,.F.);
#891=ORIENTED_EDGE('',*,*,#694,.T.);
#892=ORIENTED_EDGE('',*,*,#699,.T.);
#893=ORIENTED_EDGE('',*,*,#700,.F.);
#894=ORIENTED_EDGE('',*,*,#701,.F.);
#895=ORIENTED_EDGE('',*,*,#697,.T.);
#896=ORIENTED_EDGE('',*,*,#702,.T.);
#897=ORIENTED_EDGE('',*,*,#703,.F.);
#898=ORIENTED_EDGE('',*,*,#704,.F.);
#899=ORIENTED_EDGE('',*,*,#700,.T.);
#900=ORIENTED_EDGE('',*,*,#705,.T.);
#901=ORIENTED_EDGE('',*,*,#706,.F.);
#902=ORIENTED_EDGE('',*,*,#707,.F.);
#903=ORIENTED_EDGE('',*,*,#703,.T.);
#904=ORIENTED_EDGE('',*,*,#708,.T.);
#905=ORIENTED_EDGE('',*,*,#709,.F.);
#906=ORIENTED_EDGE('',*,*,#710,.F.);
#907=ORIENTED_EDGE('',*,*,#706,.T.);
#908=ORIENTED_EDGE('',*,*,#711,.T.);
#909=ORIENTED_EDGE('',*,*,#712,.F.);
#910=ORIENTED_EDGE('',*,*,#713,.F.);
#911=ORIENTED_EDGE('',*,*,#709,.T.);
#912=ORIENTED_EDGE('',*,*,#714,.T.);
#913=ORIENTED_EDGE('',*,*,#686,.F.);
#914=ORIENTED_EDGE('',*,*,#715,.F.);
#915=ORIENTED_EDGE('',*,*,#712,.T.);
#916=ORIENTED_EDGE('',*,*,#685,.T.);
#917=ORIENTED_EDGE('',*,*,#689,.T.);
#918=ORIENTED_EDGE('',*,*,#692,.T.);
#919=ORIENTED_EDGE('',*,*,#695,.T.);
#920=ORIENTED_EDGE('',*,*,#698,.T.);
#921=ORIENTED_EDGE('',*,*,#701,.T.);
#922=ORIENTED_EDGE('',*,*,#704,.T.);
#923=ORIENTED_EDGE('',*,*,#707,.T.);
#924=ORIENTED_EDGE('',*,*,#710,.T.);
#925=ORIENTED_EDGE('',*,*,#713,.T.);
#926=ORIENTED_EDGE('',*,*,#715,.T.);
#927=ORIENTED_EDGE('',*,*,#683,.F.);
#928=ORIENTED_EDGE('',*,*,#714,.F.);
#929=ORIENTED_EDGE('',*,*,#711,.F.);
#930=ORIENTED_EDGE('',*,*,#708,.F.);
#931=ORIENTED_EDGE('',*,*,#705,.F.);
#932=ORIENTED_EDGE('',*,*,#702,.F.);
#933=ORIENTED_EDGE('',*,*,#699,.F.);
#934=ORIENTED_EDGE('',*,*,#696,.F.);
#935=ORIENTED_EDGE('',*,*,#693,.F.);
#936=ORIENTED_EDGE('',*,*,#690,.F.);
#937=ORIENTED_EDGE('',*,*,#687,.F.);
#938=ORIENTED_EDGE('',*,*,#716,.T.);
#939=ORIENTED_EDGE('',*,*,#717,.F.);
#940=ORIENTED_EDGE('',*,*,#718,.F.);
#941=ORIENTED_EDGE('',*,*,#719,.T.);
#942=ORIENTED_EDGE('',*,*,#720,.T.);
#943=ORIENTED_EDGE('',*,*,#721,.F.);
#944=ORIENTED_EDGE('',*,*,#722,.F.);
#945=ORIENTED_EDGE('',*,*,#717,.T.);
#946=ORIENTED_EDGE('',*,*,#723,.T.);
#947=ORIENTED_EDGE('',*,*,#724,.F.);
#948=ORIENTED_EDGE('',*,*,#725,.F.);
#949=ORIENTED_EDGE('',*,*,#721,.T.);
#950=ORIENTED_EDGE('',*,*,#726,.T.);
#951=ORIENTED_EDGE('',*,*,#727,.F.);
#952=ORIENTED_EDGE('',*,*,#728,.F.);
#953=ORIENTED_EDGE('',*,*,#724,.T.);
#954=ORIENTED_EDGE('',*,*,#729,.T.);
#955=ORIENTED_EDGE('',*,*,#730,.F.);
#956=ORIENTED_EDGE('',*,*,#731,.F.);
#957=ORIENTED_EDGE('',*,*,#727,.T.);
#958=ORIENTED_EDGE('',*,*,#732,.T.);
#959=ORIENTED_EDGE('',*,*,#733,.F.);
#960=ORIENTED_EDGE('',*,*,#734,.F.);
#961=ORIENTED_EDGE('',*,*,#730,.T.);
#962=ORIENTED_EDGE('',*,*,#735,.T.);
#963=ORIENTED_EDGE('',*,*,#736,.F.);
#964=ORIENTED_EDGE('',*,*,#737,.F.);
#965=ORIENTED_EDGE('',*,*,#733,.T.);
#966=ORIENTED_EDGE('',*,*,#738,.T.);
#967=ORIENTED_EDGE('',*,*,#739,.F.);
#968=ORIENTED_EDGE('',*,*,#740,.F.);
#969=ORIENTED_EDGE('',*,*,#736,.T.);
#970=ORIENTED_EDGE('',*,*,#741,.T.);
#971=ORIENTED_EDGE('',*,*,#742,.F.);
#972=ORIENTED_EDGE('',*,*,#743,.F.);
#973=ORIENTED_EDGE('',*,*,#739,.T.);
#974=ORIENTED_EDGE('',*,*,#744,.T.);
#975=ORIENTED_EDGE('',*,*,#745,.F.);
#976=ORIENTED_EDGE('',*,*,#746,.F.);
#977=ORIENTED_EDGE('',*,*,#742,.T.);
#978=ORIENTED_EDGE('',*,*,#747,.T.);
#979=ORIENTED_EDGE('',*,*,#748,.F.);
#980=ORIENTED_EDGE('',*,*,#749,.F.);
#981=ORIENTED_EDGE('',*,*,#745,.T.);
#982=ORIENTED_EDGE('',*,*,#750,.T.);
#983=ORIENTED_EDGE('',*,*,#751,.F.);
#984=ORIENTED_EDGE('',*,*,#752,.F.);
#985=ORIENTED_EDGE('',*,*,#748,.T.);
#986=ORIENTED_EDGE('',*,*,#753,.T.);
#987=ORIENTED_EDGE('',*,*,#754,.F.);
#988=ORIENTED_EDGE('',*,*,#755,.F.);
#989=ORIENTED_EDGE('',*,*,#751,.T.);
#990=ORIENTED_EDGE('',*,*,#756,.T.);
#991=ORIENTED_EDGE('',*,*,#757,.F.);
#992=ORIENTED_EDGE('',*,*,#758,.F.);
#993=ORIENTED_EDGE('',*,*,#754,.T.);
#994=ORIENTED_EDGE('',*,*,#759,.T.);
#995=ORIENTED_EDGE('',*,*,#760,.F.);
#996=ORIENTED_EDGE('',*,*,#761,.F.);
#997=ORIENTED_EDGE('',*,*,#757,.T.);
#998=ORIENTED_EDGE('',*,*,#762,.T.);
#999=ORIENTED_EDGE('',*,*,#763,.F.);
#1000=ORIENTED_EDGE('',*,*,#764,.F.);
#1001=ORIENTED_EDGE('',*,*,#760,.T.);
#1002=ORIENTED_EDGE('',*,*,#765,.T.);
#1003=ORIENTED_EDGE('',*,*,#766,.F.);
#1004=ORIENTED_EDGE('',*,*,#767,.F.);
#1005=ORIENTED_EDGE('',*,*,#763,.T.);
#1006=ORIENTED_EDGE('',*,*,#768,.T.);
#1007=ORIENTED_EDGE('',*,*,#769,.F.);
#1008=ORIENTED_EDGE('',*,*,#770,.F.);
#1009=ORIENTED_EDGE('',*,*,#766,.T.);
#1010=ORIENTED_EDGE('',*,*,#771,.T.);
#1011=ORIENTED_EDGE('',*,*,#772,.F.);
#1012=ORIENTED_EDGE('',*,*,#773,.F.);
#1013=ORIENTED_EDGE('',*,*,#769,.T.);
#1014=ORIENTED_EDGE('',*,*,#774,.T.);
#1015=ORIENTED_EDGE('',*,*,#775,.F.);
#1016=ORIENTED_EDGE('',*,*,#776,.F.);
#1017=ORIENTED_EDGE('',*,*,#772,.T.);
#1018=ORIENTED_EDGE('',*,*,#777,.T.);
#1019=ORIENTED_EDGE('',*,*,#778,.F.);
#1020=ORIENTED_EDGE('',*,*,#779,.F.);
#1021=ORIENTED_EDGE('',*,*,#775,.T.);
#1022=ORIENTED_EDGE('',*,*,#780,.T.);
#1023=ORIENTED_EDGE('',*,*,#781,.F.);
#1024=ORIENTED_EDGE('',*,*,#782,.F.);
#1025=ORIENTED_EDGE('',*,*,#778,.T.);
#1026=ORIENTED_EDGE('',*,*,#783,.T.);
#1027=ORIENTED_EDGE('',*,*,#719,.F.);
#1028=ORIENTED_EDGE('',*,*,#784,.F.);
#1029=ORIENTED_EDGE('',*,*,#781,.T.);
#1030=ORIENTED_EDGE('',*,*,#718,.T.);
#1031=ORIENTED_EDGE('',*,*,#722,.T.);
#1032=ORIENTED_EDGE('',*,*,#725,.T.);
#1033=ORIENTED_EDGE('',*,*,#728,.T.);
#1034=ORIENTED_EDGE('',*,*,#731,.T.);
#1035=ORIENTED_EDGE('',*,*,#734,.T.);
#1036=ORIENTED_EDGE('',*,*,#737,.T.);
#1037=ORIENTED_EDGE('',*,*,#740,.T.);
#1038=ORIENTED_EDGE('',*,*,#743,.T.);
#1039=ORIENTED_EDGE('',*,*,#746,.T.);
#1040=ORIENTED_EDGE('',*,*,#749,.T.);
#1041=ORIENTED_EDGE('',*,*,#752,.T.);
#1042=ORIENTED_EDGE('',*,*,#755,.T.);
#1043=ORIENTED_EDGE('',*,*,#758,.T.);
#1044=ORIENTED_EDGE('',*,*,#761,.T.);
#1045=ORIENTED_EDGE('',*,*,#764,.T.);
#1046=ORIENTED_EDGE('',*,*,#767,.T.);
#1047=ORIENTED_EDGE('',*,*,#770,.T.);
#1048=ORIENTED_EDGE('',*,*,#773,.T.);
#1049=ORIENTED_EDGE('',*,*,#776,.T.);
#1050=ORIENTED_EDGE('',*,*,#779,.T.);
#1051=ORIENTED_EDGE('',*,*,#782,.T.);
#1052=ORIENTED_EDGE('',*,*,#784,.T.);
#1053=ORIENTED_EDGE('',*,*,#716,.F.);
#1054=ORIENTED_EDGE('',*,*,#783,.F.);
#1055=ORIENTED_EDGE('',*,*,#780,.F.);
#1056=ORIENTED_EDGE('',*,*,#777,.F.);
#1057=ORIENTED_EDGE('',*,*,#774,.F.);
#1058=ORIENTED_EDGE('',*,*,#771,.F.);
#1059=ORIENTED_EDGE('',*,*,#768,.F.);
#1060=ORIENTED_EDGE('',*,*,#765,.F.);
#1061=ORIENTED_EDGE('',*,*,#762,.F.);
#1062=ORIENTED_EDGE('',*,*,#759,.F.);
#1063=ORIENTED_EDGE('',*,*,#756,.F.);
#1064=ORIENTED_EDGE('',*,*,#753,.F.);
#1065=ORIENTED_EDGE('',*,*,#750,.F.);
#1066=ORIENTED_EDGE('',*,*,#747,.F.);
#1067=ORIENTED_EDGE('',*,*,#744,.F.);
#1068=ORIENTED_EDGE('',*,*,#741,.F.);
#1069=ORIENTED_EDGE('',*,*,#738,.F.);
#1070=ORIENTED_EDGE('',*,*,#735,.F.);
#1071=ORIENTED_EDGE('',*,*,#732,.F.);
#1072=ORIENTED_EDGE('',*,*,#729,.F.);
#1073=ORIENTED_EDGE('',*,*,#726,.F.);
#1074=ORIENTED_EDGE('',*,*,#723,.F.);
#1075=ORIENTED_EDGE('',*,*,#720,.F.);
#1076=ORIENTED_EDGE('',*,*,#785,.T.);
#1077=ORIENTED_EDGE('',*,*,#786,.F.);
#1078=ORIENTED_EDGE('',*,*,#787,.F.);
#1079=ORIENTED_EDGE('',*,*,#788,.T.);
#1080=ORIENTED_EDGE('',*,*,#789,.T.);
#1081=ORIENTED_EDGE('',*,*,#790,.F.);
#1082=ORIENTED_EDGE('',*,*,#791,.F.);
#1083=ORIENTED_EDGE('',*,*,#786,.T.);
#1084=ORIENTED_EDGE('',*,*,#792,.T.);
#1085=ORIENTED_EDGE('',*,*,#793,.F.);
#1086=ORIENTED_EDGE('',*,*,#794,.F.);
#1087=ORIENTED_EDGE('',*,*,#790,.T.);
#1088=ORIENTED_EDGE('',*,*,#795,.T.);
#1089=ORIENTED_EDGE('',*,*,#796,.F.);
#1090=ORIENTED_EDGE('',*,*,#797,.F.);
#1091=ORIENTED_EDGE('',*,*,#793,.T.);
#1092=ORIENTED_EDGE('',*,*,#798,.T.);
#1093=ORIENTED_EDGE('',*,*,#799,.F.);
#1094=ORIENTED_EDGE('',*,*,#800,.F.);
#1095=ORIENTED_EDGE('',*,*,#796,.T.);
#1096=ORIENTED_EDGE('',*,*,#801,.T.);
#1097=ORIENTED_EDGE('',*,*,#802,.F.);
#1098=ORIENTED_EDGE('',*,*,#803,.F.);
#1099=ORIENTED_EDGE('',*,*,#799,.T.);
#1100=ORIENTED_EDGE('',*,*,#804,.T.);
#1101=ORIENTED_EDGE('',*,*,#805,.F.);
#1102=ORIENTED_EDGE('',*,*,#806,.F.);
#1103=ORIENTED_EDGE('',*,*,#802,.T.);
#1104=ORIENTED_EDGE('',*,*,#807,.T.);
#1105=ORIENTED_EDGE('',*,*,#808,.F.);
#1106=ORIENTED_EDGE('',*,*,#809,.F.);
#1107=ORIENTED_EDGE('',*,*,#805,.T.);
#1108=ORIENTED_EDGE('',*,*,#810,.T.);
#1109=ORIENTED_EDGE('',*,*,#811,.F.);
#1110=ORIENTED_EDGE('',*,*,#812,.F.);
#1111=ORIENTED_EDGE('',*,*,#808,.T.);
#1112=ORIENTED_EDGE('',*,*,#813,.T.);
#1113=ORIENTED_EDGE('',*,*,#814,.F.);
#1114=ORIENTED_EDGE('',*,*,#815,.F.);
#1115=ORIENTED_EDGE('',*,*,#811,.T.);
#1116=ORIENTED_EDGE('',*,*,#816,.T.);
#1117=ORIENTED_EDGE('',*,*,#817,.F.);
#1118=ORIENTED_EDGE('',*,*,#818,.F.);
#1119=ORIENTED_EDGE('',*,*,#814,.T.);
#1120=ORIENTED_EDGE('',*,*,#819,.T.);
#1121=ORIENTED_EDGE('',*,*,#820,.F.);
#1122=ORIENTED_EDGE('',*,*,#821,.F.);
#1123=ORIENTED_EDGE('',*,*,#817,.T.);
#1124=ORIENTED_EDGE('',*,*,#822,.T.);
#1125=ORIENTED_EDGE('',*,*,#823,.F.);
#1126=ORIENTED_EDGE('',*,*,#824,.F.);
#1127=ORIENTED_EDGE('',*,*,#820,.T.);
#1128=ORIENTED_EDGE('',*,*,#825,.T.);
#1129=ORIENTED_EDGE('',*,*,#826,.F.);
#1130=ORIENTED_EDGE('',*,*,#827,.F.);
#1131=ORIENTED_EDGE('',*,*,#823,.T.);
#1132=ORIENTED_EDGE('',*,*,#828,.T.);
#1133=ORIENTED_EDGE('',*,*,#829,.F.);
#1134=ORIENTED_EDGE('',*,*,#830,.F.);
#1135=ORIENTED_EDGE('',*,*,#826,.T.);
#1136=ORIENTED_EDGE('',*,*,#831,.T.);
#1137=ORIENTED_EDGE('',*,*,#832,.F.);
#1138=ORIENTED_EDGE('',*,*,#833,.F.);
#1139=ORIENTED_EDGE('',*,*,#829,.T.);
#1140=ORIENTED_EDGE('',*,*,#834,.T.);
#1141=ORIENTED_EDGE('',*,*,#788,.F.);
#1142=ORIENTED_EDGE('',*,*,#835,.F.);
#1143=ORIENTED_EDGE('',*,*,#832,.T.);
#1144=ORIENTED_EDGE('',*,*,#787,.T.);
#1145=ORIENTED_EDGE('',*,*,#791,.T.);
#1146=ORIENTED_EDGE('',*,*,#794,.T.);
#1147=ORIENTED_EDGE('',*,*,#797,.T.);
#1148=ORIENTED_EDGE('',*,*,#800,.T.);
#1149=ORIENTED_EDGE('',*,*,#803,.T.);
#1150=ORIENTED_EDGE('',*,*,#806,.T.);
#1151=ORIENTED_EDGE('',*,*,#809,.T.);
#1152=ORIENTED_EDGE('',*,*,#812,.T.);
#1153=ORIENTED_EDGE('',*,*,#815,.T.);
#1154=ORIENTED_EDGE('',*,*,#818,.T.);
#1155=ORIENTED_EDGE('',*,*,#821,.T.);
#1156=ORIENTED_EDGE('',*,*,#824,.T.);
#1157=ORIENTED_EDGE('',*,*,#827,.T.);
#1158=ORIENTED_EDGE('',*,*,#830,.T.);
#1159=ORIENTED_EDGE('',*,*,#833,.T.);
#1160=ORIENTED_EDGE('',*,*,#835,.T.);
#1161=ORIENTED_EDGE('',*,*,#785,.F.);
#1162=ORIENTED_EDGE('',*,*,#834,.F.);
#1163=ORIENTED_EDGE('',*,*,#831,.F.);
#1164=ORIENTED_EDGE('',*,*,#828,.F.);
#1165=ORIENTED_EDGE('',*,*,#825,.F.);
#1166=ORIENTED_EDGE('',*,*,#822,.F.);
#1167=ORIENTED_EDGE('',*,*,#819,.F.);
#1168=ORIENTED_EDGE('',*,*,#816,.F.);
#1169=ORIENTED_EDGE('',*,*,#813,.F.);
#1170=ORIENTED_EDGE('',*,*,#810,.F.);
#1171=ORIENTED_EDGE('',*,*,#807,.F.);
#1172=ORIENTED_EDGE('',*,*,#804,.F.);
#1173=ORIENTED_EDGE('',*,*,#801,.F.);
#1174=ORIENTED_EDGE('',*,*,#798,.F.);
#1175=ORIENTED_EDGE('',*,*,#795,.F.);
#1176=ORIENTED_EDGE('',*,*,#792,.F.);
#1177=ORIENTED_EDGE('',*,*,#789,.F.);
#1178=TOROIDAL_SURFACE('',#1344,6.75,0.687500000000001);
#1179=TOROIDAL_SURFACE('',#1350,6.55,0.2);
#1180=STYLED_ITEM('',(#2121),#1251);
#1181=STYLED_ITEM('',(#2121),#1252);
#1182=STYLED_ITEM('',(#2121),#1253);
#1183=STYLED_ITEM('',(#2122),#1254);
#1184=STYLED_ITEM('',(#2122),#1255);
#1185=STYLED_ITEM('',(#2121),#1256);
#1186=STYLED_ITEM('',(#2121),#1257);
#1187=STYLED_ITEM('',(#2122),#1258);
#1188=STYLED_ITEM('',(#2122),#1259);
#1189=STYLED_ITEM('',(#2121),#1260);
#1190=STYLED_ITEM('',(#2120),#16);
#1191=STYLED_ITEM('',(#2123),#1261);
#1192=STYLED_ITEM('',(#2123),#1262);
#1193=STYLED_ITEM('',(#2123),#1263);
#1194=STYLED_ITEM('',(#2123),#1264);
#1195=STYLED_ITEM('',(#2123),#1265);
#1196=STYLED_ITEM('',(#2123),#1266);
#1197=STYLED_ITEM('',(#2123),#1267);
#1198=STYLED_ITEM('',(#2123),#1268);
#1199=STYLED_ITEM('',(#2123),#1269);
#1200=STYLED_ITEM('',(#2123),#1270);
#1201=STYLED_ITEM('',(#2123),#1271);
#1202=STYLED_ITEM('',(#2123),#1272);
#1203=STYLED_ITEM('',(#2123),#1273);
#1204=STYLED_ITEM('',(#2120),#17);
#1205=STYLED_ITEM('',(#2123),#1274);
#1206=STYLED_ITEM('',(#2123),#1275);
#1207=STYLED_ITEM('',(#2123),#1276);
#1208=STYLED_ITEM('',(#2123),#1277);
#1209=STYLED_ITEM('',(#2123),#1278);
#1210=STYLED_ITEM('',(#2123),#1279);
#1211=STYLED_ITEM('',(#2123),#1280);
#1212=STYLED_ITEM('',(#2123),#1281);
#1213=STYLED_ITEM('',(#2123),#1282);
#1214=STYLED_ITEM('',(#2123),#1283);
#1215=STYLED_ITEM('',(#2123),#1284);
#1216=STYLED_ITEM('',(#2123),#1285);
#1217=STYLED_ITEM('',(#2123),#1286);
#1218=STYLED_ITEM('',(#2123),#1287);
#1219=STYLED_ITEM('',(#2123),#1288);
#1220=STYLED_ITEM('',(#2123),#1289);
#1221=STYLED_ITEM('',(#2123),#1290);
#1222=STYLED_ITEM('',(#2123),#1291);
#1223=STYLED_ITEM('',(#2123),#1292);
#1224=STYLED_ITEM('',(#2123),#1293);
#1225=STYLED_ITEM('',(#2123),#1294);
#1226=STYLED_ITEM('',(#2123),#1295);
#1227=STYLED_ITEM('',(#2123),#1296);
#1228=STYLED_ITEM('',(#2123),#1297);
#1229=STYLED_ITEM('',(#2123),#1298);
#1230=STYLED_ITEM('',(#2120),#18);
#1231=STYLED_ITEM('',(#2123),#1299);
#1232=STYLED_ITEM('',(#2123),#1300);
#1233=STYLED_ITEM('',(#2123),#1301);
#1234=STYLED_ITEM('',(#2123),#1302);
#1235=STYLED_ITEM('',(#2123),#1303);
#1236=STYLED_ITEM('',(#2123),#1304);
#1237=STYLED_ITEM('',(#2123),#1305);
#1238=STYLED_ITEM('',(#2123),#1306);
#1239=STYLED_ITEM('',(#2123),#1307);
#1240=STYLED_ITEM('',(#2123),#1308);
#1241=STYLED_ITEM('',(#2123),#1309);
#1242=STYLED_ITEM('',(#2123),#1310);
#1243=STYLED_ITEM('',(#2123),#1311);
#1244=STYLED_ITEM('',(#2123),#1312);
#1245=STYLED_ITEM('',(#2123),#1313);
#1246=STYLED_ITEM('',(#2123),#1314);
#1247=STYLED_ITEM('',(#2123),#1315);
#1248=STYLED_ITEM('',(#2123),#1316);
#1249=STYLED_ITEM('',(#2123),#1317);
#1250=STYLED_ITEM('',(#2120),#19);
#1251=ADVANCED_FACE('',(#401),#1178,.F.);
#1252=ADVANCED_FACE('',(#402),#1179,.T.);
#1253=ADVANCED_FACE('',(#403),#397,.T.);
#1254=ADVANCED_FACE('',(#404),#398,.T.);
#1255=ADVANCED_FACE('',(#405),#399,.T.);
#1256=ADVANCED_FACE('',(#406),#400,.T.);
#1257=ADVANCED_FACE('',(#407,#20,#21),#22,.T.);
#1258=ADVANCED_FACE('',(#408),#23,.T.);
#1259=ADVANCED_FACE('',(#409),#24,.T.);
#1260=ADVANCED_FACE('',(#410),#25,.F.);
#1261=ADVANCED_FACE('',(#411),#26,.F.);
#1262=ADVANCED_FACE('',(#412),#27,.F.);
#1263=ADVANCED_FACE('',(#413),#28,.F.);
#1264=ADVANCED_FACE('',(#414),#29,.F.);
#1265=ADVANCED_FACE('',(#415),#30,.F.);
#1266=ADVANCED_FACE('',(#416),#31,.F.);
#1267=ADVANCED_FACE('',(#417),#32,.F.);
#1268=ADVANCED_FACE('',(#418),#33,.F.);
#1269=ADVANCED_FACE('',(#419),#34,.F.);
#1270=ADVANCED_FACE('',(#420),#35,.F.);
#1271=ADVANCED_FACE('',(#421),#36,.F.);
#1272=ADVANCED_FACE('',(#422),#37,.F.);
#1273=ADVANCED_FACE('',(#423),#38,.T.);
#1274=ADVANCED_FACE('',(#424),#39,.F.);
#1275=ADVANCED_FACE('',(#425),#40,.F.);
#1276=ADVANCED_FACE('',(#426),#41,.F.);
#1277=ADVANCED_FACE('',(#427),#42,.F.);
#1278=ADVANCED_FACE('',(#428),#43,.F.);
#1279=ADVANCED_FACE('',(#429),#44,.F.);
#1280=ADVANCED_FACE('',(#430),#45,.F.);
#1281=ADVANCED_FACE('',(#431),#46,.F.);
#1282=ADVANCED_FACE('',(#432),#47,.F.);
#1283=ADVANCED_FACE('',(#433),#48,.F.);
#1284=ADVANCED_FACE('',(#434),#49,.F.);
#1285=ADVANCED_FACE('',(#435),#50,.F.);
#1286=ADVANCED_FACE('',(#436),#51,.F.);
#1287=ADVANCED_FACE('',(#437),#52,.F.);
#1288=ADVANCED_FACE('',(#438),#53,.F.);
#1289=ADVANCED_FACE('',(#439),#54,.F.);
#1290=ADVANCED_FACE('',(#440),#55,.F.);
#1291=ADVANCED_FACE('',(#441),#56,.F.);
#1292=ADVANCED_FACE('',(#442),#57,.F.);
#1293=ADVANCED_FACE('',(#443),#58,.F.);
#1294=ADVANCED_FACE('',(#444),#59,.F.);
#1295=ADVANCED_FACE('',(#445),#60,.F.);
#1296=ADVANCED_FACE('',(#446),#61,.F.);
#1297=ADVANCED_FACE('',(#447),#62,.F.);
#1298=ADVANCED_FACE('',(#448),#63,.T.);
#1299=ADVANCED_FACE('',(#449),#64,.F.);
#1300=ADVANCED_FACE('',(#450),#65,.F.);
#1301=ADVANCED_FACE('',(#451),#66,.F.);
#1302=ADVANCED_FACE('',(#452),#67,.F.);
#1303=ADVANCED_FACE('',(#453),#68,.F.);
#1304=ADVANCED_FACE('',(#454),#69,.F.);
#1305=ADVANCED_FACE('',(#455),#70,.F.);
#1306=ADVANCED_FACE('',(#456),#71,.F.);
#1307=ADVANCED_FACE('',(#457),#72,.F.);
#1308=ADVANCED_FACE('',(#458),#73,.F.);
#1309=ADVANCED_FACE('',(#459),#74,.F.);
#1310=ADVANCED_FACE('',(#460),#75,.F.);
#1311=ADVANCED_FACE('',(#461),#76,.F.);
#1312=ADVANCED_FACE('',(#462),#77,.F.);
#1313=ADVANCED_FACE('',(#463),#78,.F.);
#1314=ADVANCED_FACE('',(#464),#79,.F.);
#1315=ADVANCED_FACE('',(#465),#80,.F.);
#1316=ADVANCED_FACE('',(#466),#81,.T.);
#1317=ADVANCED_FACE('',(#467),#82,.F.);
#1318=CLOSED_SHELL('',(#1251,#1252,#1253,#1254,#1255,#1256,#1257,#1258,
#1259,#1260));
#1319=CLOSED_SHELL('',(#1261,#1262,#1263,#1264,#1265,#1266,#1267,#1268,
#1269,#1270,#1271,#1272,#1273));
#1320=CLOSED_SHELL('',(#1274,#1275,#1276,#1277,#1278,#1279,#1280,#1281,
#1282,#1283,#1284,#1285,#1286,#1287,#1288,#1289,#1290,#1291,#1292,#1293,
#1294,#1295,#1296,#1297,#1298));
#1321=CLOSED_SHELL('',(#1299,#1300,#1301,#1302,#1303,#1304,#1305,#1306,
#1307,#1308,#1309,#1310,#1311,#1312,#1313,#1314,#1315,#1316,#1317));
#1322=DERIVED_UNIT_ELEMENT(#1325,1.);
#1323=DERIVED_UNIT_ELEMENT(#2105,-3.);
#1324=DIMENSIONAL_EXPONENTS(0.,1.,0.,0.,0.,0.,0.);
#1325=(
CONVERSION_BASED_UNIT('gram',#1327)
MASS_UNIT()
NAMED_UNIT(#1324)
);
#1326=(
MASS_UNIT()
NAMED_UNIT(*)
SI_UNIT(.KILO.,.GRAM.)
);
#1327=MASS_MEASURE_WITH_UNIT(MASS_MEASURE(0.001),#1326);
#1328=DERIVED_UNIT((#1322,#1323));
#1329=MEASURE_REPRESENTATION_ITEM('density measure',
POSITIVE_RATIO_MEASURE(1.),#1328);
#1330=PROPERTY_DEFINITION_REPRESENTATION(#1335,#1332);
#1331=PROPERTY_DEFINITION_REPRESENTATION(#1336,#1333);
#1332=REPRESENTATION('material name',(#1334),#2102);
#1333=REPRESENTATION('density',(#1329),#2102);
#1334=DESCRIPTIVE_REPRESENTATION_ITEM('Generic','Generic');
#1335=PROPERTY_DEFINITION('material property','material name',#2112);
#1336=PROPERTY_DEFINITION('material property','density of part',#2112);
#1337=DATE_TIME_ROLE('creation_date');
#1338=APPLIED_DATE_AND_TIME_ASSIGNMENT(#1339,#1337,(#2112));
#1339=DATE_AND_TIME(#1340,#1341);
#1340=CALENDAR_DATE(2025,14,4);
#1341=LOCAL_TIME(23,12,47.,#1342);
#1342=COORDINATED_UNIVERSAL_TIME_OFFSET(0,0,.BEHIND.);
#1343=AXIS2_PLACEMENT_3D('',#1746,#1425,#1426);
#1344=AXIS2_PLACEMENT_3D('',#1747,#1427,#1428);
#1345=AXIS2_PLACEMENT_3D('',#1750,#1429,#1430);
#1346=AXIS2_PLACEMENT_3D('',#1751,#1431,#1432);
#1347=AXIS2_PLACEMENT_3D('',#1753,#1433,#1434);
#1348=AXIS2_PLACEMENT_3D('',#1755,#1435,#1436);
#1349=AXIS2_PLACEMENT_3D('',#1756,#1437,#1438);
#1350=AXIS2_PLACEMENT_3D('',#1757,#1439,#1440);
#1351=AXIS2_PLACEMENT_3D('',#1760,#1441,#1442);
#1352=AXIS2_PLACEMENT_3D('',#1761,#1443,#1444);
#1353=AXIS2_PLACEMENT_3D('',#1763,#1445,#1446);
#1354=AXIS2_PLACEMENT_3D('',#1764,#1447,#1448);
#1355=AXIS2_PLACEMENT_3D('',#1765,#1449,#1450);
#1356=AXIS2_PLACEMENT_3D('',#1767,#1452,#1453);
#1357=AXIS2_PLACEMENT_3D('',#1769,#1454,#1455);
#1358=AXIS2_PLACEMENT_3D('',#1772,#1457,#1458);
#1359=AXIS2_PLACEMENT_3D('',#1773,#1459,#1460);
#1360=AXIS2_PLACEMENT_3D('',#1775,#1461,#1462);
#1361=AXIS2_PLACEMENT_3D('',#1778,#1464,#1465);
#1362=AXIS2_PLACEMENT_3D('',#1779,#1466,#1467);
#1363=AXIS2_PLACEMENT_3D('',#1782,#1469,#1470);
#1364=AXIS2_PLACEMENT_3D('',#1783,#1471,#1472);
#1365=AXIS2_PLACEMENT_3D('',#1784,#1473,#1474);
#1366=AXIS2_PLACEMENT_3D('',#1785,#1475,#1476);
#1367=AXIS2_PLACEMENT_3D('',#1786,#1477,#1478);
#1368=AXIS2_PLACEMENT_3D('',#1787,#1479,#1480);
#1369=AXIS2_PLACEMENT_3D('',#1796,#1485,#1486);
#1370=AXIS2_PLACEMENT_3D('',#1802,#1490,#1491);
#1371=AXIS2_PLACEMENT_3D('',#1808,#1495,#1496);
#1372=AXIS2_PLACEMENT_3D('',#1814,#1500,#1501);
#1373=AXIS2_PLACEMENT_3D('',#1820,#1505,#1506);
#1374=AXIS2_PLACEMENT_3D('',#1826,#1510,#1511);
#1375=AXIS2_PLACEMENT_3D('',#1832,#1515,#1516);
#1376=AXIS2_PLACEMENT_3D('',#1838,#1520,#1521);
#1377=AXIS2_PLACEMENT_3D('',#1844,#1525,#1526);
#1378=AXIS2_PLACEMENT_3D('',#1850,#1530,#1531);
#1379=AXIS2_PLACEMENT_3D('',#1853,#1534,#1535);
#1380=AXIS2_PLACEMENT_3D('',#1854,#1536,#1537);
#1381=AXIS2_PLACEMENT_3D('',#1855,#1538,#1539);
#1382=AXIS2_PLACEMENT_3D('',#1864,#1544,#1545);
#1383=AXIS2_PLACEMENT_3D('',#1870,#1549,#1550);
#1384=AXIS2_PLACEMENT_3D('',#1876,#1554,#1555);
#1385=AXIS2_PLACEMENT_3D('',#1882,#1559,#1560);
#1386=AXIS2_PLACEMENT_3D('',#1888,#1564,#1565);
#1387=AXIS2_PLACEMENT_3D('',#1894,#1569,#1570);
#1388=AXIS2_PLACEMENT_3D('',#1900,#1574,#1575);
#1389=AXIS2_PLACEMENT_3D('',#1906,#1579,#1580);
#1390=AXIS2_PLACEMENT_3D('',#1912,#1584,#1585);
#1391=AXIS2_PLACEMENT_3D('',#1918,#1589,#1590);
#1392=AXIS2_PLACEMENT_3D('',#1924,#1594,#1595);
#1393=AXIS2_PLACEMENT_3D('',#1930,#1599,#1600);
#1394=AXIS2_PLACEMENT_3D('',#1936,#1604,#1605);
#1395=AXIS2_PLACEMENT_3D('',#1942,#1609,#1610);
#1396=AXIS2_PLACEMENT_3D('',#1948,#1614,#1615);
#1397=AXIS2_PLACEMENT_3D('',#1954,#1619,#1620);
#1398=AXIS2_PLACEMENT_3D('',#1960,#1624,#1625);
#1399=AXIS2_PLACEMENT_3D('',#1966,#1629,#1630);
#1400=AXIS2_PLACEMENT_3D('',#1972,#1634,#1635);
#1401=AXIS2_PLACEMENT_3D('',#1978,#1639,#1640);
#1402=AXIS2_PLACEMENT_3D('',#1984,#1644,#1645);
#1403=AXIS2_PLACEMENT_3D('',#1990,#1649,#1650);
#1404=AXIS2_PLACEMENT_3D('',#1993,#1653,#1654);
#1405=AXIS2_PLACEMENT_3D('',#1994,#1655,#1656);
#1406=AXIS2_PLACEMENT_3D('',#1995,#1657,#1658);
#1407=AXIS2_PLACEMENT_3D('',#2004,#1663,#1664);
#1408=AXIS2_PLACEMENT_3D('',#2010,#1668,#1669);
#1409=AXIS2_PLACEMENT_3D('',#2016,#1673,#1674);
#1410=AXIS2_PLACEMENT_3D('',#2022,#1678,#1679);
#1411=AXIS2_PLACEMENT_3D('',#2028,#1683,#1684);
#1412=AXIS2_PLACEMENT_3D('',#2034,#1688,#1689);
#1413=AXIS2_PLACEMENT_3D('',#2040,#1693,#1694);
#1414=AXIS2_PLACEMENT_3D('',#2046,#1698,#1699);
#1415=AXIS2_PLACEMENT_3D('',#2052,#1703,#1704);
#1416=AXIS2_PLACEMENT_3D('',#2058,#1708,#1709);
#1417=AXIS2_PLACEMENT_3D('',#2064,#1713,#1714);
#1418=AXIS2_PLACEMENT_3D('',#2070,#1718,#1719);
#1419=AXIS2_PLACEMENT_3D('',#2076,#1723,#1724);
#1420=AXIS2_PLACEMENT_3D('',#2082,#1728,#1729);
#1421=AXIS2_PLACEMENT_3D('',#2088,#1733,#1734);
#1422=AXIS2_PLACEMENT_3D('',#2094,#1738,#1739);
#1423=AXIS2_PLACEMENT_3D('',#2097,#1742,#1743);
#1424=AXIS2_PLACEMENT_3D('',#2098,#1744,#1745);
#1425=DIRECTION('axis',(0.,0.,1.));
#1426=DIRECTION('refdir',(1.,0.,0.));
#1427=DIRECTION('center_axis',(1.,0.,0.));
#1428=DIRECTION('ref_axis',(0.,0.,-1.));
#1429=DIRECTION('center_axis',(1.,0.,0.));
#1430=DIRECTION('ref_axis',(0.,0.,-1.));
#1431=DIRECTION('center_axis',(1.,0.,0.));
#1432=DIRECTION('ref_axis',(0.,0.,-1.));
#1433=DIRECTION('center_axis',(0.,1.,1.22464679914735E-16));
#1434=DIRECTION('ref_axis',(0.,-1.22464679914735E-16,1.));
#1435=DIRECTION('center_axis',(1.,0.,0.));
#1436=DIRECTION('ref_axis',(0.,0.,-1.));
#1437=DIRECTION('center_axis',(1.,0.,0.));
#1438=DIRECTION('ref_axis',(0.,0.,-1.));
#1439=DIRECTION('center_axis',(1.,0.,0.));
#1440=DIRECTION('ref_axis',(0.,0.,-1.));
#1441=DIRECTION('center_axis',(1.,0.,0.));
#1442=DIRECTION('ref_axis',(0.,0.,-1.));
#1443=DIRECTION('center_axis',(1.,0.,0.));
#1444=DIRECTION('ref_axis',(0.,0.,-1.));
#1445=DIRECTION('center_axis',(0.,-1.,-1.22464679914735E-16));
#1446=DIRECTION('ref_axis',(0.,-1.22464679914735E-16,1.));
#1447=DIRECTION('center_axis',(-1.,0.,0.));
#1448=DIRECTION('ref_axis',(0.,0.,-1.));
#1449=DIRECTION('center_axis',(-1.,0.,0.));
#1450=DIRECTION('ref_axis',(0.,0.,1.));
#1451=DIRECTION('',(1.,0.,0.));
#1452=DIRECTION('center_axis',(-1.,0.,0.));
#1453=DIRECTION('ref_axis',(0.,0.,1.));
#1454=DIRECTION('center_axis',(1.,0.,0.));
#1455=DIRECTION('ref_axis',(0.,0.,-1.));
#1456=DIRECTION('',(1.,0.,0.));
#1457=DIRECTION('center_axis',(1.,0.,0.));
#1458=DIRECTION('ref_axis',(0.,0.,-1.));
#1459=DIRECTION('center_axis',(-1.,0.,0.));
#1460=DIRECTION('ref_axis',(0.,0.,1.));
#1461=DIRECTION('center_axis',(1.,0.,0.));
#1462=DIRECTION('ref_axis',(0.,0.,-1.));
#1463=DIRECTION('',(1.,0.,0.));
#1464=DIRECTION('center_axis',(1.,0.,0.));
#1465=DIRECTION('ref_axis',(0.,0.,-1.));
#1466=DIRECTION('center_axis',(-1.,0.,0.));
#1467=DIRECTION('ref_axis',(0.,0.,1.));
#1468=DIRECTION('',(1.,0.,0.));
#1469=DIRECTION('center_axis',(1.,0.,0.));
#1470=DIRECTION('ref_axis',(0.,0.,-1.));
#1471=DIRECTION('center_axis',(1.,0.,0.));
#1472=DIRECTION('ref_axis',(0.,0.,-1.));
#1473=DIRECTION('center_axis',(1.,0.,0.));
#1474=DIRECTION('ref_axis',(0.,0.,-1.));
#1475=DIRECTION('center_axis',(1.,0.,0.));
#1476=DIRECTION('ref_axis',(0.,0.,-1.));
#1477=DIRECTION('center_axis',(1.,0.,0.));
#1478=DIRECTION('ref_axis',(0.,0.,-1.));
#1479=DIRECTION('center_axis',(0.,-0.276203301025202,0.961099233431586));
#1480=DIRECTION('ref_axis',(0.,-0.961099233431586,-0.276203301025202));
#1481=DIRECTION('',(0.,-0.961099233431586,-0.276203301025202));
#1482=DIRECTION('',(1.,0.,0.));
#1483=DIRECTION('',(0.,-0.961099233431586,-0.276203301025202));
#1484=DIRECTION('',(1.,0.,0.));
#1485=DIRECTION('center_axis',(0.,1.,1.08741486926107E-13));
#1486=DIRECTION('ref_axis',(0.,-1.08741486926107E-13,1.));
#1487=DIRECTION('',(0.,-1.08741486926107E-13,1.));
#1488=DIRECTION('',(1.,0.,0.));
#1489=DIRECTION('',(0.,-1.08741486926107E-13,1.));
#1490=DIRECTION('center_axis',(0.,0.275526576547476,-0.961293454474766));
#1491=DIRECTION('ref_axis',(0.,0.961293454474766,0.275526576547476));
#1492=DIRECTION('',(0.,0.961293454474765,0.275526576547476));
#1493=DIRECTION('',(1.,0.,0.));
#1494=DIRECTION('',(0.,0.961293454474765,0.275526576547476));
#1495=DIRECTION('center_axis',(0.,0.372507738364332,0.92802908621373));
#1496=DIRECTION('ref_axis',(0.,-0.92802908621373,0.372507738364332));
#1497=DIRECTION('',(0.,-0.92802908621373,0.372507738364332));
#1498=DIRECTION('',(1.,0.,0.));
#1499=DIRECTION('',(0.,-0.92802908621373,0.372507738364332));
#1500=DIRECTION('center_axis',(0.,1.,0.));
#1501=DIRECTION('ref_axis',(0.,0.,1.));
#1502=DIRECTION('',(0.,0.,1.));
#1503=DIRECTION('',(1.,0.,0.));
#1504=DIRECTION('',(0.,0.,1.));
#1505=DIRECTION('center_axis',(0.,-0.38291403173764,-0.923783981403892));
#1506=DIRECTION('ref_axis',(0.,0.923783981403892,-0.38291403173764));
#1507=DIRECTION('',(0.,0.923783981403892,-0.38291403173764));
#1508=DIRECTION('',(1.,0.,0.));
#1509=DIRECTION('',(0.,0.923783981403892,-0.38291403173764));
#1510=DIRECTION('center_axis',(0.,0.714569558638338,-0.699564397226882));
#1511=DIRECTION('ref_axis',(0.,0.699564397226882,0.714569558638338));
#1512=DIRECTION('',(0.,0.699564397226882,0.714569558638338));
#1513=DIRECTION('',(1.,0.,0.));
#1514=DIRECTION('',(0.,0.699564397226882,0.714569558638338));
#1515=DIRECTION('center_axis',(0.,-1.,0.));
#1516=DIRECTION('ref_axis',(0.,0.,-1.));
#1517=DIRECTION('',(0.,0.,-1.));
#1518=DIRECTION('',(1.,0.,0.));
#1519=DIRECTION('',(0.,0.,-1.));
#1520=DIRECTION('center_axis',(0.,-0.705903765636452,0.708307753494395));
#1521=DIRECTION('ref_axis',(0.,-0.708307753494395,-0.705903765636452));
#1522=DIRECTION('',(0.,-0.708307753494395,-0.705903765636452));
#1523=DIRECTION('',(1.,0.,0.));
#1524=DIRECTION('',(0.,-0.708307753494395,-0.705903765636452));
#1525=DIRECTION('center_axis',(0.,0.275552063252063,-0.96128614909273));
#1526=DIRECTION('ref_axis',(0.,0.96128614909273,0.275552063252063));
#1527=DIRECTION('',(0.,0.96128614909273,0.275552063252063));
#1528=DIRECTION('',(1.,0.,0.));
#1529=DIRECTION('',(0.,0.96128614909273,0.275552063252063));
#1530=DIRECTION('center_axis',(0.,-1.,3.14771982176315E-16));
#1531=DIRECTION('ref_axis',(0.,-3.14771982176315E-16,-1.));
#1532=DIRECTION('',(0.,-3.14771982176315E-16,-1.));
#1533=DIRECTION('',(0.,-3.14771982176315E-16,-1.));
#1534=DIRECTION('center_axis',(1.,0.,0.));
#1535=DIRECTION('ref_axis',(0.,0.,-1.));
#1536=DIRECTION('center_axis',(1.,0.,0.));
#1537=DIRECTION('ref_axis',(0.,0.,-1.));
#1538=DIRECTION('center_axis',(0.,-1.,2.04349710881255E-16));
#1539=DIRECTION('ref_axis',(0.,-2.04349710881255E-16,-1.));
#1540=DIRECTION('',(0.,-2.04349710881255E-16,-1.));
#1541=DIRECTION('',(1.,0.,0.));
#1542=DIRECTION('',(0.,-2.04349710881255E-16,-1.));
#1543=DIRECTION('',(1.,0.,0.));
#1544=DIRECTION('center_axis',(0.,-0.444321030832906,0.895867636182703));
#1545=DIRECTION('ref_axis',(0.,-0.895867636182703,-0.444321030832906));
#1546=DIRECTION('',(0.,-0.895867636182703,-0.444321030832906));
#1547=DIRECTION('',(1.,0.,0.));
#1548=DIRECTION('',(0.,-0.895867636182703,-0.444321030832906));
#1549=DIRECTION('center_axis',(0.,0.0537525920690828,-0.998554284376095));
#1550=DIRECTION('ref_axis',(0.,0.998554284376095,0.0537525920690828));
#1551=DIRECTION('',(0.,0.998554284376095,0.0537525920690828));
#1552=DIRECTION('',(1.,0.,0.));
#1553=DIRECTION('',(0.,0.998554284376095,0.0537525920690828));
#1554=DIRECTION('center_axis',(0.,-1.,2.10457476101863E-16));
#1555=DIRECTION('ref_axis',(0.,-2.10457476101863E-16,-1.));
#1556=DIRECTION('',(0.,-2.10457476101863E-16,-1.));
#1557=DIRECTION('',(1.,0.,0.));
#1558=DIRECTION('',(0.,-2.10457476101863E-16,-1.));
#1559=DIRECTION('center_axis',(0.,-0.276251757516615,0.961085306551391));
#1560=DIRECTION('ref_axis',(0.,-0.961085306551391,-0.276251757516615));
#1561=DIRECTION('',(0.,-0.961085306551391,-0.276251757516615));
#1562=DIRECTION('',(1.,0.,0.));
#1563=DIRECTION('',(0.,-0.961085306551391,-0.276251757516615));
#1564=DIRECTION('center_axis',(0.,-1.,0.));
#1565=DIRECTION('ref_axis',(0.,0.,-1.));
#1566=DIRECTION('',(0.,0.,-1.));
#1567=DIRECTION('',(1.,0.,0.));
#1568=DIRECTION('',(0.,0.,-1.));
#1569=DIRECTION('center_axis',(0.,0.274021776595409,-0.961723487262059));
#1570=DIRECTION('ref_axis',(0.,0.961723487262059,0.274021776595409));
#1571=DIRECTION('',(0.,0.961723487262059,0.274021776595409));
#1572=DIRECTION('',(1.,0.,0.));
#1573=DIRECTION('',(0.,0.961723487262059,0.274021776595409));
#1574=DIRECTION('center_axis',(0.,1.,0.));
#1575=DIRECTION('ref_axis',(0.,0.,1.));
#1576=DIRECTION('',(0.,0.,1.));
#1577=DIRECTION('',(1.,0.,0.));
#1578=DIRECTION('',(0.,0.,1.));
#1579=DIRECTION('center_axis',(0.,0.274645930491689,-0.961545429433448));
#1580=DIRECTION('ref_axis',(0.,0.961545429433448,0.274645930491689));
#1581=DIRECTION('',(0.,0.961545429433448,0.274645930491689));
#1582=DIRECTION('',(1.,0.,0.));
#1583=DIRECTION('',(0.,0.961545429433448,0.274645930491689));
#1584=DIRECTION('center_axis',(0.,-1.,0.));
#1585=DIRECTION('ref_axis',(0.,0.,-1.));
#1586=DIRECTION('',(0.,0.,-1.));
#1587=DIRECTION('',(1.,0.,0.));
#1588=DIRECTION('',(0.,0.,-1.));
#1589=DIRECTION('center_axis',(0.,0.279394794087829,-0.96017631143276));
#1590=DIRECTION('ref_axis',(0.,0.96017631143276,0.279394794087829));
#1591=DIRECTION('',(0.,0.96017631143276,0.279394794087829));
#1592=DIRECTION('',(1.,0.,0.));
#1593=DIRECTION('',(0.,0.96017631143276,0.279394794087829));
#1594=DIRECTION('center_axis',(0.,1.,0.));
#1595=DIRECTION('ref_axis',(0.,0.,1.));
#1596=DIRECTION('',(0.,0.,1.));
#1597=DIRECTION('',(1.,0.,0.));
#1598=DIRECTION('',(0.,0.,1.));
#1599=DIRECTION('center_axis',(0.,0.273214882174589,-0.96195302804156));
#1600=DIRECTION('ref_axis',(0.,0.96195302804156,0.273214882174589));
#1601=DIRECTION('',(0.,0.96195302804156,0.273214882174589));
#1602=DIRECTION('',(1.,0.,0.));
#1603=DIRECTION('',(0.,0.96195302804156,0.273214882174589));
#1604=DIRECTION('center_axis',(0.,-1.,1.21318975411966E-16));
#1605=DIRECTION('ref_axis',(0.,-1.21318975411966E-16,-1.));
#1606=DIRECTION('',(0.,-1.21318975411966E-16,-1.));
#1607=DIRECTION('',(1.,0.,0.));
#1608=DIRECTION('',(0.,-1.21318975411966E-16,-1.));
#1609=DIRECTION('center_axis',(0.,-0.276537975024995,0.961002990822128));
#1610=DIRECTION('ref_axis',(0.,-0.961002990822128,-0.276537975024995));
#1611=DIRECTION('',(0.,-0.961002990822128,-0.276537975024995));
#1612=DIRECTION('',(1.,0.,0.));
#1613=DIRECTION('',(0.,-0.961002990822128,-0.276537975024995));
#1614=DIRECTION('center_axis',(0.,1.,0.));
#1615=DIRECTION('ref_axis',(0.,0.,1.));
#1616=DIRECTION('',(0.,0.,1.));
#1617=DIRECTION('',(1.,0.,0.));
#1618=DIRECTION('',(0.,3.98644980662738E-16,1.));
#1619=DIRECTION('center_axis',(0.,0.275978236559052,-0.961163884540902));
#1620=DIRECTION('ref_axis',(0.,0.961163884540902,0.275978236559052));
#1621=DIRECTION('',(0.,0.961163884540902,0.275978236559052));
#1622=DIRECTION('',(1.,0.,0.));
#1623=DIRECTION('',(0.,0.961163884540902,0.275978236559052));
#1624=DIRECTION('center_axis',(0.,-0.055965019780697,0.998432730113024));
#1625=DIRECTION('ref_axis',(0.,-0.998432730113024,-0.055965019780697));
#1626=DIRECTION('',(0.,-0.998432730113024,-0.055965019780697));
#1627=DIRECTION('',(1.,0.,0.));
#1628=DIRECTION('',(0.,-0.998432730113024,-0.055965019780697));
#1629=DIRECTION('center_axis',(0.,1.,-6.72388596756662E-16));
#1630=DIRECTION('ref_axis',(0.,6.72388596756662E-16,1.));
#1631=DIRECTION('',(0.,6.72388596756662E-16,1.));
#1632=DIRECTION('',(1.,0.,0.));
#1633=DIRECTION('',(0.,6.72388596756662E-16,1.));
#1634=DIRECTION('center_axis',(0.,0.46684593049552,-0.884338666563762));
#1635=DIRECTION('ref_axis',(0.,0.884338666563762,0.46684593049552));
#1636=DIRECTION('',(0.,0.884338666563762,0.46684593049552));
#1637=DIRECTION('',(1.,0.,0.));
#1638=DIRECTION('',(0.,0.884338666563762,0.46684593049552));
#1639=DIRECTION('center_axis',(0.,-0.276011881896856,0.961154223343869));
#1640=DIRECTION('ref_axis',(0.,-0.961154223343869,-0.276011881896856));
#1641=DIRECTION('',(0.,-0.961154223343869,-0.276011881896856));
#1642=DIRECTION('',(1.,0.,0.));
#1643=DIRECTION('',(0.,-0.961154223343869,-0.276011881896856));
#1644=DIRECTION('center_axis',(0.,1.,0.));
#1645=DIRECTION('ref_axis',(0.,0.,1.));
#1646=DIRECTION('',(0.,0.,1.));
#1647=DIRECTION('',(1.,0.,0.));
#1648=DIRECTION('',(0.,0.,1.));
#1649=DIRECTION('center_axis',(0.,0.276313970253912,-0.961067422110707));
#1650=DIRECTION('ref_axis',(0.,0.961067422110707,0.276313970253912));
#1651=DIRECTION('',(0.,0.961067422110708,0.276313970253911));
#1652=DIRECTION('',(0.,0.961067422110708,0.276313970253911));
#1653=DIRECTION('center_axis',(1.,0.,0.));
#1654=DIRECTION('ref_axis',(0.,0.,-1.));
#1655=DIRECTION('center_axis',(1.,0.,0.));
#1656=DIRECTION('ref_axis',(0.,0.,-1.));
#1657=DIRECTION('center_axis',(0.,0.99999604265901,0.00281330167602261));
#1658=DIRECTION('ref_axis',(0.,-0.00281330167602261,0.99999604265901));
#1659=DIRECTION('',(0.,-0.00281330167602261,0.99999604265901));
#1660=DIRECTION('',(1.,0.,0.));
#1661=DIRECTION('',(0.,-0.00281330167602261,0.99999604265901));
#1662=DIRECTION('',(1.,0.,0.));
#1663=DIRECTION('center_axis',(0.,0.999989185465002,0.00465069382367824));
#1664=DIRECTION('ref_axis',(0.,-0.00465069382367824,0.999989185465002));
#1665=DIRECTION('',(0.,-0.00465069382367824,0.999989185465002));
#1666=DIRECTION('',(1.,0.,0.));
#1667=DIRECTION('',(0.,-0.00465069382367824,0.999989185465002));
#1668=DIRECTION('center_axis',(0.,-0.276317334356934,0.961066454899909));
#1669=DIRECTION('ref_axis',(0.,-0.961066454899909,-0.276317334356934));
#1670=DIRECTION('',(0.,-0.961066454899909,-0.276317334356934));
#1671=DIRECTION('',(1.,0.,0.));
#1672=DIRECTION('',(0.,-0.961066454899909,-0.276317334356934));
#1673=DIRECTION('center_axis',(0.,1.,-3.14630867994355E-16));
#1674=DIRECTION('ref_axis',(0.,3.14630867994355E-16,1.));
#1675=DIRECTION('',(0.,3.14630867994355E-16,1.));
#1676=DIRECTION('',(1.,0.,0.));
#1677=DIRECTION('',(0.,3.14630867994355E-16,1.));
#1678=DIRECTION('center_axis',(0.,0.276243742891714,-0.961087610217287));
#1679=DIRECTION('ref_axis',(0.,0.961087610217287,0.276243742891714));
#1680=DIRECTION('',(0.,0.961087610217287,0.276243742891714));
#1681=DIRECTION('',(1.,0.,0.));
#1682=DIRECTION('',(0.,0.961087610217287,0.276243742891714));
#1683=DIRECTION('center_axis',(0.,0.999999996848735,7.93884710976468E-5));
#1684=DIRECTION('ref_axis',(0.,-7.93884710976468E-5,0.999999996848735));
#1685=DIRECTION('',(0.,-7.93884710976468E-5,0.999999996848735));
#1686=DIRECTION('',(1.,0.,0.));
#1687=DIRECTION('',(0.,-7.93884710976468E-5,0.999999996848735));
#1688=DIRECTION('center_axis',(0.,0.276203301029024,-0.961099233430487));
#1689=DIRECTION('ref_axis',(0.,0.961099233430487,0.276203301029024));
#1690=DIRECTION('',(0.,0.961099233430487,0.276203301029024));
#1691=DIRECTION('',(1.,0.,0.));
#1692=DIRECTION('',(0.,0.961099233430487,0.276203301029024));
#1693=DIRECTION('center_axis',(0.,-1.,1.20732127639459E-16));
#1694=DIRECTION('ref_axis',(0.,-1.20732127639459E-16,-1.));
#1695=DIRECTION('',(0.,-1.20732127639459E-16,-1.));
#1696=DIRECTION('',(1.,0.,0.));
#1697=DIRECTION('',(0.,-2.07718542548695E-16,-1.));
#1698=DIRECTION('center_axis',(0.,-0.276427328048977,0.961034823670664));
#1699=DIRECTION('ref_axis',(0.,-0.961034823670664,-0.276427328048977));
#1700=DIRECTION('',(0.,-0.961034823670663,-0.276427328048977));
#1701=DIRECTION('',(1.,0.,0.));
#1702=DIRECTION('',(0.,-0.961034823670663,-0.276427328048977));
#1703=DIRECTION('center_axis',(0.,1.,-2.37254567763358E-16));
#1704=DIRECTION('ref_axis',(0.,2.37254567763358E-16,1.));
#1705=DIRECTION('',(0.,2.37254567763358E-16,1.));
#1706=DIRECTION('',(1.,0.,0.));
#1707=DIRECTION('',(0.,2.37254567763358E-16,1.));
#1708=DIRECTION('center_axis',(0.,0.272978693069407,-0.962020079379905));
#1709=DIRECTION('ref_axis',(0.,0.962020079379905,0.272978693069407));
#1710=DIRECTION('',(0.,0.962020079379905,0.272978693069407));
#1711=DIRECTION('',(1.,0.,0.));
#1712=DIRECTION('',(0.,0.962020079379905,0.272978693069407));
#1713=DIRECTION('center_axis',(0.,-1.,1.90399495516736E-16));
#1714=DIRECTION('ref_axis',(0.,-1.90399495516736E-16,-1.));
#1715=DIRECTION('',(0.,-1.90399495516736E-16,-1.));
#1716=DIRECTION('',(1.,0.,0.));
#1717=DIRECTION('',(0.,-1.90399495516736E-16,-1.));
#1718=DIRECTION('center_axis',(0.,0.27451599985727,-0.961582531986914));
#1719=DIRECTION('ref_axis',(0.,0.961582531986913,0.27451599985727));
#1720=DIRECTION('',(0.,0.961582531986913,0.27451599985727));
#1721=DIRECTION('',(1.,0.,0.));
#1722=DIRECTION('',(0.,0.961582531986913,0.27451599985727));
#1723=DIRECTION('center_axis',(0.,1.,-2.48043145842245E-16));
#1724=DIRECTION('ref_axis',(0.,2.48043145842245E-16,1.));
#1725=DIRECTION('',(0.,2.48043145842245E-16,1.));
#1726=DIRECTION('',(1.,0.,0.));
#1727=DIRECTION('',(0.,2.48043145842245E-16,1.));
#1728=DIRECTION('center_axis',(0.,0.274691879766724,-0.96153230376843));
#1729=DIRECTION('ref_axis',(0.,0.96153230376843,0.274691879766724));
#1730=DIRECTION('',(0.,0.96153230376843,0.274691879766724));
#1731=DIRECTION('',(1.,0.,0.));
#1732=DIRECTION('',(0.,0.96153230376843,0.274691879766724));
#1733=DIRECTION('center_axis',(0.,-1.,2.08848839426079E-16));
#1734=DIRECTION('ref_axis',(0.,-2.08848839426079E-16,-1.));
#1735=DIRECTION('',(0.,-2.08848839426079E-16,-1.));
#1736=DIRECTION('',(1.,0.,0.));
#1737=DIRECTION('',(0.,-2.08848839426079E-16,-1.));
#1738=DIRECTION('center_axis',(0.,0.27939479408149,-0.960176311434604));
#1739=DIRECTION('ref_axis',(0.,0.960176311434604,0.27939479408149));
#1740=DIRECTION('',(0.,0.960176311434604,0.27939479408149));
#1741=DIRECTION('',(0.,0.960176311434604,0.27939479408149));
#1742=DIRECTION('center_axis',(-1.,0.,0.));
#1743=DIRECTION('ref_axis',(0.,0.,1.));
#1744=DIRECTION('center_axis',(-1.,0.,0.));
#1745=DIRECTION('ref_axis',(0.,0.,1.));
#1746=CARTESIAN_POINT('',(0.,0.,0.));
#1747=CARTESIAN_POINT('Origin',(19.195,0.,0.));
#1748=CARTESIAN_POINT('',(19.8825,-8.26636589424463E-16,-6.75));
#1749=CARTESIAN_POINT('',(19.8825,-8.26636589424463E-16,6.75));
#1750=CARTESIAN_POINT('Origin',(19.8825,0.,0.));
#1751=CARTESIAN_POINT('Origin',(19.8825,0.,0.));
#1752=CARTESIAN_POINT('',(18.5075,-8.26636589424463E-16,6.75));
#1753=CARTESIAN_POINT('Origin',(19.195,-8.26636589424463E-16,6.75));
#1754=CARTESIAN_POINT('',(18.5075,-8.26636589424463E-16,-6.75));
#1755=CARTESIAN_POINT('Origin',(18.5075,0.,0.));
#1756=CARTESIAN_POINT('Origin',(18.5075,0.,0.));
#1757=CARTESIAN_POINT('Origin',(0.199999999999999,0.,0.));
#1758=CARTESIAN_POINT('',(0.199999999999999,8.26636589424463E-16,-6.75));
#1759=CARTESIAN_POINT('',(0.199999999999999,-8.26636589424463E-16,6.75));
#1760=CARTESIAN_POINT('Origin',(0.199999999999999,0.,0.));
#1761=CARTESIAN_POINT('Origin',(0.199999999999999,0.,0.));
#1762=CARTESIAN_POINT('',(0.,-8.02143653441517E-16,6.55));
#1763=CARTESIAN_POINT('Origin',(0.199999999999999,-8.02143653441516E-16,
6.55));
#1764=CARTESIAN_POINT('Origin',(0.,0.,0.));
#1765=CARTESIAN_POINT('Origin',(22.,0.,0.));
#1766=CARTESIAN_POINT('',(22.,-8.26636589424463E-16,-6.75));
#1767=CARTESIAN_POINT('Origin',(37.,-2.5,0.));
#1768=CARTESIAN_POINT('',(22.,-2.5,-0.325));
#1769=CARTESIAN_POINT('Origin',(22.,-2.5,0.));
#1770=CARTESIAN_POINT('',(37.,-2.5,-0.325));
#1771=CARTESIAN_POINT('',(37.,-2.5,-0.325));
#1772=CARTESIAN_POINT('Origin',(37.,-2.5,0.));
#1773=CARTESIAN_POINT('Origin',(41.,2.5,0.));
#1774=CARTESIAN_POINT('',(22.,2.5,-0.325));
#1775=CARTESIAN_POINT('Origin',(22.,2.5,0.));
#1776=CARTESIAN_POINT('',(41.,2.5,-0.325));
#1777=CARTESIAN_POINT('',(41.,2.5,-0.325));
#1778=CARTESIAN_POINT('Origin',(41.,2.5,0.));
#1779=CARTESIAN_POINT('Origin',(22.,0.,0.));
#1780=CARTESIAN_POINT('',(22.,-8.26636589424463E-16,-6.75));
#1781=CARTESIAN_POINT('',(22.,-8.26636589424463E-16,-6.75));
#1782=CARTESIAN_POINT('Origin',(22.,0.,0.));
#1783=CARTESIAN_POINT('Origin',(22.,0.,0.));
#1784=CARTESIAN_POINT('Origin',(41.,2.5,0.));
#1785=CARTESIAN_POINT('Origin',(37.,-2.5,0.));
#1786=CARTESIAN_POINT('Origin',(0.,0.,0.));
#1787=CARTESIAN_POINT('Origin',(-0.005,-0.7371,-3.7935));
#1788=CARTESIAN_POINT('',(0.,0.747520167055068,-3.36684583501321));
#1789=CARTESIAN_POINT('',(0.,-0.7371,-3.7935));
#1790=CARTESIAN_POINT('',(0.,-0.7371,-3.7935));
#1791=CARTESIAN_POINT('',(-0.005,-0.7371,-3.7935));
#1792=CARTESIAN_POINT('',(-0.005,-0.7371,-3.7935));
#1793=CARTESIAN_POINT('',(-0.005,0.747520167055068,-3.36684583501321));
#1794=CARTESIAN_POINT('',(-0.005,-0.7371,-3.7935));
#1795=CARTESIAN_POINT('',(-0.005,0.747520167055068,-3.36684583501321));
#1796=CARTESIAN_POINT('Origin',(-0.005,-0.737100000000046,-3.37134192199396));
#1797=CARTESIAN_POINT('',(0.,-0.737100000000046,-3.37134192199396));
#1798=CARTESIAN_POINT('',(0.,-0.737100000000046,-3.37134192199396));
#1799=CARTESIAN_POINT('',(-0.005,-0.737100000000046,-3.37134192199396));
#1800=CARTESIAN_POINT('',(-0.005,-0.737100000000046,-3.37134192199396));
#1801=CARTESIAN_POINT('',(-0.005,-0.737100000000046,-3.37134192199396));
#1802=CARTESIAN_POINT('Origin',(-0.005,0.0690084574764356,-3.14029457367324));
#1803=CARTESIAN_POINT('',(0.,0.0690084574764356,-3.14029457367324));
#1804=CARTESIAN_POINT('',(0.,0.0690084574764356,-3.14029457367324));
#1805=CARTESIAN_POINT('',(-0.005,0.0690084574764356,-3.14029457367324));
#1806=CARTESIAN_POINT('',(-0.005,0.0690084574764356,-3.14029457367324));
#1807=CARTESIAN_POINT('',(-0.005,0.0690084574764356,-3.14029457367324));
#1808=CARTESIAN_POINT('Origin',(-0.005,-0.737100000000046,-2.81672536357871));
#1809=CARTESIAN_POINT('',(0.,-0.737100000000046,-2.81672536357871));
#1810=CARTESIAN_POINT('',(0.,-0.737100000000046,-2.81672536357871));
#1811=CARTESIAN_POINT('',(-0.005,-0.737100000000046,-2.81672536357871));
#1812=CARTESIAN_POINT('',(-0.005,-0.737100000000046,-2.81672536357871));
#1813=CARTESIAN_POINT('',(-0.005,-0.737100000000046,-2.81672536357871));
#1814=CARTESIAN_POINT('Origin',(-0.005,-0.737100000000046,-2.36500416607664));
#1815=CARTESIAN_POINT('',(0.,-0.737100000000046,-2.36500416607664));
#1816=CARTESIAN_POINT('',(0.,-0.737100000000046,-2.36500416607664));
#1817=CARTESIAN_POINT('',(-0.005,-0.737100000000046,-2.36500416607664));
#1818=CARTESIAN_POINT('',(-0.005,-0.737100000000046,-2.36500416607664));
#1819=CARTESIAN_POINT('',(-0.005,-0.737100000000046,-2.36500416607664));
#1820=CARTESIAN_POINT('Origin',(-0.005,0.0690084574764436,-2.69914098343198));
#1821=CARTESIAN_POINT('',(0.,0.0690084574764436,-2.69914098343198));
#1822=CARTESIAN_POINT('',(0.,0.0690084574764436,-2.69914098343198));
#1823=CARTESIAN_POINT('',(-0.005,0.0690084574764436,-2.69914098343198));
#1824=CARTESIAN_POINT('',(-0.005,0.0690084574764436,-2.69914098343198));
#1825=CARTESIAN_POINT('',(-0.005,0.0690084574764436,-2.69914098343198));
#1826=CARTESIAN_POINT('Origin',(-0.005,0.747520167055068,-2.00607567769816));
#1827=CARTESIAN_POINT('',(0.,0.747520167055068,-2.00607567769816));
#1828=CARTESIAN_POINT('',(0.,0.747520167055068,-2.00607567769816));
#1829=CARTESIAN_POINT('',(-0.005,0.747520167055068,-2.00607567769816));
#1830=CARTESIAN_POINT('',(-0.005,0.747520167055068,-2.00607567769816));
#1831=CARTESIAN_POINT('',(-0.005,0.747520167055068,-2.00607567769816));
#1832=CARTESIAN_POINT('Origin',(-0.005,0.747520167055068,-2.4946503334126));
#1833=CARTESIAN_POINT('',(0.,0.747520167055068,-2.4946503334126));
#1834=CARTESIAN_POINT('',(0.,0.747520167055068,-2.4946503334126));
#1835=CARTESIAN_POINT('',(-0.005,0.747520167055068,-2.4946503334126));
#1836=CARTESIAN_POINT('',(-0.005,0.747520167055068,-2.4946503334126));
#1837=CARTESIAN_POINT('',(-0.005,0.747520167055068,-2.4946503334126));
#1838=CARTESIAN_POINT('Origin',(-0.005,0.114420729606184,-3.12560103910896));
#1839=CARTESIAN_POINT('',(0.,0.114420729606184,-3.12560103910896));
#1840=CARTESIAN_POINT('',(0.,0.114420729606184,-3.12560103910896));
#1841=CARTESIAN_POINT('',(-0.005,0.114420729606184,-3.12560103910896));
#1842=CARTESIAN_POINT('',(-0.005,0.114420729606184,-3.12560103910896));
#1843=CARTESIAN_POINT('',(-0.005,0.114420729606184,-3.12560103910896));
#1844=CARTESIAN_POINT('Origin',(-0.005,0.747520167055068,-2.94412348802033));
#1845=CARTESIAN_POINT('',(0.,0.747520167055068,-2.94412348802033));
#1846=CARTESIAN_POINT('',(0.,0.747520167055068,-2.94412348802033));
#1847=CARTESIAN_POINT('',(-0.005,0.747520167055068,-2.94412348802033));
#1848=CARTESIAN_POINT('',(-0.005,0.747520167055068,-2.94412348802033));
#1849=CARTESIAN_POINT('',(-0.005,0.747520167055068,-2.94412348802033));
#1850=CARTESIAN_POINT('Origin',(-0.005,0.747520167055068,-3.36684583501321));
#1851=CARTESIAN_POINT('',(0.,0.747520167055068,-3.36684583501321));
#1852=CARTESIAN_POINT('',(-0.005,0.747520167055068,-3.36684583501321));
#1853=CARTESIAN_POINT('Origin',(-0.005,-0.132010750270799,-0.0179196693279064));
#1854=CARTESIAN_POINT('Origin',(0.,-0.132010750270799,-0.0179196693279064));
#1855=CARTESIAN_POINT('Origin',(-0.005,0.747520167055069,1.22505042854382));
#1856=CARTESIAN_POINT('',(0.,0.747520167055069,1.22505042854382));
#1857=CARTESIAN_POINT('',(0.,0.747520167055069,0.573906120585919));
#1858=CARTESIAN_POINT('',(0.,0.747520167055069,1.22505042854382));
#1859=CARTESIAN_POINT('',(-0.005,0.747520167055069,0.573906120585919));
#1860=CARTESIAN_POINT('',(-0.005,0.747520167055069,0.573906120585919));
#1861=CARTESIAN_POINT('',(-0.005,0.747520167055069,1.22505042854382));
#1862=CARTESIAN_POINT('',(-0.005,0.747520167055069,1.22505042854382));
#1863=CARTESIAN_POINT('',(-0.005,0.747520167055069,1.22505042854382));
#1864=CARTESIAN_POINT('Origin',(-0.005,0.747520167055069,0.573906120585919));
#1865=CARTESIAN_POINT('',(0.,-0.31311155531802,0.0478674948052884));
#1866=CARTESIAN_POINT('',(0.,0.747520167055069,0.573906120585919));
#1867=CARTESIAN_POINT('',(-0.005,-0.31311155531802,0.0478674948052884));
#1868=CARTESIAN_POINT('',(-0.005,-0.31311155531802,0.0478674948052884));
#1869=CARTESIAN_POINT('',(-0.005,0.747520167055069,0.573906120585919));
#1870=CARTESIAN_POINT('Origin',(-0.005,-0.31311155531802,0.0478674948052884));
#1871=CARTESIAN_POINT('',(0.,0.747520167055069,0.104961741157524));
#1872=CARTESIAN_POINT('',(0.,-0.31311155531802,0.0478674948052884));
#1873=CARTESIAN_POINT('',(-0.005,0.747520167055069,0.104961741157524));
#1874=CARTESIAN_POINT('',(-0.005,0.747520167055069,0.104961741157524));
#1875=CARTESIAN_POINT('',(-0.005,-0.31311155531802,0.0478674948052884));
#1876=CARTESIAN_POINT('Origin',(-0.005,0.747520167055069,0.104961741157524));
#1877=CARTESIAN_POINT('',(0.,0.747520167055068,-0.527285464015501));
#1878=CARTESIAN_POINT('',(0.,0.747520167055069,0.104961741157524));
#1879=CARTESIAN_POINT('',(-0.005,0.747520167055068,-0.527285464015501));
#1880=CARTESIAN_POINT('',(-0.005,0.747520167055068,-0.527285464015501));
#1881=CARTESIAN_POINT('',(-0.005,0.747520167055069,0.104961741157524));
#1882=CARTESIAN_POINT('Origin',(-0.005,0.747520167055068,-0.527285464015501));
#1883=CARTESIAN_POINT('',(0.,-0.454650112644069,-0.872834033260399));
#1884=CARTESIAN_POINT('',(0.,0.747520167055068,-0.527285464015501));
#1885=CARTESIAN_POINT('',(-0.005,-0.454650112644069,-0.872834033260399));
#1886=CARTESIAN_POINT('',(-0.005,-0.454650112644069,-0.872834033260399));
#1887=CARTESIAN_POINT('',(-0.005,0.747520167055068,-0.527285464015501));
#1888=CARTESIAN_POINT('Origin',(-0.005,-0.454650112644069,-0.872834033260399));
#1889=CARTESIAN_POINT('',(0.,-0.454650112644069,-1.69582538315637));
#1890=CARTESIAN_POINT('',(0.,-0.454650112644069,-0.872834033260399));
#1891=CARTESIAN_POINT('',(-0.005,-0.454650112644069,-1.69582538315637));
#1892=CARTESIAN_POINT('',(-0.005,-0.454650112644069,-1.69582538315637));
#1893=CARTESIAN_POINT('',(-0.005,-0.454650112644069,-0.872834033260399));
#1894=CARTESIAN_POINT('Origin',(-0.005,-0.454650112644069,-1.69582538315637));
#1895=CARTESIAN_POINT('',(0.,-0.0856641162840951,-1.59069100763099));
#1896=CARTESIAN_POINT('',(0.,-0.454650112644069,-1.69582538315637));
#1897=CARTESIAN_POINT('',(-0.005,-0.0856641162840951,-1.59069100763099));
#1898=CARTESIAN_POINT('',(-0.005,-0.0856641162840951,-1.59069100763099));
#1899=CARTESIAN_POINT('',(-0.005,-0.454650112644069,-1.69582538315637));
#1900=CARTESIAN_POINT('Origin',(-0.005,-0.0856641162840951,-1.59069100763099));
#1901=CARTESIAN_POINT('',(0.,-0.0856641162840951,-0.953564955192238));
#1902=CARTESIAN_POINT('',(0.,-0.0856641162840951,-1.59069100763099));
#1903=CARTESIAN_POINT('',(-0.005,-0.0856641162840951,-0.953564955192238));
#1904=CARTESIAN_POINT('',(-0.005,-0.0856641162840951,-0.953564955192238));
#1905=CARTESIAN_POINT('',(-0.005,-0.0856641162840951,-1.59069100763099));
#1906=CARTESIAN_POINT('Origin',(-0.005,-0.0856641162840951,-0.953564955192238));
#1907=CARTESIAN_POINT('',(0.,0.188791224952567,-0.875172358997621));
#1908=CARTESIAN_POINT('',(0.,-0.0856641162840951,-0.953564955192238));
#1909=CARTESIAN_POINT('',(-0.005,0.188791224952567,-0.875172358997621));
#1910=CARTESIAN_POINT('',(-0.005,0.188791224952567,-0.875172358997621));
#1911=CARTESIAN_POINT('',(-0.005,-0.0856641162840951,-0.953564955192238));
#1912=CARTESIAN_POINT('Origin',(-0.005,0.188791224952567,-0.875172358997621));
#1913=CARTESIAN_POINT('',(0.,0.188791224952567,-1.51238869428348));
#1914=CARTESIAN_POINT('',(0.,0.188791224952567,-0.875172358997621));
#1915=CARTESIAN_POINT('',(-0.005,0.188791224952567,-1.51238869428348));
#1916=CARTESIAN_POINT('',(-0.005,0.188791224952567,-1.51238869428348));
#1917=CARTESIAN_POINT('',(-0.005,0.188791224952567,-0.875172358997621));
#1918=CARTESIAN_POINT('Origin',(-0.005,0.188791224952567,-1.51238869428348));
#1919=CARTESIAN_POINT('',(0.,0.464930341288547,-1.43203696030541));
#1920=CARTESIAN_POINT('',(0.,0.188791224952567,-1.51238869428348));
#1921=CARTESIAN_POINT('',(-0.005,0.464930341288547,-1.43203696030541));
#1922=CARTESIAN_POINT('',(-0.005,0.464930341288547,-1.43203696030541));
#1923=CARTESIAN_POINT('',(-0.005,0.188791224952567,-1.51238869428348));
#1924=CARTESIAN_POINT('Origin',(-0.005,0.464930341288547,-1.43203696030541));
#1925=CARTESIAN_POINT('',(0.,0.464930341288548,-0.755628841065524));
#1926=CARTESIAN_POINT('',(0.,0.464930341288547,-1.43203696030541));
#1927=CARTESIAN_POINT('',(-0.005,0.464930341288548,-0.755628841065524));
#1928=CARTESIAN_POINT('',(-0.005,0.464930341288548,-0.755628841065524));
#1929=CARTESIAN_POINT('',(-0.005,0.464930341288547,-1.43203696030541));
#1930=CARTESIAN_POINT('Origin',(-0.005,0.464930341288548,-0.755628841065524));
#1931=CARTESIAN_POINT('',(0.,0.747520167055068,-0.675367389934458));
#1932=CARTESIAN_POINT('',(0.,0.464930341288548,-0.755628841065524));
#1933=CARTESIAN_POINT('',(-0.005,0.747520167055068,-0.675367389934458));
#1934=CARTESIAN_POINT('',(-0.005,0.747520167055068,-0.675367389934458));
#1935=CARTESIAN_POINT('',(-0.005,0.464930341288548,-0.755628841065524));
#1936=CARTESIAN_POINT('Origin',(-0.005,0.747520167055068,-0.675367389934458));
#1937=CARTESIAN_POINT('',(0.,0.747520167055068,-1.77215501628337));
#1938=CARTESIAN_POINT('',(0.,0.747520167055068,-0.675367389934458));
#1939=CARTESIAN_POINT('',(-0.005,0.747520167055068,-1.77215501628337));
#1940=CARTESIAN_POINT('',(-0.005,0.747520167055068,-1.77215501628337));
#1941=CARTESIAN_POINT('',(-0.005,0.747520167055068,-0.675367389934458));
#1942=CARTESIAN_POINT('Origin',(-0.005,0.747520167055068,-1.77215501628337));
#1943=CARTESIAN_POINT('',(0.,-0.737100000000046,-2.19936893611464));
#1944=CARTESIAN_POINT('',(0.,0.747520167055068,-1.77215501628337));
#1945=CARTESIAN_POINT('',(-0.005,-0.737100000000046,-2.19936893611464));
#1946=CARTESIAN_POINT('',(-0.005,-0.737100000000046,-2.19936893611464));
#1947=CARTESIAN_POINT('',(-0.005,0.747520167055068,-1.77215501628337));
#1948=CARTESIAN_POINT('Origin',(-0.005,-0.737100000000046,-0.864234593251866));
#1949=CARTESIAN_POINT('',(0.,-0.737100000000046,-0.599976699601837));
#1950=CARTESIAN_POINT('',(0.,-0.737100000000046,-0.864234593251866));
#1951=CARTESIAN_POINT('',(-0.005,-0.737100000000046,-0.599976699601837));
#1952=CARTESIAN_POINT('',(-0.005,-0.737100000000046,-0.599976699601837));
#1953=CARTESIAN_POINT('',(-0.005,-0.737100000000046,-2.19936893611464));
#1954=CARTESIAN_POINT('Origin',(-0.005,-0.737100000000046,-0.599976699601837));
#1955=CARTESIAN_POINT('',(0.,0.584618311776324,-0.220472751546111));
#1956=CARTESIAN_POINT('',(0.,-0.737100000000046,-0.599976699601837));
#1957=CARTESIAN_POINT('',(-0.005,0.584618311776324,-0.220472751546111));
#1958=CARTESIAN_POINT('',(-0.005,0.584618311776324,-0.220472751546111));
#1959=CARTESIAN_POINT('',(-0.005,-0.737100000000046,-0.599976699601837));
#1960=CARTESIAN_POINT('Origin',(-0.005,0.584618311776324,-0.220472751546111));
#1961=CARTESIAN_POINT('',(0.,-0.737100000000046,-0.294558855929628));
#1962=CARTESIAN_POINT('',(0.,0.584618311776324,-0.220472751546111));
#1963=CARTESIAN_POINT('',(-0.005,-0.737100000000046,-0.294558855929628));
#1964=CARTESIAN_POINT('',(-0.005,-0.737100000000046,-0.294558855929628));
#1965=CARTESIAN_POINT('',(-0.005,0.584618311776324,-0.220472751546111));
#1966=CARTESIAN_POINT('Origin',(-0.005,-0.737100000000046,-0.294558855929628));
#1967=CARTESIAN_POINT('',(0.,-0.737100000000045,0.101227603611792));
#1968=CARTESIAN_POINT('',(0.,-0.737100000000046,-0.294558855929628));
#1969=CARTESIAN_POINT('',(-0.005,-0.737100000000045,0.101227603611792));
#1970=CARTESIAN_POINT('',(-0.005,-0.737100000000045,0.101227603611792));
#1971=CARTESIAN_POINT('',(-0.005,-0.737100000000046,-0.294558855929628));
#1972=CARTESIAN_POINT('Origin',(-0.005,-0.737100000000045,0.101227603611792));
#1973=CARTESIAN_POINT('',(0.,0.590983252498137,0.802328081551062));
#1974=CARTESIAN_POINT('',(0.,-0.737100000000045,0.101227603611792));
#1975=CARTESIAN_POINT('',(-0.005,0.590983252498137,0.802328081551062));
#1976=CARTESIAN_POINT('',(-0.005,0.590983252498137,0.802328081551062));
#1977=CARTESIAN_POINT('',(-0.005,-0.737100000000045,0.101227603611792));
#1978=CARTESIAN_POINT('Origin',(-0.005,0.590983252498137,0.802328081551062));
#1979=CARTESIAN_POINT('',(0.,-0.737100000000045,0.420946250274882));
#1980=CARTESIAN_POINT('',(0.,0.590983252498137,0.802328081551062));
#1981=CARTESIAN_POINT('',(-0.005,-0.737100000000045,0.420946250274882));
#1982=CARTESIAN_POINT('',(-0.005,-0.737100000000045,0.420946250274882));
#1983=CARTESIAN_POINT('',(-0.005,0.590983252498137,0.802328081551062));
#1984=CARTESIAN_POINT('Origin',(-0.005,-0.737100000000045,0.420946250274882));
#1985=CARTESIAN_POINT('',(0.,-0.737100000000045,0.798211183720506));
#1986=CARTESIAN_POINT('',(0.,-0.737100000000045,0.420946250274882));
#1987=CARTESIAN_POINT('',(-0.005,-0.737100000000045,0.798211183720506));
#1988=CARTESIAN_POINT('',(-0.005,-0.737100000000045,0.798211183720506));
#1989=CARTESIAN_POINT('',(-0.005,-0.737100000000045,0.420946250274882));
#1990=CARTESIAN_POINT('Origin',(-0.005,-0.737100000000045,0.798211183720506));
#1991=CARTESIAN_POINT('',(0.,-0.737100000000045,0.798211183720506));
#1992=CARTESIAN_POINT('',(-0.005,-0.737100000000045,0.798211183720506));
#1993=CARTESIAN_POINT('Origin',(-0.005,-0.132010750270799,-0.0179196693279064));
#1994=CARTESIAN_POINT('Origin',(0.,-0.132010750270799,-0.0179196693279064));
#1995=CARTESIAN_POINT('Origin',(-0.005,0.464880685721294,1.7438427532046));
#1996=CARTESIAN_POINT('',(0.,0.464880685721294,1.7438427532046));
#1997=CARTESIAN_POINT('',(0.,0.462966689360916,2.4241781762966));
#1998=CARTESIAN_POINT('',(0.,0.464880685721294,1.7438427532046));
#1999=CARTESIAN_POINT('',(-0.005,0.462966689360916,2.4241781762966));
#2000=CARTESIAN_POINT('',(-0.005,0.462966689360916,2.4241781762966));
#2001=CARTESIAN_POINT('',(-0.005,0.464880685721294,1.7438427532046));
#2002=CARTESIAN_POINT('',(-0.005,0.464880685721294,1.7438427532046));
#2003=CARTESIAN_POINT('',(-0.005,0.464880685721294,1.7438427532046));
#2004=CARTESIAN_POINT('Origin',(-0.005,0.462966689360916,2.4241781762966));
#2005=CARTESIAN_POINT('',(0.,0.460867613164233,2.87552018583991));
#2006=CARTESIAN_POINT('',(0.,0.462966689360916,2.4241781762966));
#2007=CARTESIAN_POINT('',(-0.005,0.460867613164233,2.87552018583991));
#2008=CARTESIAN_POINT('',(-0.005,0.460867613164233,2.87552018583991));
#2009=CARTESIAN_POINT('',(-0.005,0.462966689360916,2.4241781762966));
#2010=CARTESIAN_POINT('Origin',(-0.005,0.460867613164233,2.87552018583991));
#2011=CARTESIAN_POINT('',(0.,-0.737100000000045,2.53109112390791));
#2012=CARTESIAN_POINT('',(0.,0.460867613164233,2.87552018583991));
#2013=CARTESIAN_POINT('',(-0.005,-0.737100000000045,2.53109112390791));
#2014=CARTESIAN_POINT('',(-0.005,-0.737100000000045,2.53109112390791));
#2015=CARTESIAN_POINT('',(-0.005,0.460867613164233,2.87552018583991));
#2016=CARTESIAN_POINT('Origin',(-0.005,-0.737100000000045,2.53109112390791));
#2017=CARTESIAN_POINT('',(0.,-0.737100000000045,2.95400306487982));
#2018=CARTESIAN_POINT('',(0.,-0.737100000000045,2.53109112390791));
#2019=CARTESIAN_POINT('',(-0.005,-0.737100000000045,2.95400306487982));
#2020=CARTESIAN_POINT('',(-0.005,-0.737100000000045,2.95400306487982));
#2021=CARTESIAN_POINT('',(-0.005,-0.737100000000045,2.53109112390791));
#2022=CARTESIAN_POINT('Origin',(-0.005,-0.737100000000045,2.95400306487982));
#2023=CARTESIAN_POINT('',(0.,0.460867613160422,3.29833281567921));
#2024=CARTESIAN_POINT('',(0.,-0.737100000000045,2.95400306487982));
#2025=CARTESIAN_POINT('',(-0.005,0.460867613160422,3.29833281567921));
#2026=CARTESIAN_POINT('',(-0.005,0.460867613160422,3.29833281567921));
#2027=CARTESIAN_POINT('',(-0.005,-0.737100000000045,2.95400306487982));
#2028=CARTESIAN_POINT('Origin',(-0.005,0.460867613160422,3.29833281567921));
#2029=CARTESIAN_POINT('',(0.,0.46083534370764,3.70480811662208));
#2030=CARTESIAN_POINT('',(0.,0.460867613160422,3.29833281567921));
#2031=CARTESIAN_POINT('',(-0.005,0.46083534370764,3.70480811662208));
#2032=CARTESIAN_POINT('',(-0.005,0.46083534370764,3.70480811662208));
#2033=CARTESIAN_POINT('',(-0.005,0.460867613160422,3.29833281567921));
#2034=CARTESIAN_POINT('Origin',(-0.005,0.46083534370764,3.70480811662208));
#2035=CARTESIAN_POINT('',(0.,0.747520167055069,3.78719637769774));
#2036=CARTESIAN_POINT('',(0.,0.46083534370764,3.70480811662208));
#2037=CARTESIAN_POINT('',(-0.005,0.747520167055069,3.78719637769774));
#2038=CARTESIAN_POINT('',(-0.005,0.747520167055069,3.78719637769774));
#2039=CARTESIAN_POINT('',(-0.005,0.46083534370764,3.70480811662208));
#2040=CARTESIAN_POINT('Origin',(-0.005,0.747520167055069,2.50602860672728));
#2041=CARTESIAN_POINT('',(0.,0.747520167055069,1.4039097782533));
#2042=CARTESIAN_POINT('',(0.,0.747520167055069,2.50602860672728));
#2043=CARTESIAN_POINT('',(-0.005,0.747520167055069,1.4039097782533));
#2044=CARTESIAN_POINT('',(-0.005,0.747520167055069,1.4039097782533));
#2045=CARTESIAN_POINT('',(-0.005,0.747520167055069,3.78719637769774));
#2046=CARTESIAN_POINT('Origin',(-0.005,0.747520167055069,1.4039097782533));
#2047=CARTESIAN_POINT('',(0.,-0.737100000000045,0.976880938258524));
#2048=CARTESIAN_POINT('',(0.,0.747520167055069,1.4039097782533));
#2049=CARTESIAN_POINT('',(-0.005,-0.737100000000045,0.976880938258524));
#2050=CARTESIAN_POINT('',(-0.005,-0.737100000000045,0.976880938258524));
#2051=CARTESIAN_POINT('',(-0.005,0.747520167055069,1.4039097782533));
#2052=CARTESIAN_POINT('Origin',(-0.005,-0.737100000000045,0.976880938258524));
#2053=CARTESIAN_POINT('',(0.,-0.737100000000045,2.09855503142826));
#2054=CARTESIAN_POINT('',(0.,-0.737100000000045,0.976880938258524));
#2055=CARTESIAN_POINT('',(-0.005,-0.737100000000045,2.09855503142826));
#2056=CARTESIAN_POINT('',(-0.005,-0.737100000000045,2.09855503142826));
#2057=CARTESIAN_POINT('',(-0.005,-0.737100000000045,0.976880938258524));
#2058=CARTESIAN_POINT('Origin',(-0.005,-0.737100000000045,2.09855503142826));
#2059=CARTESIAN_POINT('',(0.,-0.454595942939205,2.17871717142536));
#2060=CARTESIAN_POINT('',(0.,-0.737100000000045,2.09855503142826));
#2061=CARTESIAN_POINT('',(-0.005,-0.454595942939205,2.17871717142536));
#2062=CARTESIAN_POINT('',(-0.005,-0.454595942939205,2.17871717142536));
#2063=CARTESIAN_POINT('',(-0.005,-0.737100000000045,2.09855503142826));
#2064=CARTESIAN_POINT('Origin',(-0.005,-0.454595942939205,2.17871717142536));
#2065=CARTESIAN_POINT('',(0.,-0.454595942939205,1.47986473638057));
#2066=CARTESIAN_POINT('',(0.,-0.454595942939205,2.17871717142536));
#2067=CARTESIAN_POINT('',(-0.005,-0.454595942939205,1.47986473638057));
#2068=CARTESIAN_POINT('',(-0.005,-0.454595942939205,1.47986473638057));
#2069=CARTESIAN_POINT('',(-0.005,-0.454595942939205,2.17871717142536));
#2070=CARTESIAN_POINT('Origin',(-0.005,-0.454595942939205,1.47986473638057));
#2071=CARTESIAN_POINT('',(0.,-0.0856641162868172,1.58518870588257));
#2072=CARTESIAN_POINT('',(0.,-0.454595942939205,1.47986473638057));
#2073=CARTESIAN_POINT('',(-0.005,-0.0856641162868172,1.58518870588257));
#2074=CARTESIAN_POINT('',(-0.005,-0.0856641162868172,1.58518870588257));
#2075=CARTESIAN_POINT('',(-0.005,-0.454595942939205,1.47986473638057));
#2076=CARTESIAN_POINT('Origin',(-0.005,-0.0856641162868172,1.58518870588257));
#2077=CARTESIAN_POINT('',(0.,-0.0856641162868172,2.22221544718945));
#2078=CARTESIAN_POINT('',(0.,-0.0856641162868172,1.58518870588257));
#2079=CARTESIAN_POINT('',(-0.005,-0.0856641162868172,2.22221544718945));
#2080=CARTESIAN_POINT('',(-0.005,-0.0856641162868172,2.22221544718945));
#2081=CARTESIAN_POINT('',(-0.005,-0.0856641162868172,1.58518870588257));
#2082=CARTESIAN_POINT('Origin',(-0.005,-0.0856641162868172,2.22221544718945));
#2083=CARTESIAN_POINT('',(0.,0.18874156938453,2.30060804338234));
#2084=CARTESIAN_POINT('',(0.,-0.0856641162868172,2.22221544718945));
#2085=CARTESIAN_POINT('',(-0.005,0.18874156938453,2.30060804338234));
#2086=CARTESIAN_POINT('',(-0.005,0.18874156938453,2.30060804338234));
#2087=CARTESIAN_POINT('',(-0.005,-0.0856641162868172,2.22221544718945));
#2088=CARTESIAN_POINT('Origin',(-0.005,0.18874156938453,2.30060804338234));
#2089=CARTESIAN_POINT('',(0.,0.18874156938453,1.66349101922828));
#2090=CARTESIAN_POINT('',(0.,0.18874156938453,2.30060804338234));
#2091=CARTESIAN_POINT('',(-0.005,0.18874156938453,1.66349101922828));
#2092=CARTESIAN_POINT('',(-0.005,0.18874156938453,1.66349101922828));
#2093=CARTESIAN_POINT('',(-0.005,0.18874156938453,2.30060804338234));
#2094=CARTESIAN_POINT('Origin',(-0.005,0.18874156938453,1.66349101922828));
#2095=CARTESIAN_POINT('',(0.,0.18874156938453,1.66349101922828));
#2096=CARTESIAN_POINT('',(-0.005,0.18874156938453,1.66349101922828));
#2097=CARTESIAN_POINT('Origin',(-0.005,-0.132010750270799,-0.0179196693279064));
#2098=CARTESIAN_POINT('Origin',(0.,-0.132010750270799,-0.0179196693279064));
#2099=CARTESIAN_POINT('',(0.,0.,0.));
#2100=UNCERTAINTY_MEASURE_WITH_UNIT(LENGTH_MEASURE(0.01),#2104,
'DISTANCE_ACCURACY_VALUE',
'Maximum model space distance between geometric entities at asserted c
onnectivities');
#2101=UNCERTAINTY_MEASURE_WITH_UNIT(LENGTH_MEASURE(0.01),#2104,
'DISTANCE_ACCURACY_VALUE',
'Maximum model space distance between geometric entities at asserted c
onnectivities');
#2102=(
GEOMETRIC_REPRESENTATION_CONTEXT(3)
GLOBAL_UNCERTAINTY_ASSIGNED_CONTEXT((#2100))
GLOBAL_UNIT_ASSIGNED_CONTEXT((#2104,#2106,#2107))
REPRESENTATION_CONTEXT('','3D')
);
#2103=(
GEOMETRIC_REPRESENTATION_CONTEXT(3)
GLOBAL_UNCERTAINTY_ASSIGNED_CONTEXT((#2101))
GLOBAL_UNIT_ASSIGNED_CONTEXT((#2104,#2106,#2107))
REPRESENTATION_CONTEXT('','3D')
);
#2104=(
LENGTH_UNIT()
NAMED_UNIT(*)
SI_UNIT(.MILLI.,.METRE.)
);
#2105=(
LENGTH_UNIT()
NAMED_UNIT(*)
SI_UNIT(.CENTI.,.METRE.)
);
#2106=(
NAMED_UNIT(*)
PLANE_ANGLE_UNIT()
SI_UNIT($,.RADIAN.)
);
#2107=(
NAMED_UNIT(*)
SI_UNIT($,.STERADIAN.)
SOLID_ANGLE_UNIT()
);
#2108=SHAPE_DEFINITION_REPRESENTATION(#2109,#2110);
#2109=PRODUCT_DEFINITION_SHAPE('',$,#2112);
#2110=SHAPE_REPRESENTATION('',(#1343),#2102);
#2111=PRODUCT_DEFINITION_CONTEXT('part definition',#2116,'design');
#2112=PRODUCT_DEFINITION('A759PY687M1HAAE026','A759PY687M1HAAE026',#2113,
#2111);
#2113=PRODUCT_DEFINITION_FORMATION('ANY',$,#2118);
#2114=PRODUCT_RELATED_PRODUCT_CATEGORY('A759PY687M1HAAE026',
'A759PY687M1HAAE026',(#2118));
#2115=APPLICATION_PROTOCOL_DEFINITION('international standard',
'automotive_design',2009,#2116);
#2116=APPLICATION_CONTEXT(
'Core Data for Automotive Mechanical Design Process');
#2117=PRODUCT_CONTEXT('part definition',#2116,'mechanical');
#2118=PRODUCT('A759PY687M1HAAE026','A759PY687M1HAAE026','STEP AP214',(#2117));
#2119=PRESENTATION_STYLE_ASSIGNMENT((#2125));
#2120=PRESENTATION_STYLE_ASSIGNMENT((#2126));
#2121=PRESENTATION_STYLE_ASSIGNMENT((#2127));
#2122=PRESENTATION_STYLE_ASSIGNMENT((#2128));
#2123=PRESENTATION_STYLE_ASSIGNMENT((#2129));
#2124=PRESENTATION_STYLE_ASSIGNMENT((#2130));
#2125=SURFACE_STYLE_USAGE(.BOTH.,#2141);
#2126=SURFACE_STYLE_USAGE(.BOTH.,#2142);
#2127=SURFACE_STYLE_USAGE(.BOTH.,#2143);
#2128=SURFACE_STYLE_USAGE(.BOTH.,#2144);
#2129=SURFACE_STYLE_USAGE(.BOTH.,#2145);
#2130=SURFACE_STYLE_USAGE(.BOTH.,#2146);
#2131=SURFACE_STYLE_RENDERING_WITH_PROPERTIES($,#2165,(#2136));
#2132=SURFACE_STYLE_RENDERING_WITH_PROPERTIES($,#2166,(#2137));
#2133=SURFACE_STYLE_RENDERING_WITH_PROPERTIES($,#2167,(#2138));
#2134=SURFACE_STYLE_RENDERING_WITH_PROPERTIES($,#2168,(#2139));
#2135=SURFACE_STYLE_RENDERING_WITH_PROPERTIES($,#2169,(#2140));
#2136=SURFACE_STYLE_TRANSPARENT(0.);
#2137=SURFACE_STYLE_TRANSPARENT(0.);
#2138=SURFACE_STYLE_TRANSPARENT(0.);
#2139=SURFACE_STYLE_TRANSPARENT(0.);
#2140=SURFACE_STYLE_TRANSPARENT(0.);
#2141=SURFACE_SIDE_STYLE('',(#2147,#2131));
#2142=SURFACE_SIDE_STYLE('',(#2148,#2132));
#2143=SURFACE_SIDE_STYLE('',(#2149,#2133));
#2144=SURFACE_SIDE_STYLE('',(#2150,#2134));
#2145=SURFACE_SIDE_STYLE('',(#2151,#2135));
#2146=SURFACE_SIDE_STYLE('',(#2152));
#2147=SURFACE_STYLE_FILL_AREA(#2153);
#2148=SURFACE_STYLE_FILL_AREA(#2154);
#2149=SURFACE_STYLE_FILL_AREA(#2155);
#2150=SURFACE_STYLE_FILL_AREA(#2156);
#2151=SURFACE_STYLE_FILL_AREA(#2157);
#2152=SURFACE_STYLE_FILL_AREA(#2158);
#2153=FILL_AREA_STYLE('',(#2159));
#2154=FILL_AREA_STYLE('',(#2160));
#2155=FILL_AREA_STYLE('',(#2161));
#2156=FILL_AREA_STYLE('',(#2162));
#2157=FILL_AREA_STYLE('',(#2163));
#2158=FILL_AREA_STYLE('',(#2164));
#2159=FILL_AREA_STYLE_COLOUR('',#2165);
#2160=FILL_AREA_STYLE_COLOUR('',#2166);
#2161=FILL_AREA_STYLE_COLOUR('',#2167);
#2162=FILL_AREA_STYLE_COLOUR('',#2168);
#2163=FILL_AREA_STYLE_COLOUR('',#2169);
#2164=FILL_AREA_STYLE_COLOUR('',#2170);
#2165=COLOUR_RGB('',0.749019607843137,0.749019607843137,0.749019607843137);
#2166=COLOUR_RGB('',0.792156862745098,0.819607843137255,0.933333333333333);
#2167=COLOUR_RGB('',0.698039215686274,0.698039215686274,0.698039215686274);
#2168=COLOUR_RGB('',0.67843137254902,0.67843137254902,0.67843137254902);
#2169=COLOUR_RGB('',0.,0.,0.);
#2170=COLOUR_RGB('',0.501960784313725,0.0941176470588235,1.);
ENDSEC;
END-ISO-10303-21;
