ISO-10303-21;
HEADER;
/* Generated by software containing ST-Developer
 * from STEP Tools, Inc. (www.steptools.com) 
 */

FILE_DESCRIPTION(
/* description */ ('STEP AP214'),
/* implementation_level */ '2;1');

FILE_NAME(
/* name */ 'B02B-PASK-1.STEP',
/* time_stamp */ '2025-04-01T21:42:17-05:00',
/* author */ ('barre'),
/* organization */ (''),
/* preprocessor_version */ 'ST-DEVELOPER v20',
/* originating_system */ 'Autodesk Inventor 2025',
/* authorisation */ '');

FILE_SCHEMA (('AUTOMOTIVE_DESIGN { 1 0 10303 214 3 1 1 }'));
ENDSEC;

DATA;
#10=MECHANICAL_DESIGN_GEOMETRIC_PRESENTATION_REPRESENTATION('',(#988,#989,
#990,#991,#992,#993,#994,#995,#996,#997,#998,#999,#1000,#1001,#1002,#1003,
#1004,#1005,#1006,#1007,#1008,#1009,#1010,#1011,#1012,#1013,#1014,#1015,
#1016,#1017,#1018,#1019,#1020,#1021,#1022,#1023,#1024,#1025,#1026,#1027,
#1028,#1029,#1030,#1031,#1032,#1033,#1034,#1035,#1036,#1037,#1038,#1039,
#1040,#1041,#1042,#1043),#1728);
#11=SHAPE_REPRESENTATION_RELATIONSHIP('SRR','None',#1735,#12);
#12=ADVANCED_BREP_SHAPE_REPRESENTATION('',(#13),#1727);
#13=MANIFOLD_SOLID_BREP('Solid1',#1099);
#14=FACE_BOUND('',#131,.T.);
#15=FACE_BOUND('',#132,.T.);
#16=FACE_BOUND('',#133,.T.);
#17=FACE_BOUND('',#135,.T.);
#18=FACE_BOUND('',#136,.T.);
#19=FACE_BOUND('',#149,.T.);
#20=PLANE('',#1125);
#21=PLANE('',#1126);
#22=PLANE('',#1127);
#23=PLANE('',#1128);
#24=PLANE('',#1129);
#25=PLANE('',#1130);
#26=PLANE('',#1131);
#27=PLANE('',#1132);
#28=PLANE('',#1133);
#29=PLANE('',#1134);
#30=PLANE('',#1135);
#31=PLANE('',#1136);
#32=PLANE('',#1137);
#33=PLANE('',#1138);
#34=PLANE('',#1139);
#35=PLANE('',#1140);
#36=PLANE('',#1141);
#37=PLANE('',#1142);
#38=PLANE('',#1143);
#39=PLANE('',#1144);
#40=PLANE('',#1145);
#41=PLANE('',#1146);
#42=PLANE('',#1147);
#43=PLANE('',#1148);
#44=PLANE('',#1149);
#45=PLANE('',#1150);
#46=PLANE('',#1151);
#47=PLANE('',#1152);
#48=PLANE('',#1153);
#49=PLANE('',#1154);
#50=PLANE('',#1155);
#51=PLANE('',#1156);
#52=PLANE('',#1157);
#53=PLANE('',#1158);
#54=PLANE('',#1159);
#55=PLANE('',#1160);
#56=PLANE('',#1161);
#57=PLANE('',#1162);
#58=PLANE('',#1163);
#59=PLANE('',#1164);
#60=PLANE('',#1165);
#61=PLANE('',#1166);
#62=PLANE('',#1167);
#63=PLANE('',#1168);
#64=PLANE('',#1169);
#65=PLANE('',#1170);
#66=PLANE('',#1171);
#67=PLANE('',#1172);
#68=PLANE('',#1173);
#69=PLANE('',#1174);
#70=PLANE('',#1175);
#71=PLANE('',#1176);
#72=PLANE('',#1177);
#73=PLANE('',#1178);
#74=FACE_OUTER_BOUND('',#129,.T.);
#75=FACE_OUTER_BOUND('',#130,.T.);
#76=FACE_OUTER_BOUND('',#134,.T.);
#77=FACE_OUTER_BOUND('',#137,.T.);
#78=FACE_OUTER_BOUND('',#138,.T.);
#79=FACE_OUTER_BOUND('',#139,.T.);
#80=FACE_OUTER_BOUND('',#140,.T.);
#81=FACE_OUTER_BOUND('',#141,.T.);
#82=FACE_OUTER_BOUND('',#142,.T.);
#83=FACE_OUTER_BOUND('',#143,.T.);
#84=FACE_OUTER_BOUND('',#144,.T.);
#85=FACE_OUTER_BOUND('',#145,.T.);
#86=FACE_OUTER_BOUND('',#146,.T.);
#87=FACE_OUTER_BOUND('',#147,.T.);
#88=FACE_OUTER_BOUND('',#148,.T.);
#89=FACE_OUTER_BOUND('',#150,.T.);
#90=FACE_OUTER_BOUND('',#151,.T.);
#91=FACE_OUTER_BOUND('',#152,.T.);
#92=FACE_OUTER_BOUND('',#153,.T.);
#93=FACE_OUTER_BOUND('',#154,.T.);
#94=FACE_OUTER_BOUND('',#155,.T.);
#95=FACE_OUTER_BOUND('',#156,.T.);
#96=FACE_OUTER_BOUND('',#157,.T.);
#97=FACE_OUTER_BOUND('',#158,.T.);
#98=FACE_OUTER_BOUND('',#159,.T.);
#99=FACE_OUTER_BOUND('',#160,.T.);
#100=FACE_OUTER_BOUND('',#161,.T.);
#101=FACE_OUTER_BOUND('',#162,.T.);
#102=FACE_OUTER_BOUND('',#163,.T.);
#103=FACE_OUTER_BOUND('',#164,.T.);
#104=FACE_OUTER_BOUND('',#165,.T.);
#105=FACE_OUTER_BOUND('',#166,.T.);
#106=FACE_OUTER_BOUND('',#167,.T.);
#107=FACE_OUTER_BOUND('',#168,.T.);
#108=FACE_OUTER_BOUND('',#169,.T.);
#109=FACE_OUTER_BOUND('',#170,.T.);
#110=FACE_OUTER_BOUND('',#171,.T.);
#111=FACE_OUTER_BOUND('',#172,.T.);
#112=FACE_OUTER_BOUND('',#173,.T.);
#113=FACE_OUTER_BOUND('',#174,.T.);
#114=FACE_OUTER_BOUND('',#175,.T.);
#115=FACE_OUTER_BOUND('',#176,.T.);
#116=FACE_OUTER_BOUND('',#177,.T.);
#117=FACE_OUTER_BOUND('',#178,.T.);
#118=FACE_OUTER_BOUND('',#179,.T.);
#119=FACE_OUTER_BOUND('',#180,.T.);
#120=FACE_OUTER_BOUND('',#181,.T.);
#121=FACE_OUTER_BOUND('',#182,.T.);
#122=FACE_OUTER_BOUND('',#183,.T.);
#123=FACE_OUTER_BOUND('',#184,.T.);
#124=FACE_OUTER_BOUND('',#185,.T.);
#125=FACE_OUTER_BOUND('',#186,.T.);
#126=FACE_OUTER_BOUND('',#187,.T.);
#127=FACE_OUTER_BOUND('',#188,.T.);
#128=FACE_OUTER_BOUND('',#189,.T.);
#129=EDGE_LOOP('',(#705,#706,#707,#708));
#130=EDGE_LOOP('',(#709,#710,#711,#712));
#131=EDGE_LOOP('',(#713));
#132=EDGE_LOOP('',(#714,#715,#716,#717));
#133=EDGE_LOOP('',(#718,#719,#720,#721));
#134=EDGE_LOOP('',(#722,#723,#724,#725,#726,#727,#728,#729));
#135=EDGE_LOOP('',(#730,#731,#732,#733));
#136=EDGE_LOOP('',(#734,#735,#736,#737));
#137=EDGE_LOOP('',(#738,#739,#740,#741,#742,#743));
#138=EDGE_LOOP('',(#744,#745,#746,#747,#748,#749));
#139=EDGE_LOOP('',(#750,#751,#752,#753,#754,#755,#756,#757,#758,#759,#760,
#761,#762,#763,#764,#765));
#140=EDGE_LOOP('',(#766,#767,#768,#769));
#141=EDGE_LOOP('',(#770,#771,#772,#773));
#142=EDGE_LOOP('',(#774,#775,#776,#777));
#143=EDGE_LOOP('',(#778,#779,#780,#781,#782,#783,#784,#785));
#144=EDGE_LOOP('',(#786,#787,#788,#789,#790,#791,#792,#793));
#145=EDGE_LOOP('',(#794,#795,#796,#797));
#146=EDGE_LOOP('',(#798,#799,#800,#801,#802,#803,#804,#805));
#147=EDGE_LOOP('',(#806,#807,#808,#809));
#148=EDGE_LOOP('',(#810,#811,#812,#813,#814,#815,#816,#817));
#149=EDGE_LOOP('',(#818,#819,#820,#821));
#150=EDGE_LOOP('',(#822,#823,#824,#825));
#151=EDGE_LOOP('',(#826,#827,#828,#829));
#152=EDGE_LOOP('',(#830,#831,#832,#833));
#153=EDGE_LOOP('',(#834,#835,#836,#837));
#154=EDGE_LOOP('',(#838,#839,#840,#841,#842,#843));
#155=EDGE_LOOP('',(#844,#845,#846,#847,#848,#849));
#156=EDGE_LOOP('',(#850,#851,#852,#853,#854,#855,#856,#857));
#157=EDGE_LOOP('',(#858,#859,#860,#861));
#158=EDGE_LOOP('',(#862,#863,#864,#865));
#159=EDGE_LOOP('',(#866,#867,#868,#869));
#160=EDGE_LOOP('',(#870,#871,#872,#873));
#161=EDGE_LOOP('',(#874,#875,#876,#877));
#162=EDGE_LOOP('',(#878,#879,#880,#881));
#163=EDGE_LOOP('',(#882,#883,#884,#885));
#164=EDGE_LOOP('',(#886,#887,#888,#889));
#165=EDGE_LOOP('',(#890));
#166=EDGE_LOOP('',(#891,#892,#893,#894));
#167=EDGE_LOOP('',(#895,#896,#897,#898));
#168=EDGE_LOOP('',(#899,#900,#901,#902));
#169=EDGE_LOOP('',(#903,#904,#905,#906));
#170=EDGE_LOOP('',(#907,#908,#909,#910));
#171=EDGE_LOOP('',(#911,#912,#913,#914));
#172=EDGE_LOOP('',(#915,#916,#917,#918));
#173=EDGE_LOOP('',(#919,#920,#921,#922));
#174=EDGE_LOOP('',(#923,#924,#925,#926));
#175=EDGE_LOOP('',(#927,#928,#929,#930));
#176=EDGE_LOOP('',(#931,#932,#933,#934));
#177=EDGE_LOOP('',(#935,#936,#937,#938));
#178=EDGE_LOOP('',(#939,#940,#941,#942));
#179=EDGE_LOOP('',(#943,#944,#945,#946));
#180=EDGE_LOOP('',(#947,#948,#949,#950));
#181=EDGE_LOOP('',(#951,#952,#953,#954));
#182=EDGE_LOOP('',(#955,#956,#957,#958));
#183=EDGE_LOOP('',(#959,#960,#961,#962));
#184=EDGE_LOOP('',(#963,#964,#965,#966));
#185=EDGE_LOOP('',(#967,#968,#969,#970));
#186=EDGE_LOOP('',(#971,#972,#973,#974));
#187=EDGE_LOOP('',(#975,#976,#977,#978));
#188=EDGE_LOOP('',(#979,#980,#981,#982));
#189=EDGE_LOOP('',(#983,#984,#985,#986));
#190=LINE('',#1439,#329);
#191=LINE('',#1444,#330);
#192=LINE('',#1446,#331);
#193=LINE('',#1448,#332);
#194=LINE('',#1449,#333);
#195=LINE('',#1452,#334);
#196=LINE('',#1454,#335);
#197=LINE('',#1456,#336);
#198=LINE('',#1457,#337);
#199=LINE('',#1460,#338);
#200=LINE('',#1462,#339);
#201=LINE('',#1464,#340);
#202=LINE('',#1465,#341);
#203=LINE('',#1469,#342);
#204=LINE('',#1471,#343);
#205=LINE('',#1473,#344);
#206=LINE('',#1475,#345);
#207=LINE('',#1477,#346);
#208=LINE('',#1479,#347);
#209=LINE('',#1481,#348);
#210=LINE('',#1482,#349);
#211=LINE('',#1485,#350);
#212=LINE('',#1487,#351);
#213=LINE('',#1489,#352);
#214=LINE('',#1490,#353);
#215=LINE('',#1493,#354);
#216=LINE('',#1495,#355);
#217=LINE('',#1497,#356);
#218=LINE('',#1498,#357);
#219=LINE('',#1502,#358);
#220=LINE('',#1504,#359);
#221=LINE('',#1506,#360);
#222=LINE('',#1508,#361);
#223=LINE('',#1510,#362);
#224=LINE('',#1511,#363);
#225=LINE('',#1515,#364);
#226=LINE('',#1517,#365);
#227=LINE('',#1519,#366);
#228=LINE('',#1521,#367);
#229=LINE('',#1523,#368);
#230=LINE('',#1524,#369);
#231=LINE('',#1528,#370);
#232=LINE('',#1530,#371);
#233=LINE('',#1532,#372);
#234=LINE('',#1534,#373);
#235=LINE('',#1536,#374);
#236=LINE('',#1538,#375);
#237=LINE('',#1540,#376);
#238=LINE('',#1542,#377);
#239=LINE('',#1544,#378);
#240=LINE('',#1546,#379);
#241=LINE('',#1548,#380);
#242=LINE('',#1550,#381);
#243=LINE('',#1552,#382);
#244=LINE('',#1554,#383);
#245=LINE('',#1556,#384);
#246=LINE('',#1557,#385);
#247=LINE('',#1559,#386);
#248=LINE('',#1560,#387);
#249=LINE('',#1563,#388);
#250=LINE('',#1565,#389);
#251=LINE('',#1566,#390);
#252=LINE('',#1569,#391);
#253=LINE('',#1571,#392);
#254=LINE('',#1572,#393);
#255=LINE('',#1575,#394);
#256=LINE('',#1577,#395);
#257=LINE('',#1578,#396);
#258=LINE('',#1579,#397);
#259=LINE('',#1581,#398);
#260=LINE('',#1582,#399);
#261=LINE('',#1583,#400);
#262=LINE('',#1586,#401);
#263=LINE('',#1587,#402);
#264=LINE('',#1590,#403);
#265=LINE('',#1592,#404);
#266=LINE('',#1593,#405);
#267=LINE('',#1595,#406);
#268=LINE('',#1597,#407);
#269=LINE('',#1599,#408);
#270=LINE('',#1600,#409);
#271=LINE('',#1603,#410);
#272=LINE('',#1605,#411);
#273=LINE('',#1607,#412);
#274=LINE('',#1608,#413);
#275=LINE('',#1610,#414);
#276=LINE('',#1614,#415);
#277=LINE('',#1615,#416);
#278=LINE('',#1617,#417);
#279=LINE('',#1618,#418);
#280=LINE('',#1620,#419);
#281=LINE('',#1621,#420);
#282=LINE('',#1625,#421);
#283=LINE('',#1626,#422);
#284=LINE('',#1627,#423);
#285=LINE('',#1629,#424);
#286=LINE('',#1631,#425);
#287=LINE('',#1635,#426);
#288=LINE('',#1637,#427);
#289=LINE('',#1638,#428);
#290=LINE('',#1641,#429);
#291=LINE('',#1643,#430);
#292=LINE('',#1644,#431);
#293=LINE('',#1646,#432);
#294=LINE('',#1647,#433);
#295=LINE('',#1654,#434);
#296=LINE('',#1656,#435);
#297=LINE('',#1658,#436);
#298=LINE('',#1659,#437);
#299=LINE('',#1661,#438);
#300=LINE('',#1662,#439);
#301=LINE('',#1664,#440);
#302=LINE('',#1666,#441);
#303=LINE('',#1670,#442);
#304=LINE('',#1672,#443);
#305=LINE('',#1673,#444);
#306=LINE('',#1676,#445);
#307=LINE('',#1677,#446);
#308=LINE('',#1680,#447);
#309=LINE('',#1681,#448);
#310=LINE('',#1683,#449);
#311=LINE('',#1688,#450);
#312=LINE('',#1690,#451);
#313=LINE('',#1692,#452);
#314=LINE('',#1693,#453);
#315=LINE('',#1695,#454);
#316=LINE('',#1696,#455);
#317=LINE('',#1698,#456);
#318=LINE('',#1700,#457);
#319=LINE('',#1704,#458);
#320=LINE('',#1706,#459);
#321=LINE('',#1707,#460);
#322=LINE('',#1710,#461);
#323=LINE('',#1711,#462);
#324=LINE('',#1714,#463);
#325=LINE('',#1715,#464);
#326=LINE('',#1717,#465);
#327=LINE('',#1720,#466);
#328=LINE('',#1723,#467);
#329=VECTOR('',#1185,0.4);
#330=VECTOR('',#1190,1000.);
#331=VECTOR('',#1191,1000.);
#332=VECTOR('',#1192,1000.);
#333=VECTOR('',#1193,1000.);
#334=VECTOR('',#1194,1000.);
#335=VECTOR('',#1195,1000.);
#336=VECTOR('',#1196,1000.);
#337=VECTOR('',#1197,1000.);
#338=VECTOR('',#1198,1000.);
#339=VECTOR('',#1199,1000.);
#340=VECTOR('',#1200,1000.);
#341=VECTOR('',#1201,1000.);
#342=VECTOR('',#1204,1000.);
#343=VECTOR('',#1205,1000.);
#344=VECTOR('',#1206,1000.);
#345=VECTOR('',#1207,1000.);
#346=VECTOR('',#1208,1000.);
#347=VECTOR('',#1209,1000.);
#348=VECTOR('',#1210,1000.);
#349=VECTOR('',#1211,1000.);
#350=VECTOR('',#1212,1000.);
#351=VECTOR('',#1213,1000.);
#352=VECTOR('',#1214,1000.);
#353=VECTOR('',#1215,1000.);
#354=VECTOR('',#1216,1000.);
#355=VECTOR('',#1217,1000.);
#356=VECTOR('',#1218,1000.);
#357=VECTOR('',#1219,1000.);
#358=VECTOR('',#1222,1000.);
#359=VECTOR('',#1223,1000.);
#360=VECTOR('',#1224,1000.);
#361=VECTOR('',#1225,1000.);
#362=VECTOR('',#1226,1000.);
#363=VECTOR('',#1227,1000.);
#364=VECTOR('',#1230,1000.);
#365=VECTOR('',#1231,1000.);
#366=VECTOR('',#1232,1000.);
#367=VECTOR('',#1233,1000.);
#368=VECTOR('',#1234,1000.);
#369=VECTOR('',#1235,1000.);
#370=VECTOR('',#1238,1000.);
#371=VECTOR('',#1239,1000.);
#372=VECTOR('',#1240,1000.);
#373=VECTOR('',#1241,1000.);
#374=VECTOR('',#1242,1000.);
#375=VECTOR('',#1243,1000.);
#376=VECTOR('',#1244,1000.);
#377=VECTOR('',#1245,1000.);
#378=VECTOR('',#1246,1000.);
#379=VECTOR('',#1247,1000.);
#380=VECTOR('',#1248,1000.);
#381=VECTOR('',#1249,1000.);
#382=VECTOR('',#1250,1000.);
#383=VECTOR('',#1251,1000.);
#384=VECTOR('',#1252,1000.);
#385=VECTOR('',#1253,1000.);
#386=VECTOR('',#1256,1000.);
#387=VECTOR('',#1257,1000.);
#388=VECTOR('',#1260,1000.);
#389=VECTOR('',#1261,1000.);
#390=VECTOR('',#1262,1000.);
#391=VECTOR('',#1265,1000.);
#392=VECTOR('',#1266,1000.);
#393=VECTOR('',#1267,1000.);
#394=VECTOR('',#1270,1000.);
#395=VECTOR('',#1271,1000.);
#396=VECTOR('',#1272,1000.);
#397=VECTOR('',#1273,1000.);
#398=VECTOR('',#1276,1000.);
#399=VECTOR('',#1277,1000.);
#400=VECTOR('',#1278,1000.);
#401=VECTOR('',#1281,1000.);
#402=VECTOR('',#1282,1000.);
#403=VECTOR('',#1285,1000.);
#404=VECTOR('',#1286,1000.);
#405=VECTOR('',#1287,1000.);
#406=VECTOR('',#1290,1000.);
#407=VECTOR('',#1293,1000.);
#408=VECTOR('',#1294,1000.);
#409=VECTOR('',#1295,1000.);
#410=VECTOR('',#1296,1000.);
#411=VECTOR('',#1297,1000.);
#412=VECTOR('',#1298,1000.);
#413=VECTOR('',#1299,1000.);
#414=VECTOR('',#1302,1000.);
#415=VECTOR('',#1309,1000.);
#416=VECTOR('',#1310,1000.);
#417=VECTOR('',#1313,1000.);
#418=VECTOR('',#1314,1000.);
#419=VECTOR('',#1317,1000.);
#420=VECTOR('',#1318,1000.);
#421=VECTOR('',#1321,1000.);
#422=VECTOR('',#1322,1000.);
#423=VECTOR('',#1323,1000.);
#424=VECTOR('',#1326,1000.);
#425=VECTOR('',#1329,1000.);
#426=VECTOR('',#1334,1000.);
#427=VECTOR('',#1335,1000.);
#428=VECTOR('',#1336,1000.);
#429=VECTOR('',#1339,1000.);
#430=VECTOR('',#1340,1000.);
#431=VECTOR('',#1341,1000.);
#432=VECTOR('',#1344,1000.);
#433=VECTOR('',#1345,1000.);
#434=VECTOR('',#1354,1000.);
#435=VECTOR('',#1355,1000.);
#436=VECTOR('',#1356,1000.);
#437=VECTOR('',#1357,1000.);
#438=VECTOR('',#1360,1000.);
#439=VECTOR('',#1361,1000.);
#440=VECTOR('',#1364,1000.);
#441=VECTOR('',#1367,1000.);
#442=VECTOR('',#1372,1000.);
#443=VECTOR('',#1373,1000.);
#444=VECTOR('',#1374,1000.);
#445=VECTOR('',#1377,1000.);
#446=VECTOR('',#1378,1000.);
#447=VECTOR('',#1381,1000.);
#448=VECTOR('',#1382,1000.);
#449=VECTOR('',#1385,1000.);
#450=VECTOR('',#1390,1000.);
#451=VECTOR('',#1391,1000.);
#452=VECTOR('',#1392,1000.);
#453=VECTOR('',#1393,1000.);
#454=VECTOR('',#1396,1000.);
#455=VECTOR('',#1397,1000.);
#456=VECTOR('',#1400,1000.);
#457=VECTOR('',#1403,1000.);
#458=VECTOR('',#1408,1000.);
#459=VECTOR('',#1409,1000.);
#460=VECTOR('',#1410,1000.);
#461=VECTOR('',#1413,1000.);
#462=VECTOR('',#1414,1000.);
#463=VECTOR('',#1417,1000.);
#464=VECTOR('',#1418,1000.);
#465=VECTOR('',#1421,1000.);
#466=VECTOR('',#1426,1000.);
#467=VECTOR('',#1431,1000.);
#468=CIRCLE('',#1123,0.4);
#469=CIRCLE('',#1124,0.4);
#470=VERTEX_POINT('',#1436);
#471=VERTEX_POINT('',#1438);
#472=VERTEX_POINT('',#1442);
#473=VERTEX_POINT('',#1443);
#474=VERTEX_POINT('',#1445);
#475=VERTEX_POINT('',#1447);
#476=VERTEX_POINT('',#1450);
#477=VERTEX_POINT('',#1451);
#478=VERTEX_POINT('',#1453);
#479=VERTEX_POINT('',#1455);
#480=VERTEX_POINT('',#1458);
#481=VERTEX_POINT('',#1459);
#482=VERTEX_POINT('',#1461);
#483=VERTEX_POINT('',#1463);
#484=VERTEX_POINT('',#1467);
#485=VERTEX_POINT('',#1468);
#486=VERTEX_POINT('',#1470);
#487=VERTEX_POINT('',#1472);
#488=VERTEX_POINT('',#1474);
#489=VERTEX_POINT('',#1476);
#490=VERTEX_POINT('',#1478);
#491=VERTEX_POINT('',#1480);
#492=VERTEX_POINT('',#1483);
#493=VERTEX_POINT('',#1484);
#494=VERTEX_POINT('',#1486);
#495=VERTEX_POINT('',#1488);
#496=VERTEX_POINT('',#1491);
#497=VERTEX_POINT('',#1492);
#498=VERTEX_POINT('',#1494);
#499=VERTEX_POINT('',#1496);
#500=VERTEX_POINT('',#1500);
#501=VERTEX_POINT('',#1501);
#502=VERTEX_POINT('',#1503);
#503=VERTEX_POINT('',#1505);
#504=VERTEX_POINT('',#1507);
#505=VERTEX_POINT('',#1509);
#506=VERTEX_POINT('',#1513);
#507=VERTEX_POINT('',#1514);
#508=VERTEX_POINT('',#1516);
#509=VERTEX_POINT('',#1518);
#510=VERTEX_POINT('',#1520);
#511=VERTEX_POINT('',#1522);
#512=VERTEX_POINT('',#1526);
#513=VERTEX_POINT('',#1527);
#514=VERTEX_POINT('',#1529);
#515=VERTEX_POINT('',#1531);
#516=VERTEX_POINT('',#1533);
#517=VERTEX_POINT('',#1535);
#518=VERTEX_POINT('',#1537);
#519=VERTEX_POINT('',#1539);
#520=VERTEX_POINT('',#1541);
#521=VERTEX_POINT('',#1543);
#522=VERTEX_POINT('',#1545);
#523=VERTEX_POINT('',#1547);
#524=VERTEX_POINT('',#1549);
#525=VERTEX_POINT('',#1551);
#526=VERTEX_POINT('',#1553);
#527=VERTEX_POINT('',#1555);
#528=VERTEX_POINT('',#1562);
#529=VERTEX_POINT('',#1564);
#530=VERTEX_POINT('',#1568);
#531=VERTEX_POINT('',#1570);
#532=VERTEX_POINT('',#1574);
#533=VERTEX_POINT('',#1576);
#534=VERTEX_POINT('',#1585);
#535=VERTEX_POINT('',#1589);
#536=VERTEX_POINT('',#1591);
#537=VERTEX_POINT('',#1598);
#538=VERTEX_POINT('',#1601);
#539=VERTEX_POINT('',#1602);
#540=VERTEX_POINT('',#1604);
#541=VERTEX_POINT('',#1606);
#542=VERTEX_POINT('',#1623);
#543=VERTEX_POINT('',#1624);
#544=VERTEX_POINT('',#1634);
#545=VERTEX_POINT('',#1636);
#546=VERTEX_POINT('',#1640);
#547=VERTEX_POINT('',#1642);
#548=VERTEX_POINT('',#1652);
#549=VERTEX_POINT('',#1653);
#550=VERTEX_POINT('',#1655);
#551=VERTEX_POINT('',#1657);
#552=VERTEX_POINT('',#1669);
#553=VERTEX_POINT('',#1671);
#554=VERTEX_POINT('',#1675);
#555=VERTEX_POINT('',#1679);
#556=VERTEX_POINT('',#1686);
#557=VERTEX_POINT('',#1687);
#558=VERTEX_POINT('',#1689);
#559=VERTEX_POINT('',#1691);
#560=VERTEX_POINT('',#1703);
#561=VERTEX_POINT('',#1705);
#562=VERTEX_POINT('',#1709);
#563=VERTEX_POINT('',#1713);
#564=EDGE_CURVE('',#470,#470,#468,.T.);
#565=EDGE_CURVE('',#470,#471,#190,.T.);
#566=EDGE_CURVE('',#471,#471,#469,.T.);
#567=EDGE_CURVE('',#472,#473,#191,.T.);
#568=EDGE_CURVE('',#472,#474,#192,.T.);
#569=EDGE_CURVE('',#474,#475,#193,.T.);
#570=EDGE_CURVE('',#475,#473,#194,.T.);
#571=EDGE_CURVE('',#476,#477,#195,.T.);
#572=EDGE_CURVE('',#478,#476,#196,.T.);
#573=EDGE_CURVE('',#479,#478,#197,.T.);
#574=EDGE_CURVE('',#477,#479,#198,.T.);
#575=EDGE_CURVE('',#480,#481,#199,.T.);
#576=EDGE_CURVE('',#482,#480,#200,.T.);
#577=EDGE_CURVE('',#483,#482,#201,.T.);
#578=EDGE_CURVE('',#481,#483,#202,.T.);
#579=EDGE_CURVE('',#484,#485,#203,.T.);
#580=EDGE_CURVE('',#486,#485,#204,.T.);
#581=EDGE_CURVE('',#487,#486,#205,.T.);
#582=EDGE_CURVE('',#487,#488,#206,.T.);
#583=EDGE_CURVE('',#488,#489,#207,.T.);
#584=EDGE_CURVE('',#489,#490,#208,.T.);
#585=EDGE_CURVE('',#490,#491,#209,.T.);
#586=EDGE_CURVE('',#491,#484,#210,.T.);
#587=EDGE_CURVE('',#492,#493,#211,.T.);
#588=EDGE_CURVE('',#494,#492,#212,.T.);
#589=EDGE_CURVE('',#495,#494,#213,.T.);
#590=EDGE_CURVE('',#493,#495,#214,.T.);
#591=EDGE_CURVE('',#496,#497,#215,.T.);
#592=EDGE_CURVE('',#498,#496,#216,.T.);
#593=EDGE_CURVE('',#499,#498,#217,.T.);
#594=EDGE_CURVE('',#497,#499,#218,.T.);
#595=EDGE_CURVE('',#500,#501,#219,.T.);
#596=EDGE_CURVE('',#502,#501,#220,.T.);
#597=EDGE_CURVE('',#502,#503,#221,.T.);
#598=EDGE_CURVE('',#504,#503,#222,.T.);
#599=EDGE_CURVE('',#505,#504,#223,.T.);
#600=EDGE_CURVE('',#500,#505,#224,.T.);
#601=EDGE_CURVE('',#506,#507,#225,.T.);
#602=EDGE_CURVE('',#508,#507,#226,.T.);
#603=EDGE_CURVE('',#508,#509,#227,.T.);
#604=EDGE_CURVE('',#509,#510,#228,.T.);
#605=EDGE_CURVE('',#511,#510,#229,.T.);
#606=EDGE_CURVE('',#511,#506,#230,.T.);
#607=EDGE_CURVE('',#512,#513,#231,.T.);
#608=EDGE_CURVE('',#514,#513,#232,.T.);
#609=EDGE_CURVE('',#515,#514,#233,.T.);
#610=EDGE_CURVE('',#515,#516,#234,.T.);
#611=EDGE_CURVE('',#517,#516,#235,.T.);
#612=EDGE_CURVE('',#518,#517,#236,.T.);
#613=EDGE_CURVE('',#519,#518,#237,.T.);
#614=EDGE_CURVE('',#519,#520,#238,.T.);
#615=EDGE_CURVE('',#520,#521,#239,.T.);
#616=EDGE_CURVE('',#522,#521,#240,.T.);
#617=EDGE_CURVE('',#523,#522,#241,.T.);
#618=EDGE_CURVE('',#524,#523,#242,.T.);
#619=EDGE_CURVE('',#524,#525,#243,.T.);
#620=EDGE_CURVE('',#526,#525,#244,.T.);
#621=EDGE_CURVE('',#527,#526,#245,.T.);
#622=EDGE_CURVE('',#527,#512,#246,.T.);
#623=EDGE_CURVE('',#505,#519,#247,.T.);
#624=EDGE_CURVE('',#504,#520,#248,.T.);
#625=EDGE_CURVE('',#528,#525,#249,.T.);
#626=EDGE_CURVE('',#529,#528,#250,.T.);
#627=EDGE_CURVE('',#529,#526,#251,.T.);
#628=EDGE_CURVE('',#530,#528,#252,.T.);
#629=EDGE_CURVE('',#531,#530,#253,.T.);
#630=EDGE_CURVE('',#529,#531,#254,.T.);
#631=EDGE_CURVE('',#532,#474,#255,.T.);
#632=EDGE_CURVE('',#533,#532,#256,.T.);
#633=EDGE_CURVE('',#521,#533,#257,.T.);
#634=EDGE_CURVE('',#503,#475,#258,.T.);
#635=EDGE_CURVE('',#531,#472,#259,.T.);
#636=EDGE_CURVE('',#473,#506,#260,.T.);
#637=EDGE_CURVE('',#511,#527,#261,.T.);
#638=EDGE_CURVE('',#534,#533,#262,.T.);
#639=EDGE_CURVE('',#522,#534,#263,.T.);
#640=EDGE_CURVE('',#535,#502,#264,.T.);
#641=EDGE_CURVE('',#536,#535,#265,.T.);
#642=EDGE_CURVE('',#536,#507,#266,.T.);
#643=EDGE_CURVE('',#510,#512,#267,.T.);
#644=EDGE_CURVE('',#530,#524,#268,.T.);
#645=EDGE_CURVE('',#523,#537,#269,.T.);
#646=EDGE_CURVE('',#537,#532,#270,.T.);
#647=EDGE_CURVE('',#538,#539,#271,.T.);
#648=EDGE_CURVE('',#540,#538,#272,.T.);
#649=EDGE_CURVE('',#540,#541,#273,.T.);
#650=EDGE_CURVE('',#541,#539,#274,.T.);
#651=EDGE_CURVE('',#537,#534,#275,.T.);
#652=EDGE_CURVE('',#490,#515,#276,.T.);
#653=EDGE_CURVE('',#489,#516,#277,.T.);
#654=EDGE_CURVE('',#487,#518,#278,.T.);
#655=EDGE_CURVE('',#486,#500,#279,.T.);
#656=EDGE_CURVE('',#485,#509,#280,.T.);
#657=EDGE_CURVE('',#484,#513,#281,.T.);
#658=EDGE_CURVE('',#542,#543,#282,.T.);
#659=EDGE_CURVE('',#542,#501,#283,.T.);
#660=EDGE_CURVE('',#543,#508,#284,.T.);
#661=EDGE_CURVE('',#535,#542,#285,.T.);
#662=EDGE_CURVE('',#543,#536,#286,.T.);
#663=EDGE_CURVE('',#539,#544,#287,.T.);
#664=EDGE_CURVE('',#545,#544,#288,.T.);
#665=EDGE_CURVE('',#538,#545,#289,.T.);
#666=EDGE_CURVE('',#544,#546,#290,.T.);
#667=EDGE_CURVE('',#547,#546,#291,.T.);
#668=EDGE_CURVE('',#545,#547,#292,.T.);
#669=EDGE_CURVE('',#546,#541,#293,.T.);
#670=EDGE_CURVE('',#547,#540,#294,.T.);
#671=EDGE_CURVE('',#548,#549,#295,.T.);
#672=EDGE_CURVE('',#549,#550,#296,.T.);
#673=EDGE_CURVE('',#550,#551,#297,.T.);
#674=EDGE_CURVE('',#551,#548,#298,.T.);
#675=EDGE_CURVE('',#551,#498,#299,.T.);
#676=EDGE_CURVE('',#548,#496,#300,.T.);
#677=EDGE_CURVE('',#550,#499,#301,.T.);
#678=EDGE_CURVE('',#549,#497,#302,.T.);
#679=EDGE_CURVE('',#480,#552,#303,.T.);
#680=EDGE_CURVE('',#481,#553,#304,.T.);
#681=EDGE_CURVE('',#553,#552,#305,.T.);
#682=EDGE_CURVE('',#482,#554,#306,.T.);
#683=EDGE_CURVE('',#552,#554,#307,.T.);
#684=EDGE_CURVE('',#483,#555,#308,.T.);
#685=EDGE_CURVE('',#554,#555,#309,.T.);
#686=EDGE_CURVE('',#555,#553,#310,.T.);
#687=EDGE_CURVE('',#556,#557,#311,.T.);
#688=EDGE_CURVE('',#557,#558,#312,.T.);
#689=EDGE_CURVE('',#558,#559,#313,.T.);
#690=EDGE_CURVE('',#559,#556,#314,.T.);
#691=EDGE_CURVE('',#559,#494,#315,.T.);
#692=EDGE_CURVE('',#556,#492,#316,.T.);
#693=EDGE_CURVE('',#558,#495,#317,.T.);
#694=EDGE_CURVE('',#557,#493,#318,.T.);
#695=EDGE_CURVE('',#476,#560,#319,.T.);
#696=EDGE_CURVE('',#477,#561,#320,.T.);
#697=EDGE_CURVE('',#561,#560,#321,.T.);
#698=EDGE_CURVE('',#478,#562,#322,.T.);
#699=EDGE_CURVE('',#560,#562,#323,.T.);
#700=EDGE_CURVE('',#479,#563,#324,.T.);
#701=EDGE_CURVE('',#562,#563,#325,.T.);
#702=EDGE_CURVE('',#563,#561,#326,.T.);
#703=EDGE_CURVE('',#488,#517,#327,.T.);
#704=EDGE_CURVE('',#491,#514,#328,.T.);
#705=ORIENTED_EDGE('',*,*,#564,.T.);
#706=ORIENTED_EDGE('',*,*,#565,.T.);
#707=ORIENTED_EDGE('',*,*,#566,.F.);
#708=ORIENTED_EDGE('',*,*,#565,.F.);
#709=ORIENTED_EDGE('',*,*,#567,.F.);
#710=ORIENTED_EDGE('',*,*,#568,.T.);
#711=ORIENTED_EDGE('',*,*,#569,.T.);
#712=ORIENTED_EDGE('',*,*,#570,.T.);
#713=ORIENTED_EDGE('',*,*,#564,.F.);
#714=ORIENTED_EDGE('',*,*,#571,.F.);
#715=ORIENTED_EDGE('',*,*,#572,.F.);
#716=ORIENTED_EDGE('',*,*,#573,.F.);
#717=ORIENTED_EDGE('',*,*,#574,.F.);
#718=ORIENTED_EDGE('',*,*,#575,.F.);
#719=ORIENTED_EDGE('',*,*,#576,.F.);
#720=ORIENTED_EDGE('',*,*,#577,.F.);
#721=ORIENTED_EDGE('',*,*,#578,.F.);
#722=ORIENTED_EDGE('',*,*,#579,.T.);
#723=ORIENTED_EDGE('',*,*,#580,.F.);
#724=ORIENTED_EDGE('',*,*,#581,.F.);
#725=ORIENTED_EDGE('',*,*,#582,.T.);
#726=ORIENTED_EDGE('',*,*,#583,.T.);
#727=ORIENTED_EDGE('',*,*,#584,.T.);
#728=ORIENTED_EDGE('',*,*,#585,.T.);
#729=ORIENTED_EDGE('',*,*,#586,.T.);
#730=ORIENTED_EDGE('',*,*,#587,.F.);
#731=ORIENTED_EDGE('',*,*,#588,.F.);
#732=ORIENTED_EDGE('',*,*,#589,.F.);
#733=ORIENTED_EDGE('',*,*,#590,.F.);
#734=ORIENTED_EDGE('',*,*,#591,.F.);
#735=ORIENTED_EDGE('',*,*,#592,.F.);
#736=ORIENTED_EDGE('',*,*,#593,.F.);
#737=ORIENTED_EDGE('',*,*,#594,.F.);
#738=ORIENTED_EDGE('',*,*,#595,.T.);
#739=ORIENTED_EDGE('',*,*,#596,.F.);
#740=ORIENTED_EDGE('',*,*,#597,.T.);
#741=ORIENTED_EDGE('',*,*,#598,.F.);
#742=ORIENTED_EDGE('',*,*,#599,.F.);
#743=ORIENTED_EDGE('',*,*,#600,.F.);
#744=ORIENTED_EDGE('',*,*,#601,.T.);
#745=ORIENTED_EDGE('',*,*,#602,.F.);
#746=ORIENTED_EDGE('',*,*,#603,.T.);
#747=ORIENTED_EDGE('',*,*,#604,.T.);
#748=ORIENTED_EDGE('',*,*,#605,.F.);
#749=ORIENTED_EDGE('',*,*,#606,.T.);
#750=ORIENTED_EDGE('',*,*,#607,.T.);
#751=ORIENTED_EDGE('',*,*,#608,.F.);
#752=ORIENTED_EDGE('',*,*,#609,.F.);
#753=ORIENTED_EDGE('',*,*,#610,.T.);
#754=ORIENTED_EDGE('',*,*,#611,.F.);
#755=ORIENTED_EDGE('',*,*,#612,.F.);
#756=ORIENTED_EDGE('',*,*,#613,.F.);
#757=ORIENTED_EDGE('',*,*,#614,.T.);
#758=ORIENTED_EDGE('',*,*,#615,.T.);
#759=ORIENTED_EDGE('',*,*,#616,.F.);
#760=ORIENTED_EDGE('',*,*,#617,.F.);
#761=ORIENTED_EDGE('',*,*,#618,.F.);
#762=ORIENTED_EDGE('',*,*,#619,.T.);
#763=ORIENTED_EDGE('',*,*,#620,.F.);
#764=ORIENTED_EDGE('',*,*,#621,.F.);
#765=ORIENTED_EDGE('',*,*,#622,.T.);
#766=ORIENTED_EDGE('',*,*,#623,.F.);
#767=ORIENTED_EDGE('',*,*,#599,.T.);
#768=ORIENTED_EDGE('',*,*,#624,.T.);
#769=ORIENTED_EDGE('',*,*,#614,.F.);
#770=ORIENTED_EDGE('',*,*,#620,.T.);
#771=ORIENTED_EDGE('',*,*,#625,.F.);
#772=ORIENTED_EDGE('',*,*,#626,.F.);
#773=ORIENTED_EDGE('',*,*,#627,.T.);
#774=ORIENTED_EDGE('',*,*,#626,.T.);
#775=ORIENTED_EDGE('',*,*,#628,.F.);
#776=ORIENTED_EDGE('',*,*,#629,.F.);
#777=ORIENTED_EDGE('',*,*,#630,.F.);
#778=ORIENTED_EDGE('',*,*,#569,.F.);
#779=ORIENTED_EDGE('',*,*,#631,.F.);
#780=ORIENTED_EDGE('',*,*,#632,.F.);
#781=ORIENTED_EDGE('',*,*,#633,.F.);
#782=ORIENTED_EDGE('',*,*,#615,.F.);
#783=ORIENTED_EDGE('',*,*,#624,.F.);
#784=ORIENTED_EDGE('',*,*,#598,.T.);
#785=ORIENTED_EDGE('',*,*,#634,.T.);
#786=ORIENTED_EDGE('',*,*,#630,.T.);
#787=ORIENTED_EDGE('',*,*,#635,.T.);
#788=ORIENTED_EDGE('',*,*,#567,.T.);
#789=ORIENTED_EDGE('',*,*,#636,.T.);
#790=ORIENTED_EDGE('',*,*,#606,.F.);
#791=ORIENTED_EDGE('',*,*,#637,.T.);
#792=ORIENTED_EDGE('',*,*,#621,.T.);
#793=ORIENTED_EDGE('',*,*,#627,.F.);
#794=ORIENTED_EDGE('',*,*,#638,.F.);
#795=ORIENTED_EDGE('',*,*,#639,.F.);
#796=ORIENTED_EDGE('',*,*,#616,.T.);
#797=ORIENTED_EDGE('',*,*,#633,.T.);
#798=ORIENTED_EDGE('',*,*,#640,.F.);
#799=ORIENTED_EDGE('',*,*,#641,.F.);
#800=ORIENTED_EDGE('',*,*,#642,.T.);
#801=ORIENTED_EDGE('',*,*,#601,.F.);
#802=ORIENTED_EDGE('',*,*,#636,.F.);
#803=ORIENTED_EDGE('',*,*,#570,.F.);
#804=ORIENTED_EDGE('',*,*,#634,.F.);
#805=ORIENTED_EDGE('',*,*,#597,.F.);
#806=ORIENTED_EDGE('',*,*,#605,.T.);
#807=ORIENTED_EDGE('',*,*,#643,.T.);
#808=ORIENTED_EDGE('',*,*,#622,.F.);
#809=ORIENTED_EDGE('',*,*,#637,.F.);
#810=ORIENTED_EDGE('',*,*,#631,.T.);
#811=ORIENTED_EDGE('',*,*,#568,.F.);
#812=ORIENTED_EDGE('',*,*,#635,.F.);
#813=ORIENTED_EDGE('',*,*,#629,.T.);
#814=ORIENTED_EDGE('',*,*,#644,.T.);
#815=ORIENTED_EDGE('',*,*,#618,.T.);
#816=ORIENTED_EDGE('',*,*,#645,.T.);
#817=ORIENTED_EDGE('',*,*,#646,.T.);
#818=ORIENTED_EDGE('',*,*,#647,.F.);
#819=ORIENTED_EDGE('',*,*,#648,.F.);
#820=ORIENTED_EDGE('',*,*,#649,.T.);
#821=ORIENTED_EDGE('',*,*,#650,.T.);
#822=ORIENTED_EDGE('',*,*,#646,.F.);
#823=ORIENTED_EDGE('',*,*,#651,.T.);
#824=ORIENTED_EDGE('',*,*,#638,.T.);
#825=ORIENTED_EDGE('',*,*,#632,.T.);
#826=ORIENTED_EDGE('',*,*,#628,.T.);
#827=ORIENTED_EDGE('',*,*,#625,.T.);
#828=ORIENTED_EDGE('',*,*,#619,.F.);
#829=ORIENTED_EDGE('',*,*,#644,.F.);
#830=ORIENTED_EDGE('',*,*,#617,.T.);
#831=ORIENTED_EDGE('',*,*,#639,.T.);
#832=ORIENTED_EDGE('',*,*,#651,.F.);
#833=ORIENTED_EDGE('',*,*,#645,.F.);
#834=ORIENTED_EDGE('',*,*,#610,.F.);
#835=ORIENTED_EDGE('',*,*,#652,.F.);
#836=ORIENTED_EDGE('',*,*,#584,.F.);
#837=ORIENTED_EDGE('',*,*,#653,.T.);
#838=ORIENTED_EDGE('',*,*,#613,.T.);
#839=ORIENTED_EDGE('',*,*,#654,.F.);
#840=ORIENTED_EDGE('',*,*,#581,.T.);
#841=ORIENTED_EDGE('',*,*,#655,.T.);
#842=ORIENTED_EDGE('',*,*,#600,.T.);
#843=ORIENTED_EDGE('',*,*,#623,.T.);
#844=ORIENTED_EDGE('',*,*,#643,.F.);
#845=ORIENTED_EDGE('',*,*,#604,.F.);
#846=ORIENTED_EDGE('',*,*,#656,.F.);
#847=ORIENTED_EDGE('',*,*,#579,.F.);
#848=ORIENTED_EDGE('',*,*,#657,.T.);
#849=ORIENTED_EDGE('',*,*,#607,.F.);
#850=ORIENTED_EDGE('',*,*,#658,.F.);
#851=ORIENTED_EDGE('',*,*,#659,.T.);
#852=ORIENTED_EDGE('',*,*,#595,.F.);
#853=ORIENTED_EDGE('',*,*,#655,.F.);
#854=ORIENTED_EDGE('',*,*,#580,.T.);
#855=ORIENTED_EDGE('',*,*,#656,.T.);
#856=ORIENTED_EDGE('',*,*,#603,.F.);
#857=ORIENTED_EDGE('',*,*,#660,.F.);
#858=ORIENTED_EDGE('',*,*,#596,.T.);
#859=ORIENTED_EDGE('',*,*,#659,.F.);
#860=ORIENTED_EDGE('',*,*,#661,.F.);
#861=ORIENTED_EDGE('',*,*,#640,.T.);
#862=ORIENTED_EDGE('',*,*,#602,.T.);
#863=ORIENTED_EDGE('',*,*,#642,.F.);
#864=ORIENTED_EDGE('',*,*,#662,.F.);
#865=ORIENTED_EDGE('',*,*,#660,.T.);
#866=ORIENTED_EDGE('',*,*,#661,.T.);
#867=ORIENTED_EDGE('',*,*,#658,.T.);
#868=ORIENTED_EDGE('',*,*,#662,.T.);
#869=ORIENTED_EDGE('',*,*,#641,.T.);
#870=ORIENTED_EDGE('',*,*,#663,.T.);
#871=ORIENTED_EDGE('',*,*,#664,.F.);
#872=ORIENTED_EDGE('',*,*,#665,.F.);
#873=ORIENTED_EDGE('',*,*,#647,.T.);
#874=ORIENTED_EDGE('',*,*,#666,.T.);
#875=ORIENTED_EDGE('',*,*,#667,.F.);
#876=ORIENTED_EDGE('',*,*,#668,.F.);
#877=ORIENTED_EDGE('',*,*,#664,.T.);
#878=ORIENTED_EDGE('',*,*,#669,.T.);
#879=ORIENTED_EDGE('',*,*,#649,.F.);
#880=ORIENTED_EDGE('',*,*,#670,.F.);
#881=ORIENTED_EDGE('',*,*,#667,.T.);
#882=ORIENTED_EDGE('',*,*,#648,.T.);
#883=ORIENTED_EDGE('',*,*,#665,.T.);
#884=ORIENTED_EDGE('',*,*,#668,.T.);
#885=ORIENTED_EDGE('',*,*,#670,.T.);
#886=ORIENTED_EDGE('',*,*,#650,.F.);
#887=ORIENTED_EDGE('',*,*,#669,.F.);
#888=ORIENTED_EDGE('',*,*,#666,.F.);
#889=ORIENTED_EDGE('',*,*,#663,.F.);
#890=ORIENTED_EDGE('',*,*,#566,.T.);
#891=ORIENTED_EDGE('',*,*,#671,.T.);
#892=ORIENTED_EDGE('',*,*,#672,.T.);
#893=ORIENTED_EDGE('',*,*,#673,.T.);
#894=ORIENTED_EDGE('',*,*,#674,.T.);
#895=ORIENTED_EDGE('',*,*,#675,.T.);
#896=ORIENTED_EDGE('',*,*,#592,.T.);
#897=ORIENTED_EDGE('',*,*,#676,.F.);
#898=ORIENTED_EDGE('',*,*,#674,.F.);
#899=ORIENTED_EDGE('',*,*,#677,.T.);
#900=ORIENTED_EDGE('',*,*,#593,.T.);
#901=ORIENTED_EDGE('',*,*,#675,.F.);
#902=ORIENTED_EDGE('',*,*,#673,.F.);
#903=ORIENTED_EDGE('',*,*,#678,.T.);
#904=ORIENTED_EDGE('',*,*,#594,.T.);
#905=ORIENTED_EDGE('',*,*,#677,.F.);
#906=ORIENTED_EDGE('',*,*,#672,.F.);
#907=ORIENTED_EDGE('',*,*,#676,.T.);
#908=ORIENTED_EDGE('',*,*,#591,.T.);
#909=ORIENTED_EDGE('',*,*,#678,.F.);
#910=ORIENTED_EDGE('',*,*,#671,.F.);
#911=ORIENTED_EDGE('',*,*,#679,.F.);
#912=ORIENTED_EDGE('',*,*,#575,.T.);
#913=ORIENTED_EDGE('',*,*,#680,.T.);
#914=ORIENTED_EDGE('',*,*,#681,.T.);
#915=ORIENTED_EDGE('',*,*,#682,.F.);
#916=ORIENTED_EDGE('',*,*,#576,.T.);
#917=ORIENTED_EDGE('',*,*,#679,.T.);
#918=ORIENTED_EDGE('',*,*,#683,.T.);
#919=ORIENTED_EDGE('',*,*,#684,.F.);
#920=ORIENTED_EDGE('',*,*,#577,.T.);
#921=ORIENTED_EDGE('',*,*,#682,.T.);
#922=ORIENTED_EDGE('',*,*,#685,.T.);
#923=ORIENTED_EDGE('',*,*,#680,.F.);
#924=ORIENTED_EDGE('',*,*,#578,.T.);
#925=ORIENTED_EDGE('',*,*,#684,.T.);
#926=ORIENTED_EDGE('',*,*,#686,.T.);
#927=ORIENTED_EDGE('',*,*,#681,.F.);
#928=ORIENTED_EDGE('',*,*,#686,.F.);
#929=ORIENTED_EDGE('',*,*,#685,.F.);
#930=ORIENTED_EDGE('',*,*,#683,.F.);
#931=ORIENTED_EDGE('',*,*,#687,.T.);
#932=ORIENTED_EDGE('',*,*,#688,.T.);
#933=ORIENTED_EDGE('',*,*,#689,.T.);
#934=ORIENTED_EDGE('',*,*,#690,.T.);
#935=ORIENTED_EDGE('',*,*,#691,.T.);
#936=ORIENTED_EDGE('',*,*,#588,.T.);
#937=ORIENTED_EDGE('',*,*,#692,.F.);
#938=ORIENTED_EDGE('',*,*,#690,.F.);
#939=ORIENTED_EDGE('',*,*,#693,.T.);
#940=ORIENTED_EDGE('',*,*,#589,.T.);
#941=ORIENTED_EDGE('',*,*,#691,.F.);
#942=ORIENTED_EDGE('',*,*,#689,.F.);
#943=ORIENTED_EDGE('',*,*,#694,.T.);
#944=ORIENTED_EDGE('',*,*,#590,.T.);
#945=ORIENTED_EDGE('',*,*,#693,.F.);
#946=ORIENTED_EDGE('',*,*,#688,.F.);
#947=ORIENTED_EDGE('',*,*,#692,.T.);
#948=ORIENTED_EDGE('',*,*,#587,.T.);
#949=ORIENTED_EDGE('',*,*,#694,.F.);
#950=ORIENTED_EDGE('',*,*,#687,.F.);
#951=ORIENTED_EDGE('',*,*,#695,.F.);
#952=ORIENTED_EDGE('',*,*,#571,.T.);
#953=ORIENTED_EDGE('',*,*,#696,.T.);
#954=ORIENTED_EDGE('',*,*,#697,.T.);
#955=ORIENTED_EDGE('',*,*,#698,.F.);
#956=ORIENTED_EDGE('',*,*,#572,.T.);
#957=ORIENTED_EDGE('',*,*,#695,.T.);
#958=ORIENTED_EDGE('',*,*,#699,.T.);
#959=ORIENTED_EDGE('',*,*,#700,.F.);
#960=ORIENTED_EDGE('',*,*,#573,.T.);
#961=ORIENTED_EDGE('',*,*,#698,.T.);
#962=ORIENTED_EDGE('',*,*,#701,.T.);
#963=ORIENTED_EDGE('',*,*,#696,.F.);
#964=ORIENTED_EDGE('',*,*,#574,.T.);
#965=ORIENTED_EDGE('',*,*,#700,.T.);
#966=ORIENTED_EDGE('',*,*,#702,.T.);
#967=ORIENTED_EDGE('',*,*,#697,.F.);
#968=ORIENTED_EDGE('',*,*,#702,.F.);
#969=ORIENTED_EDGE('',*,*,#701,.F.);
#970=ORIENTED_EDGE('',*,*,#699,.F.);
#971=ORIENTED_EDGE('',*,*,#654,.T.);
#972=ORIENTED_EDGE('',*,*,#612,.T.);
#973=ORIENTED_EDGE('',*,*,#703,.F.);
#974=ORIENTED_EDGE('',*,*,#582,.F.);
#975=ORIENTED_EDGE('',*,*,#703,.T.);
#976=ORIENTED_EDGE('',*,*,#611,.T.);
#977=ORIENTED_EDGE('',*,*,#653,.F.);
#978=ORIENTED_EDGE('',*,*,#583,.F.);
#979=ORIENTED_EDGE('',*,*,#704,.T.);
#980=ORIENTED_EDGE('',*,*,#608,.T.);
#981=ORIENTED_EDGE('',*,*,#657,.F.);
#982=ORIENTED_EDGE('',*,*,#586,.F.);
#983=ORIENTED_EDGE('',*,*,#652,.T.);
#984=ORIENTED_EDGE('',*,*,#609,.T.);
#985=ORIENTED_EDGE('',*,*,#704,.F.);
#986=ORIENTED_EDGE('',*,*,#585,.F.);
#987=CYLINDRICAL_SURFACE('',#1122,0.4);
#988=STYLED_ITEM('',(#1745),#1044);
#989=STYLED_ITEM('',(#1745),#1045);
#990=STYLED_ITEM('',(#1745),#1046);
#991=STYLED_ITEM('',(#1745),#1047);
#992=STYLED_ITEM('',(#1745),#1048);
#993=STYLED_ITEM('',(#1745),#1049);
#994=STYLED_ITEM('',(#1745),#1050);
#995=STYLED_ITEM('',(#1745),#1051);
#996=STYLED_ITEM('',(#1745),#1052);
#997=STYLED_ITEM('',(#1745),#1053);
#998=STYLED_ITEM('',(#1745),#1054);
#999=STYLED_ITEM('',(#1745),#1055);
#1000=STYLED_ITEM('',(#1745),#1056);
#1001=STYLED_ITEM('',(#1745),#1057);
#1002=STYLED_ITEM('',(#1745),#1058);
#1003=STYLED_ITEM('',(#1745),#1059);
#1004=STYLED_ITEM('',(#1745),#1060);
#1005=STYLED_ITEM('',(#1745),#1061);
#1006=STYLED_ITEM('',(#1745),#1062);
#1007=STYLED_ITEM('',(#1745),#1063);
#1008=STYLED_ITEM('',(#1745),#1064);
#1009=STYLED_ITEM('',(#1745),#1065);
#1010=STYLED_ITEM('',(#1745),#1066);
#1011=STYLED_ITEM('',(#1745),#1067);
#1012=STYLED_ITEM('',(#1745),#1068);
#1013=STYLED_ITEM('',(#1745),#1069);
#1014=STYLED_ITEM('',(#1745),#1070);
#1015=STYLED_ITEM('',(#1745),#1071);
#1016=STYLED_ITEM('',(#1745),#1072);
#1017=STYLED_ITEM('',(#1745),#1073);
#1018=STYLED_ITEM('',(#1745),#1074);
#1019=STYLED_ITEM('',(#1745),#1075);
#1020=STYLED_ITEM('',(#1745),#1076);
#1021=STYLED_ITEM('',(#1745),#1077);
#1022=STYLED_ITEM('',(#1745),#1078);
#1023=STYLED_ITEM('',(#1745),#1079);
#1024=STYLED_ITEM('',(#1746),#1080);
#1025=STYLED_ITEM('',(#1746),#1081);
#1026=STYLED_ITEM('',(#1746),#1082);
#1027=STYLED_ITEM('',(#1746),#1083);
#1028=STYLED_ITEM('',(#1746),#1084);
#1029=STYLED_ITEM('',(#1745),#1085);
#1030=STYLED_ITEM('',(#1745),#1086);
#1031=STYLED_ITEM('',(#1745),#1087);
#1032=STYLED_ITEM('',(#1745),#1088);
#1033=STYLED_ITEM('',(#1745),#1089);
#1034=STYLED_ITEM('',(#1746),#1090);
#1035=STYLED_ITEM('',(#1746),#1091);
#1036=STYLED_ITEM('',(#1746),#1092);
#1037=STYLED_ITEM('',(#1746),#1093);
#1038=STYLED_ITEM('',(#1746),#1094);
#1039=STYLED_ITEM('',(#1745),#1095);
#1040=STYLED_ITEM('',(#1745),#1096);
#1041=STYLED_ITEM('',(#1745),#1097);
#1042=STYLED_ITEM('',(#1745),#1098);
#1043=STYLED_ITEM('',(#1744),#13);
#1044=ADVANCED_FACE('',(#74),#987,.T.);
#1045=ADVANCED_FACE('',(#75,#14,#15,#16),#20,.F.);
#1046=ADVANCED_FACE('',(#76,#17,#18),#21,.F.);
#1047=ADVANCED_FACE('',(#77),#22,.F.);
#1048=ADVANCED_FACE('',(#78),#23,.F.);
#1049=ADVANCED_FACE('',(#79),#24,.F.);
#1050=ADVANCED_FACE('',(#80),#25,.F.);
#1051=ADVANCED_FACE('',(#81),#26,.F.);
#1052=ADVANCED_FACE('',(#82),#27,.F.);
#1053=ADVANCED_FACE('',(#83),#28,.F.);
#1054=ADVANCED_FACE('',(#84),#29,.F.);
#1055=ADVANCED_FACE('',(#85),#30,.F.);
#1056=ADVANCED_FACE('',(#86),#31,.T.);
#1057=ADVANCED_FACE('',(#87),#32,.F.);
#1058=ADVANCED_FACE('',(#88,#19),#33,.F.);
#1059=ADVANCED_FACE('',(#89),#34,.F.);
#1060=ADVANCED_FACE('',(#90),#35,.F.);
#1061=ADVANCED_FACE('',(#91),#36,.F.);
#1062=ADVANCED_FACE('',(#92),#37,.F.);
#1063=ADVANCED_FACE('',(#93),#38,.T.);
#1064=ADVANCED_FACE('',(#94),#39,.F.);
#1065=ADVANCED_FACE('',(#95),#40,.F.);
#1066=ADVANCED_FACE('',(#96),#41,.F.);
#1067=ADVANCED_FACE('',(#97),#42,.F.);
#1068=ADVANCED_FACE('',(#98),#43,.T.);
#1069=ADVANCED_FACE('',(#99),#44,.F.);
#1070=ADVANCED_FACE('',(#100),#45,.F.);
#1071=ADVANCED_FACE('',(#101),#46,.F.);
#1072=ADVANCED_FACE('',(#102),#47,.T.);
#1073=ADVANCED_FACE('',(#103),#48,.F.);
#1074=ADVANCED_FACE('',(#104),#49,.T.);
#1075=ADVANCED_FACE('',(#105),#50,.F.);
#1076=ADVANCED_FACE('',(#106),#51,.F.);
#1077=ADVANCED_FACE('',(#107),#52,.F.);
#1078=ADVANCED_FACE('',(#108),#53,.F.);
#1079=ADVANCED_FACE('',(#109),#54,.F.);
#1080=ADVANCED_FACE('',(#110),#55,.F.);
#1081=ADVANCED_FACE('',(#111),#56,.F.);
#1082=ADVANCED_FACE('',(#112),#57,.F.);
#1083=ADVANCED_FACE('',(#113),#58,.F.);
#1084=ADVANCED_FACE('',(#114),#59,.T.);
#1085=ADVANCED_FACE('',(#115),#60,.F.);
#1086=ADVANCED_FACE('',(#116),#61,.F.);
#1087=ADVANCED_FACE('',(#117),#62,.F.);
#1088=ADVANCED_FACE('',(#118),#63,.F.);
#1089=ADVANCED_FACE('',(#119),#64,.F.);
#1090=ADVANCED_FACE('',(#120),#65,.F.);
#1091=ADVANCED_FACE('',(#121),#66,.F.);
#1092=ADVANCED_FACE('',(#122),#67,.F.);
#1093=ADVANCED_FACE('',(#123),#68,.F.);
#1094=ADVANCED_FACE('',(#124),#69,.T.);
#1095=ADVANCED_FACE('',(#125),#70,.F.);
#1096=ADVANCED_FACE('',(#126),#71,.F.);
#1097=ADVANCED_FACE('',(#127),#72,.F.);
#1098=ADVANCED_FACE('',(#128),#73,.F.);
#1099=CLOSED_SHELL('',(#1044,#1045,#1046,#1047,#1048,#1049,#1050,#1051,
#1052,#1053,#1054,#1055,#1056,#1057,#1058,#1059,#1060,#1061,#1062,#1063,
#1064,#1065,#1066,#1067,#1068,#1069,#1070,#1071,#1072,#1073,#1074,#1075,
#1076,#1077,#1078,#1079,#1080,#1081,#1082,#1083,#1084,#1085,#1086,#1087,
#1088,#1089,#1090,#1091,#1092,#1093,#1094,#1095,#1096,#1097,#1098));
#1100=DERIVED_UNIT_ELEMENT(#1103,1.);
#1101=DERIVED_UNIT_ELEMENT(#1730,-3.);
#1102=DIMENSIONAL_EXPONENTS(0.,1.,0.,0.,0.,0.,0.);
#1103=(
CONVERSION_BASED_UNIT('gram',#1105)
MASS_UNIT()
NAMED_UNIT(#1102)
);
#1104=(
MASS_UNIT()
NAMED_UNIT(*)
SI_UNIT(.KILO.,.GRAM.)
);
#1105=MASS_MEASURE_WITH_UNIT(MASS_MEASURE(0.001),#1104);
#1106=DERIVED_UNIT((#1100,#1101));
#1107=MEASURE_REPRESENTATION_ITEM('density measure',
POSITIVE_RATIO_MEASURE(1.),#1106);
#1108=PROPERTY_DEFINITION_REPRESENTATION(#1113,#1110);
#1109=PROPERTY_DEFINITION_REPRESENTATION(#1114,#1111);
#1110=REPRESENTATION('material name',(#1112),#1727);
#1111=REPRESENTATION('density',(#1107),#1727);
#1112=DESCRIPTIVE_REPRESENTATION_ITEM('Generic','Generic');
#1113=PROPERTY_DEFINITION('material property','material name',#1737);
#1114=PROPERTY_DEFINITION('material property','density of part',#1737);
#1115=DATE_TIME_ROLE('creation_date');
#1116=APPLIED_DATE_AND_TIME_ASSIGNMENT(#1117,#1115,(#1737));
#1117=DATE_AND_TIME(#1118,#1119);
#1118=CALENDAR_DATE(2016,30,6);
#1119=LOCAL_TIME(0,29,2.,#1120);
#1120=COORDINATED_UNIVERSAL_TIME_OFFSET(0,0,.BEHIND.);
#1121=AXIS2_PLACEMENT_3D('',#1434,#1179,#1180);
#1122=AXIS2_PLACEMENT_3D('',#1435,#1181,#1182);
#1123=AXIS2_PLACEMENT_3D('',#1437,#1183,#1184);
#1124=AXIS2_PLACEMENT_3D('',#1440,#1186,#1187);
#1125=AXIS2_PLACEMENT_3D('',#1441,#1188,#1189);
#1126=AXIS2_PLACEMENT_3D('',#1466,#1202,#1203);
#1127=AXIS2_PLACEMENT_3D('',#1499,#1220,#1221);
#1128=AXIS2_PLACEMENT_3D('',#1512,#1228,#1229);
#1129=AXIS2_PLACEMENT_3D('',#1525,#1236,#1237);
#1130=AXIS2_PLACEMENT_3D('',#1558,#1254,#1255);
#1131=AXIS2_PLACEMENT_3D('',#1561,#1258,#1259);
#1132=AXIS2_PLACEMENT_3D('',#1567,#1263,#1264);
#1133=AXIS2_PLACEMENT_3D('',#1573,#1268,#1269);
#1134=AXIS2_PLACEMENT_3D('',#1580,#1274,#1275);
#1135=AXIS2_PLACEMENT_3D('',#1584,#1279,#1280);
#1136=AXIS2_PLACEMENT_3D('',#1588,#1283,#1284);
#1137=AXIS2_PLACEMENT_3D('',#1594,#1288,#1289);
#1138=AXIS2_PLACEMENT_3D('',#1596,#1291,#1292);
#1139=AXIS2_PLACEMENT_3D('',#1609,#1300,#1301);
#1140=AXIS2_PLACEMENT_3D('',#1611,#1303,#1304);
#1141=AXIS2_PLACEMENT_3D('',#1612,#1305,#1306);
#1142=AXIS2_PLACEMENT_3D('',#1613,#1307,#1308);
#1143=AXIS2_PLACEMENT_3D('',#1616,#1311,#1312);
#1144=AXIS2_PLACEMENT_3D('',#1619,#1315,#1316);
#1145=AXIS2_PLACEMENT_3D('',#1622,#1319,#1320);
#1146=AXIS2_PLACEMENT_3D('',#1628,#1324,#1325);
#1147=AXIS2_PLACEMENT_3D('',#1630,#1327,#1328);
#1148=AXIS2_PLACEMENT_3D('',#1632,#1330,#1331);
#1149=AXIS2_PLACEMENT_3D('',#1633,#1332,#1333);
#1150=AXIS2_PLACEMENT_3D('',#1639,#1337,#1338);
#1151=AXIS2_PLACEMENT_3D('',#1645,#1342,#1343);
#1152=AXIS2_PLACEMENT_3D('',#1648,#1346,#1347);
#1153=AXIS2_PLACEMENT_3D('',#1649,#1348,#1349);
#1154=AXIS2_PLACEMENT_3D('',#1650,#1350,#1351);
#1155=AXIS2_PLACEMENT_3D('',#1651,#1352,#1353);
#1156=AXIS2_PLACEMENT_3D('',#1660,#1358,#1359);
#1157=AXIS2_PLACEMENT_3D('',#1663,#1362,#1363);
#1158=AXIS2_PLACEMENT_3D('',#1665,#1365,#1366);
#1159=AXIS2_PLACEMENT_3D('',#1667,#1368,#1369);
#1160=AXIS2_PLACEMENT_3D('',#1668,#1370,#1371);
#1161=AXIS2_PLACEMENT_3D('',#1674,#1375,#1376);
#1162=AXIS2_PLACEMENT_3D('',#1678,#1379,#1380);
#1163=AXIS2_PLACEMENT_3D('',#1682,#1383,#1384);
#1164=AXIS2_PLACEMENT_3D('',#1684,#1386,#1387);
#1165=AXIS2_PLACEMENT_3D('',#1685,#1388,#1389);
#1166=AXIS2_PLACEMENT_3D('',#1694,#1394,#1395);
#1167=AXIS2_PLACEMENT_3D('',#1697,#1398,#1399);
#1168=AXIS2_PLACEMENT_3D('',#1699,#1401,#1402);
#1169=AXIS2_PLACEMENT_3D('',#1701,#1404,#1405);
#1170=AXIS2_PLACEMENT_3D('',#1702,#1406,#1407);
#1171=AXIS2_PLACEMENT_3D('',#1708,#1411,#1412);
#1172=AXIS2_PLACEMENT_3D('',#1712,#1415,#1416);
#1173=AXIS2_PLACEMENT_3D('',#1716,#1419,#1420);
#1174=AXIS2_PLACEMENT_3D('',#1718,#1422,#1423);
#1175=AXIS2_PLACEMENT_3D('',#1719,#1424,#1425);
#1176=AXIS2_PLACEMENT_3D('',#1721,#1427,#1428);
#1177=AXIS2_PLACEMENT_3D('',#1722,#1429,#1430);
#1178=AXIS2_PLACEMENT_3D('',#1724,#1432,#1433);
#1179=DIRECTION('axis',(0.,0.,1.));
#1180=DIRECTION('refdir',(1.,0.,0.));
#1181=DIRECTION('center_axis',(0.,1.,0.));
#1182=DIRECTION('ref_axis',(0.,0.,1.));
#1183=DIRECTION('center_axis',(0.,-1.,0.));
#1184=DIRECTION('ref_axis',(0.,0.,1.));
#1185=DIRECTION('',(0.,-1.,0.));
#1186=DIRECTION('center_axis',(0.,-1.,0.));
#1187=DIRECTION('ref_axis',(0.,0.,-1.));
#1188=DIRECTION('center_axis',(0.,1.,0.));
#1189=DIRECTION('ref_axis',(0.,0.,1.));
#1190=DIRECTION('',(0.,0.,-1.));
#1191=DIRECTION('',(-1.,0.,0.));
#1192=DIRECTION('',(0.,0.,-1.));
#1193=DIRECTION('',(1.,0.,0.));
#1194=DIRECTION('',(0.,0.,-1.));
#1195=DIRECTION('',(-1.,0.,1.0842021724855E-16));
#1196=DIRECTION('',(4.33680868994202E-16,0.,1.));
#1197=DIRECTION('',(1.,0.,-1.0842021724855E-16));
#1198=DIRECTION('',(0.,0.,-1.));
#1199=DIRECTION('',(-1.,0.,1.0842021724855E-16));
#1200=DIRECTION('',(4.33680868994202E-16,0.,1.));
#1201=DIRECTION('',(1.,0.,-1.0842021724855E-16));
#1202=DIRECTION('center_axis',(0.,-1.,-2.3232903696118E-16));
#1203=DIRECTION('ref_axis',(0.,2.3232903696118E-16,-1.));
#1204=DIRECTION('',(0.,2.3232903696118E-16,-1.));
#1205=DIRECTION('',(1.,0.,0.));
#1206=DIRECTION('',(0.,2.3232903696118E-16,-1.));
#1207=DIRECTION('',(1.,0.,0.));
#1208=DIRECTION('',(0.,2.3232903696118E-16,-1.));
#1209=DIRECTION('',(1.,0.,0.));
#1210=DIRECTION('',(1.97127667724637E-16,-2.3232903696118E-16,1.));
#1211=DIRECTION('',(1.,0.,0.));
#1212=DIRECTION('',(0.,-2.3232903696118E-16,1.));
#1213=DIRECTION('',(-1.,-2.51891646604776E-32,1.0842021724855E-16));
#1214=DIRECTION('',(-4.33680868994202E-16,2.3232903696118E-16,-1.));
#1215=DIRECTION('',(1.,2.51891646604776E-32,-1.0842021724855E-16));
#1216=DIRECTION('',(0.,-2.3232903696118E-16,1.));
#1217=DIRECTION('',(-1.,-2.51891646604776E-32,1.0842021724855E-16));
#1218=DIRECTION('',(-4.33680868994202E-16,2.3232903696118E-16,-1.));
#1219=DIRECTION('',(1.,2.51891646604776E-32,-1.0842021724855E-16));
#1220=DIRECTION('center_axis',(0.,-1.,0.));
#1221=DIRECTION('ref_axis',(0.,0.,-1.));
#1222=DIRECTION('',(1.,0.,0.));
#1223=DIRECTION('',(6.19544098563145E-16,0.,1.));
#1224=DIRECTION('',(-1.,0.,0.));
#1225=DIRECTION('',(0.,0.,-1.));
#1226=DIRECTION('',(-1.,0.,0.));
#1227=DIRECTION('',(0.,-3.09772049281573E-16,1.));
#1228=DIRECTION('center_axis',(0.,-1.,0.));
#1229=DIRECTION('ref_axis',(0.,0.,-1.));
#1230=DIRECTION('',(-1.,0.,0.));
#1231=DIRECTION('',(0.,0.,-1.));
#1232=DIRECTION('',(1.,0.,0.));
#1233=DIRECTION('',(0.,-3.09772049281573E-16,1.));
#1234=DIRECTION('',(-1.,0.,0.));
#1235=DIRECTION('',(0.,0.,-1.));
#1236=DIRECTION('center_axis',(0.,-1.,1.25704599708464E-16));
#1237=DIRECTION('ref_axis',(0.,-1.25704599708464E-16,-1.));
#1238=DIRECTION('',(0.,1.25704599708464E-16,1.));
#1239=DIRECTION('',(1.,0.,0.));
#1240=DIRECTION('',(1.97127667724637E-16,3.94255335449275E-16,1.));
#1241=DIRECTION('',(-1.,0.,0.));
#1242=DIRECTION('',(0.,-3.94255335449275E-16,-1.));
#1243=DIRECTION('',(1.,0.,0.));
#1244=DIRECTION('',(0.,1.25704599708464E-16,1.));
#1245=DIRECTION('',(-1.,0.,0.));
#1246=DIRECTION('',(0.,1.25704599708464E-16,1.));
#1247=DIRECTION('',(-1.,0.,0.));
#1248=DIRECTION('',(0.,0.,1.));
#1249=DIRECTION('',(-1.,-1.88556899562696E-16,5.11084500357516E-32));
#1250=DIRECTION('',(0.,0.,1.));
#1251=DIRECTION('',(-1.,0.,0.));
#1252=DIRECTION('',(0.,1.25704599708464E-16,1.));
#1253=DIRECTION('',(-1.,0.,0.));
#1254=DIRECTION('center_axis',(0.,6.02334540269725E-17,-1.));
#1255=DIRECTION('ref_axis',(0.,1.,6.02334540269725E-17));
#1256=DIRECTION('',(0.,-1.,-6.02334540269725E-17));
#1257=DIRECTION('',(0.,-1.,-6.02334540269725E-17));
#1258=DIRECTION('center_axis',(0.,0.,-1.));
#1259=DIRECTION('ref_axis',(-1.,0.,0.));
#1260=DIRECTION('',(-1.00856016045163E-16,1.,0.));
#1261=DIRECTION('',(-1.,0.,0.));
#1262=DIRECTION('',(0.,1.,0.));
#1263=DIRECTION('center_axis',(0.,1.,0.));
#1264=DIRECTION('ref_axis',(0.,0.,1.));
#1265=DIRECTION('',(0.,0.,1.));
#1266=DIRECTION('',(-1.,0.,0.));
#1267=DIRECTION('',(0.,0.,-1.));
#1268=DIRECTION('center_axis',(1.,0.,0.));
#1269=DIRECTION('ref_axis',(0.,0.,-1.));
#1270=DIRECTION('',(0.,-1.,2.71050543121376E-16));
#1271=DIRECTION('',(0.,0.,-1.));
#1272=DIRECTION('',(0.,-1.,0.));
#1273=DIRECTION('',(0.,-1.,0.));
#1274=DIRECTION('center_axis',(-1.,0.,0.));
#1275=DIRECTION('ref_axis',(0.,0.,1.));
#1276=DIRECTION('',(0.,-1.,2.71050543121376E-16));
#1277=DIRECTION('',(0.,1.,0.));
#1278=DIRECTION('',(0.,-1.,-6.02334540269725E-17));
#1279=DIRECTION('center_axis',(0.,0.,-1.));
#1280=DIRECTION('ref_axis',(-1.,0.,0.));
#1281=DIRECTION('',(-1.,0.,0.));
#1282=DIRECTION('',(2.01712032090326E-16,-1.,0.));
#1283=DIRECTION('center_axis',(0.,0.,-1.));
#1284=DIRECTION('ref_axis',(-1.,0.,0.));
#1285=DIRECTION('',(0.,1.,0.));
#1286=DIRECTION('',(-1.,0.,0.));
#1287=DIRECTION('',(0.,1.,0.));
#1288=DIRECTION('center_axis',(0.,6.02334540269725E-17,-1.));
#1289=DIRECTION('ref_axis',(0.,1.,6.02334540269725E-17));
#1290=DIRECTION('',(0.,-1.,-6.02334540269725E-17));
#1291=DIRECTION('center_axis',(0.,-2.71050543121376E-16,-1.));
#1292=DIRECTION('ref_axis',(0.,1.,-2.71050543121376E-16));
#1293=DIRECTION('',(-1.00856016045163E-16,1.,-2.71050543121376E-16));
#1294=DIRECTION('',(2.01712032090326E-16,-1.,2.71050543121376E-16));
#1295=DIRECTION('',(-1.,0.,0.));
#1296=DIRECTION('',(-1.,0.,0.));
#1297=DIRECTION('',(0.,1.,0.));
#1298=DIRECTION('',(-1.,0.,0.));
#1299=DIRECTION('',(0.,1.,0.));
#1300=DIRECTION('center_axis',(0.,1.,0.));
#1301=DIRECTION('ref_axis',(0.,0.,1.));
#1302=DIRECTION('',(0.,0.,1.));
#1303=DIRECTION('center_axis',(1.,1.00856016045163E-16,0.));
#1304=DIRECTION('ref_axis',(-1.00856016045163E-16,1.,0.));
#1305=DIRECTION('center_axis',(-1.,-2.01712032090326E-16,0.));
#1306=DIRECTION('ref_axis',(2.01712032090326E-16,-1.,0.));
#1307=DIRECTION('center_axis',(0.,0.,1.));
#1308=DIRECTION('ref_axis',(1.,0.,0.));
#1309=DIRECTION('',(0.,1.,-1.25704599708464E-16));
#1310=DIRECTION('',(0.,1.,-1.25704599708464E-16));
#1311=DIRECTION('center_axis',(1.,0.,0.));
#1312=DIRECTION('ref_axis',(0.,0.,-1.));
#1313=DIRECTION('',(0.,1.,-1.25704599708464E-16));
#1314=DIRECTION('',(0.,1.,1.12158845429535E-16));
#1315=DIRECTION('center_axis',(1.,0.,0.));
#1316=DIRECTION('ref_axis',(0.,0.,-1.));
#1317=DIRECTION('',(0.,1.,1.12158845429535E-16));
#1318=DIRECTION('',(0.,1.,-1.25704599708464E-16));
#1319=DIRECTION('center_axis',(0.,1.12158845429535E-16,-1.));
#1320=DIRECTION('ref_axis',(0.,1.,1.12158845429535E-16));
#1321=DIRECTION('',(1.,0.,-1.44560289664734E-16));
#1322=DIRECTION('',(0.,1.,0.));
#1323=DIRECTION('',(0.,1.,0.));
#1324=DIRECTION('center_axis',(-1.,0.,6.19544098563145E-16));
#1325=DIRECTION('ref_axis',(6.19544098563145E-16,0.,1.));
#1326=DIRECTION('',(6.19544098563145E-16,0.,1.));
#1327=DIRECTION('center_axis',(1.,0.,0.));
#1328=DIRECTION('ref_axis',(0.,0.,-1.));
#1329=DIRECTION('',(0.,0.,-1.));
#1330=DIRECTION('center_axis',(0.,1.,0.));
#1331=DIRECTION('ref_axis',(0.,0.,1.));
#1332=DIRECTION('center_axis',(0.,-1.,0.));
#1333=DIRECTION('ref_axis',(0.,0.,-1.));
#1334=DIRECTION('',(0.,0.,1.));
#1335=DIRECTION('',(-1.,0.,0.));
#1336=DIRECTION('',(0.,0.,1.));
#1337=DIRECTION('center_axis',(0.,2.35696124453371E-16,-1.));
#1338=DIRECTION('ref_axis',(0.,1.,2.35696124453371E-16));
#1339=DIRECTION('',(0.,-1.,-2.35696124453371E-16));
#1340=DIRECTION('',(-1.,0.,0.));
#1341=DIRECTION('',(0.,-1.,-2.35696124453371E-16));
#1342=DIRECTION('center_axis',(0.,1.,0.));
#1343=DIRECTION('ref_axis',(0.,0.,1.));
#1344=DIRECTION('',(0.,0.,-1.));
#1345=DIRECTION('',(0.,0.,-1.));
#1346=DIRECTION('center_axis',(1.,0.,0.));
#1347=DIRECTION('ref_axis',(0.,0.,-1.));
#1348=DIRECTION('center_axis',(1.,0.,0.));
#1349=DIRECTION('ref_axis',(0.,0.,-1.));
#1350=DIRECTION('center_axis',(0.,-1.,0.));
#1351=DIRECTION('ref_axis',(0.,0.,-1.));
#1352=DIRECTION('center_axis',(0.,-1.,0.));
#1353=DIRECTION('ref_axis',(0.,0.,-1.));
#1354=DIRECTION('',(0.,0.,1.));
#1355=DIRECTION('',(1.,0.,-1.0842021724855E-16));
#1356=DIRECTION('',(-4.33680868994202E-16,0.,-1.));
#1357=DIRECTION('',(-1.,0.,1.0842021724855E-16));
#1358=DIRECTION('center_axis',(1.0842021724855E-16,-1.60622544071927E-16,
1.));
#1359=DIRECTION('ref_axis',(0.,-1.,-1.60622544071927E-16));
#1360=DIRECTION('',(0.,-1.,-1.60622544071927E-16));
#1361=DIRECTION('',(0.,-1.,-1.60622544071927E-16));
#1362=DIRECTION('center_axis',(-1.,-6.96589244931726E-32,4.33680868994202E-16));
#1363=DIRECTION('ref_axis',(4.33680868994202E-16,0.,1.));
#1364=DIRECTION('',(0.,-1.,-1.60622544071927E-16));
#1365=DIRECTION('center_axis',(-1.0842021724855E-16,1.60622544071927E-16,
-1.));
#1366=DIRECTION('ref_axis',(0.,1.,1.60622544071927E-16));
#1367=DIRECTION('',(0.,-1.,-1.60622544071927E-16));
#1368=DIRECTION('center_axis',(1.,0.,0.));
#1369=DIRECTION('ref_axis',(0.,0.,-1.));
#1370=DIRECTION('center_axis',(1.,0.,0.));
#1371=DIRECTION('ref_axis',(0.,0.,-1.));
#1372=DIRECTION('',(0.,-1.,-1.60622544071927E-16));
#1373=DIRECTION('',(0.,-1.,-1.60622544071927E-16));
#1374=DIRECTION('',(0.,0.,1.));
#1375=DIRECTION('center_axis',(-1.0842021724855E-16,1.60622544071927E-16,
-1.));
#1376=DIRECTION('ref_axis',(0.,1.,1.60622544071927E-16));
#1377=DIRECTION('',(0.,-1.,-1.60622544071927E-16));
#1378=DIRECTION('',(1.,0.,-1.0842021724855E-16));
#1379=DIRECTION('center_axis',(-1.,-6.96589244931726E-32,4.33680868994202E-16));
#1380=DIRECTION('ref_axis',(4.33680868994202E-16,0.,1.));
#1381=DIRECTION('',(0.,-1.,-1.60622544071927E-16));
#1382=DIRECTION('',(-4.33680868994202E-16,0.,-1.));
#1383=DIRECTION('center_axis',(1.0842021724855E-16,-1.60622544071927E-16,
1.));
#1384=DIRECTION('ref_axis',(0.,-1.,-1.60622544071927E-16));
#1385=DIRECTION('',(-1.,0.,1.0842021724855E-16));
#1386=DIRECTION('center_axis',(0.,-1.,0.));
#1387=DIRECTION('ref_axis',(0.,0.,-1.));
#1388=DIRECTION('center_axis',(0.,-1.,0.));
#1389=DIRECTION('ref_axis',(0.,0.,-1.));
#1390=DIRECTION('',(0.,0.,1.));
#1391=DIRECTION('',(1.,0.,-1.0842021724855E-16));
#1392=DIRECTION('',(-4.33680868994202E-16,0.,-1.));
#1393=DIRECTION('',(-1.,0.,1.0842021724855E-16));
#1394=DIRECTION('center_axis',(1.0842021724855E-16,-1.60622544071927E-16,
1.));
#1395=DIRECTION('ref_axis',(0.,-1.,-1.60622544071927E-16));
#1396=DIRECTION('',(0.,-1.,-1.60622544071927E-16));
#1397=DIRECTION('',(0.,-1.,-1.60622544071927E-16));
#1398=DIRECTION('center_axis',(-1.,-6.96589244931726E-32,4.33680868994202E-16));
#1399=DIRECTION('ref_axis',(4.33680868994202E-16,0.,1.));
#1400=DIRECTION('',(0.,-1.,-1.60622544071927E-16));
#1401=DIRECTION('center_axis',(-1.0842021724855E-16,1.60622544071927E-16,
-1.));
#1402=DIRECTION('ref_axis',(0.,1.,1.60622544071927E-16));
#1403=DIRECTION('',(0.,-1.,-1.60622544071927E-16));
#1404=DIRECTION('center_axis',(1.,0.,0.));
#1405=DIRECTION('ref_axis',(0.,0.,-1.));
#1406=DIRECTION('center_axis',(1.,0.,0.));
#1407=DIRECTION('ref_axis',(0.,0.,-1.));
#1408=DIRECTION('',(0.,-1.,-1.60622544071927E-16));
#1409=DIRECTION('',(0.,-1.,-1.60622544071927E-16));
#1410=DIRECTION('',(0.,0.,1.));
#1411=DIRECTION('center_axis',(-1.0842021724855E-16,1.60622544071927E-16,
-1.));
#1412=DIRECTION('ref_axis',(0.,1.,1.60622544071927E-16));
#1413=DIRECTION('',(0.,-1.,-1.60622544071927E-16));
#1414=DIRECTION('',(1.,0.,-1.0842021724855E-16));
#1415=DIRECTION('center_axis',(-1.,-6.96589244931726E-32,4.33680868994202E-16));
#1416=DIRECTION('ref_axis',(4.33680868994202E-16,0.,1.));
#1417=DIRECTION('',(0.,-1.,-1.60622544071927E-16));
#1418=DIRECTION('',(-4.33680868994202E-16,0.,-1.));
#1419=DIRECTION('center_axis',(1.0842021724855E-16,-1.60622544071927E-16,
1.));
#1420=DIRECTION('ref_axis',(0.,-1.,-1.60622544071927E-16));
#1421=DIRECTION('',(-1.,0.,1.0842021724855E-16));
#1422=DIRECTION('center_axis',(0.,-1.,0.));
#1423=DIRECTION('ref_axis',(0.,0.,-1.));
#1424=DIRECTION('center_axis',(0.,1.25704599708464E-16,1.));
#1425=DIRECTION('ref_axis',(0.,-1.,1.25704599708464E-16));
#1426=DIRECTION('',(0.,1.,-1.25704599708464E-16));
#1427=DIRECTION('center_axis',(1.,0.,0.));
#1428=DIRECTION('ref_axis',(0.,0.,-1.));
#1429=DIRECTION('center_axis',(0.,1.25704599708464E-16,1.));
#1430=DIRECTION('ref_axis',(0.,-1.,1.25704599708464E-16));
#1431=DIRECTION('',(0.,1.,-1.25704599708464E-16));
#1432=DIRECTION('center_axis',(-1.,2.47798545627887E-32,1.97127667724637E-16));
#1433=DIRECTION('ref_axis',(1.97127667724637E-16,0.,1.));
#1434=CARTESIAN_POINT('',(0.,0.,0.));
#1435=CARTESIAN_POINT('Origin',(2.5,-5.05,-1.7));
#1436=CARTESIAN_POINT('',(2.5,-3.85,-2.1));
#1437=CARTESIAN_POINT('Origin',(2.5,-3.85,-1.7));
#1438=CARTESIAN_POINT('',(2.5,-5.05,-2.1));
#1439=CARTESIAN_POINT('',(2.5,-5.05,-2.1));
#1440=CARTESIAN_POINT('Origin',(2.5,-5.05,-1.7));
#1441=CARTESIAN_POINT('Origin',(-3.,-3.85,3.1));
#1442=CARTESIAN_POINT('',(3.,-3.85,1.8));
#1443=CARTESIAN_POINT('',(3.,-3.85,-2.2));
#1444=CARTESIAN_POINT('',(3.,-3.85,3.1));
#1445=CARTESIAN_POINT('',(-3.,-3.85,1.8));
#1446=CARTESIAN_POINT('',(3.,-3.85,1.8));
#1447=CARTESIAN_POINT('',(-3.,-3.85,-2.2));
#1448=CARTESIAN_POINT('',(-3.,-3.85,3.1));
#1449=CARTESIAN_POINT('',(-3.,-3.85,-2.2));
#1450=CARTESIAN_POINT('',(0.75,-3.85,0.249999999999999));
#1451=CARTESIAN_POINT('',(0.75,-3.85,-0.250000000000001));
#1452=CARTESIAN_POINT('',(0.75,-3.85,3.1));
#1453=CARTESIAN_POINT('',(1.25,-3.85,0.25));
#1454=CARTESIAN_POINT('',(-3.,-3.85,0.25));
#1455=CARTESIAN_POINT('',(1.25,-3.85,-0.250000000000001));
#1456=CARTESIAN_POINT('',(1.25,-3.85,3.1));
#1457=CARTESIAN_POINT('',(-3.,-3.85,-0.25));
#1458=CARTESIAN_POINT('',(-1.25,-3.85,0.25));
#1459=CARTESIAN_POINT('',(-1.25,-3.85,-0.25));
#1460=CARTESIAN_POINT('',(-1.25,-3.85,3.1));
#1461=CARTESIAN_POINT('',(-0.75,-3.85,0.25));
#1462=CARTESIAN_POINT('',(-3.,-3.85,0.25));
#1463=CARTESIAN_POINT('',(-0.75,-3.85,-0.250000000000001));
#1464=CARTESIAN_POINT('',(-0.749999999999998,-3.85,3.1));
#1465=CARTESIAN_POINT('',(-3.,-3.85,-0.25));
#1466=CARTESIAN_POINT('Origin',(-2.2,-1.95,-1.5));
#1467=CARTESIAN_POINT('',(2.2,-1.95,2.4));
#1468=CARTESIAN_POINT('',(2.2,-1.95,-1.5));
#1469=CARTESIAN_POINT('',(2.2,-1.95,-1.5));
#1470=CARTESIAN_POINT('',(-2.2,-1.95,-1.5));
#1471=CARTESIAN_POINT('',(-2.2,-1.95,-1.5));
#1472=CARTESIAN_POINT('',(-2.2,-1.95,2.4));
#1473=CARTESIAN_POINT('',(-2.2,-1.95,-1.5));
#1474=CARTESIAN_POINT('',(-1.55,-1.95,2.4));
#1475=CARTESIAN_POINT('',(-2.2,-1.95,2.4));
#1476=CARTESIAN_POINT('',(-1.55,-1.95,1.3));
#1477=CARTESIAN_POINT('',(-1.55,-1.95,1.3));
#1478=CARTESIAN_POINT('',(1.55,-1.95,1.3));
#1479=CARTESIAN_POINT('',(-2.2,-1.95,1.3));
#1480=CARTESIAN_POINT('',(1.55,-1.95,2.4));
#1481=CARTESIAN_POINT('',(1.55,-1.95,1.3));
#1482=CARTESIAN_POINT('',(1.55,-1.95,2.4));
#1483=CARTESIAN_POINT('',(0.75,-1.95,-0.25));
#1484=CARTESIAN_POINT('',(0.75,-1.95,0.25));
#1485=CARTESIAN_POINT('',(0.75,-1.95,-1.5));
#1486=CARTESIAN_POINT('',(1.25,-1.95,-0.250000000000001));
#1487=CARTESIAN_POINT('',(-2.2,-1.95,-0.25));
#1488=CARTESIAN_POINT('',(1.25,-1.95,0.25));
#1489=CARTESIAN_POINT('',(1.25,-1.95,-1.5));
#1490=CARTESIAN_POINT('',(-2.2,-1.95,0.25));
#1491=CARTESIAN_POINT('',(-1.25,-1.95,-0.25));
#1492=CARTESIAN_POINT('',(-1.25,-1.95,0.25));
#1493=CARTESIAN_POINT('',(-1.25,-1.95,-1.5));
#1494=CARTESIAN_POINT('',(-0.75,-1.95,-0.250000000000001));
#1495=CARTESIAN_POINT('',(-2.2,-1.95,-0.25));
#1496=CARTESIAN_POINT('',(-0.75,-1.95,0.25));
#1497=CARTESIAN_POINT('',(-0.750000000000001,-1.95,-1.5));
#1498=CARTESIAN_POINT('',(-2.2,-1.95,0.25));
#1499=CARTESIAN_POINT('Origin',(-3.,3.85,3.1));
#1500=CARTESIAN_POINT('',(-2.2,3.85,-1.5));
#1501=CARTESIAN_POINT('',(-1.5,3.85,-1.5));
#1502=CARTESIAN_POINT('',(-2.2,3.85,-1.5));
#1503=CARTESIAN_POINT('',(-1.5,3.85,-2.2));
#1504=CARTESIAN_POINT('',(-1.5,3.85,-2.2));
#1505=CARTESIAN_POINT('',(-3.,3.85,-2.2));
#1506=CARTESIAN_POINT('',(-3.,3.85,-2.2));
#1507=CARTESIAN_POINT('',(-3.,3.85,-0.35));
#1508=CARTESIAN_POINT('',(-3.,3.85,3.1));
#1509=CARTESIAN_POINT('',(-2.2,3.85,-0.35));
#1510=CARTESIAN_POINT('',(3.,3.85,-0.35));
#1511=CARTESIAN_POINT('',(-2.2,3.85,-1.5));
#1512=CARTESIAN_POINT('Origin',(-3.,3.85,3.1));
#1513=CARTESIAN_POINT('',(3.,3.85,-2.2));
#1514=CARTESIAN_POINT('',(1.5,3.85,-2.2));
#1515=CARTESIAN_POINT('',(-3.,3.85,-2.2));
#1516=CARTESIAN_POINT('',(1.5,3.85,-1.5));
#1517=CARTESIAN_POINT('',(1.5,3.85,-2.2));
#1518=CARTESIAN_POINT('',(2.2,3.85,-1.5));
#1519=CARTESIAN_POINT('',(-2.2,3.85,-1.5));
#1520=CARTESIAN_POINT('',(2.2,3.85,-0.35));
#1521=CARTESIAN_POINT('',(2.2,3.85,-1.5));
#1522=CARTESIAN_POINT('',(3.,3.85,-0.35));
#1523=CARTESIAN_POINT('',(3.,3.85,-0.35));
#1524=CARTESIAN_POINT('',(3.,3.85,3.1));
#1525=CARTESIAN_POINT('Origin',(3.,2.05,3.1));
#1526=CARTESIAN_POINT('',(2.2,2.05,-0.35));
#1527=CARTESIAN_POINT('',(2.2,2.05,2.4));
#1528=CARTESIAN_POINT('',(2.2,2.05,3.1));
#1529=CARTESIAN_POINT('',(1.55,2.05,2.4));
#1530=CARTESIAN_POINT('',(1.55,2.05,2.4));
#1531=CARTESIAN_POINT('',(1.55,2.05,1.3));
#1532=CARTESIAN_POINT('',(1.55,2.05,1.3));
#1533=CARTESIAN_POINT('',(-1.55,2.05,1.3));
#1534=CARTESIAN_POINT('',(3.,2.05,1.3));
#1535=CARTESIAN_POINT('',(-1.55,2.05,2.4));
#1536=CARTESIAN_POINT('',(-1.55,2.05,1.3));
#1537=CARTESIAN_POINT('',(-2.2,2.05,2.4));
#1538=CARTESIAN_POINT('',(-2.2,2.05,2.4));
#1539=CARTESIAN_POINT('',(-2.2,2.05,-0.35));
#1540=CARTESIAN_POINT('',(-2.2,2.05,3.1));
#1541=CARTESIAN_POINT('',(-3.,2.05,-0.35));
#1542=CARTESIAN_POINT('',(3.,2.05,-0.35));
#1543=CARTESIAN_POINT('',(-3.,2.05,3.1));
#1544=CARTESIAN_POINT('',(-3.,2.05,3.1));
#1545=CARTESIAN_POINT('',(-1.15,2.05,3.1));
#1546=CARTESIAN_POINT('',(3.,2.05,3.1));
#1547=CARTESIAN_POINT('',(-1.15,2.05,1.8));
#1548=CARTESIAN_POINT('',(-1.15,2.05,-3.07647413609465));
#1549=CARTESIAN_POINT('',(1.15,2.05,1.8));
#1550=CARTESIAN_POINT('',(-1.15,2.05,1.8));
#1551=CARTESIAN_POINT('',(1.15,2.05,3.1));
#1552=CARTESIAN_POINT('',(1.15,2.05,-3.07647413609465));
#1553=CARTESIAN_POINT('',(3.,2.05,3.1));
#1554=CARTESIAN_POINT('',(3.,2.05,3.1));
#1555=CARTESIAN_POINT('',(3.,2.05,-0.35));
#1556=CARTESIAN_POINT('',(3.,2.05,3.1));
#1557=CARTESIAN_POINT('',(3.,2.05,-0.35));
#1558=CARTESIAN_POINT('Origin',(3.,2.05,-0.35));
#1559=CARTESIAN_POINT('',(-2.2,2.05,-0.35));
#1560=CARTESIAN_POINT('',(-3.,2.05,-0.35));
#1561=CARTESIAN_POINT('Origin',(-3.,3.85,3.1));
#1562=CARTESIAN_POINT('',(1.15,-2.25,3.1));
#1563=CARTESIAN_POINT('',(1.15,2.05,3.1));
#1564=CARTESIAN_POINT('',(3.,-2.25,3.1));
#1565=CARTESIAN_POINT('',(3.,-2.25,3.1));
#1566=CARTESIAN_POINT('',(3.,-3.85,3.1));
#1567=CARTESIAN_POINT('Origin',(3.,-2.25,3.1));
#1568=CARTESIAN_POINT('',(1.15,-2.25,1.8));
#1569=CARTESIAN_POINT('',(1.15,-2.25,-3.07647413609465));
#1570=CARTESIAN_POINT('',(3.,-2.25,1.8));
#1571=CARTESIAN_POINT('',(3.,-2.25,1.8));
#1572=CARTESIAN_POINT('',(3.,-2.25,3.1));
#1573=CARTESIAN_POINT('Origin',(-3.,-3.85,3.1));
#1574=CARTESIAN_POINT('',(-3.,-2.25,1.8));
#1575=CARTESIAN_POINT('',(-3.,-2.25,1.8));
#1576=CARTESIAN_POINT('',(-3.,-2.25,3.1));
#1577=CARTESIAN_POINT('',(-3.,-2.25,3.1));
#1578=CARTESIAN_POINT('',(-3.,-3.85,3.1));
#1579=CARTESIAN_POINT('',(-3.,-3.85,-2.2));
#1580=CARTESIAN_POINT('Origin',(3.,-3.85,3.1));
#1581=CARTESIAN_POINT('',(3.,-2.25,1.8));
#1582=CARTESIAN_POINT('',(3.,-3.85,-2.2));
#1583=CARTESIAN_POINT('',(3.,2.05,-0.35));
#1584=CARTESIAN_POINT('Origin',(-3.,3.85,3.1));
#1585=CARTESIAN_POINT('',(-1.15,-2.25,3.1));
#1586=CARTESIAN_POINT('',(3.,-2.25,3.1));
#1587=CARTESIAN_POINT('',(-1.15,2.05,3.1));
#1588=CARTESIAN_POINT('Origin',(-3.,3.85,-2.2));
#1589=CARTESIAN_POINT('',(-1.5,2.55,-2.2));
#1590=CARTESIAN_POINT('',(-1.5,2.55,-2.2));
#1591=CARTESIAN_POINT('',(1.5,2.55,-2.2));
#1592=CARTESIAN_POINT('',(-1.5,2.55,-2.2));
#1593=CARTESIAN_POINT('',(1.5,2.55,-2.2));
#1594=CARTESIAN_POINT('Origin',(3.,2.05,-0.35));
#1595=CARTESIAN_POINT('',(2.2,2.05,-0.35));
#1596=CARTESIAN_POINT('Origin',(3.,-2.25,1.8));
#1597=CARTESIAN_POINT('',(1.15,2.05,1.8));
#1598=CARTESIAN_POINT('',(-1.15,-2.25,1.8));
#1599=CARTESIAN_POINT('',(-1.15,2.05,1.8));
#1600=CARTESIAN_POINT('',(3.,-2.25,1.8));
#1601=CARTESIAN_POINT('',(0.4,1.09,1.8));
#1602=CARTESIAN_POINT('',(-0.4,1.09,1.8));
#1603=CARTESIAN_POINT('',(0.4,1.09,1.8));
#1604=CARTESIAN_POINT('',(0.4,-0.75,1.8));
#1605=CARTESIAN_POINT('',(0.4,-0.75,1.8));
#1606=CARTESIAN_POINT('',(-0.4,-0.75,1.8));
#1607=CARTESIAN_POINT('',(0.4,-0.75,1.8));
#1608=CARTESIAN_POINT('',(-0.4,-0.75,1.8));
#1609=CARTESIAN_POINT('Origin',(3.,-2.25,3.1));
#1610=CARTESIAN_POINT('',(-1.15,-2.25,-3.07647413609465));
#1611=CARTESIAN_POINT('Origin',(1.15,2.05,-3.07647413609465));
#1612=CARTESIAN_POINT('Origin',(-1.15,2.05,-3.07647413609465));
#1613=CARTESIAN_POINT('Origin',(-2.2,-1.95,1.3));
#1614=CARTESIAN_POINT('',(1.55,-3.22769323391806,1.3));
#1615=CARTESIAN_POINT('',(-1.55,-3.22769323391806,1.3));
#1616=CARTESIAN_POINT('Origin',(-2.2,3.85,-1.5));
#1617=CARTESIAN_POINT('',(-2.2,-3.22769323391806,2.4));
#1618=CARTESIAN_POINT('',(-2.2,3.85,-1.5));
#1619=CARTESIAN_POINT('Origin',(2.2,3.85,-1.5));
#1620=CARTESIAN_POINT('',(2.2,3.85,-1.5));
#1621=CARTESIAN_POINT('',(2.2,-3.22769323391806,2.4));
#1622=CARTESIAN_POINT('Origin',(-2.2,3.85,-1.5));
#1623=CARTESIAN_POINT('',(-1.5,2.55,-1.5));
#1624=CARTESIAN_POINT('',(1.5,2.55,-1.5));
#1625=CARTESIAN_POINT('',(-1.5,2.55,-1.5));
#1626=CARTESIAN_POINT('',(-1.5,2.55,-1.5));
#1627=CARTESIAN_POINT('',(1.5,2.55,-1.5));
#1628=CARTESIAN_POINT('Origin',(-1.5,2.55,-2.2));
#1629=CARTESIAN_POINT('',(-1.5,2.55,-2.2));
#1630=CARTESIAN_POINT('Origin',(1.5,2.55,-2.2));
#1631=CARTESIAN_POINT('',(1.5,2.55,-2.2));
#1632=CARTESIAN_POINT('Origin',(-1.5,2.55,-1.5));
#1633=CARTESIAN_POINT('Origin',(0.4,1.09,1.8));
#1634=CARTESIAN_POINT('',(-0.4,1.09,2.4));
#1635=CARTESIAN_POINT('',(-0.4,1.09,1.8));
#1636=CARTESIAN_POINT('',(0.4,1.09,2.4));
#1637=CARTESIAN_POINT('',(0.4,1.09,2.4));
#1638=CARTESIAN_POINT('',(0.4,1.09,1.8));
#1639=CARTESIAN_POINT('Origin',(0.4,1.09,2.4));
#1640=CARTESIAN_POINT('',(-0.4,-0.75,2.4));
#1641=CARTESIAN_POINT('',(-0.4,1.09,2.4));
#1642=CARTESIAN_POINT('',(0.4,-0.75,2.4));
#1643=CARTESIAN_POINT('',(0.4,-0.75,2.4));
#1644=CARTESIAN_POINT('',(0.4,1.09,2.4));
#1645=CARTESIAN_POINT('Origin',(0.4,-0.75,2.4));
#1646=CARTESIAN_POINT('',(-0.4,-0.75,2.4));
#1647=CARTESIAN_POINT('',(0.4,-0.75,2.4));
#1648=CARTESIAN_POINT('Origin',(0.4,1.09,1.8));
#1649=CARTESIAN_POINT('Origin',(-0.4,1.09,1.8));
#1650=CARTESIAN_POINT('Origin',(2.5,-5.05,-1.7));
#1651=CARTESIAN_POINT('Origin',(-1.25,1.25,0.25));
#1652=CARTESIAN_POINT('',(-1.25,1.25,-0.25));
#1653=CARTESIAN_POINT('',(-1.25,1.25,0.25));
#1654=CARTESIAN_POINT('',(-1.25,1.25,0.25));
#1655=CARTESIAN_POINT('',(-0.75,1.25,0.25));
#1656=CARTESIAN_POINT('',(-1.25,1.25,0.25));
#1657=CARTESIAN_POINT('',(-0.75,1.25,-0.25));
#1658=CARTESIAN_POINT('',(-0.75,1.25,0.25));
#1659=CARTESIAN_POINT('',(-1.25,1.25,-0.25));
#1660=CARTESIAN_POINT('Origin',(-1.25,1.25,-0.25));
#1661=CARTESIAN_POINT('',(-0.75,1.25,-0.25));
#1662=CARTESIAN_POINT('',(-1.25,1.25,-0.25));
#1663=CARTESIAN_POINT('Origin',(-0.75,1.25,0.25));
#1664=CARTESIAN_POINT('',(-0.75,1.25,0.25));
#1665=CARTESIAN_POINT('Origin',(-1.25,1.25,0.25));
#1666=CARTESIAN_POINT('',(-1.25,1.25,0.25));
#1667=CARTESIAN_POINT('Origin',(-1.25,1.25,0.25));
#1668=CARTESIAN_POINT('Origin',(-1.25,1.25,0.25));
#1669=CARTESIAN_POINT('',(-1.25,-6.85,0.249999999999999));
#1670=CARTESIAN_POINT('',(-1.25,1.25,0.25));
#1671=CARTESIAN_POINT('',(-1.25,-6.85,-0.250000000000001));
#1672=CARTESIAN_POINT('',(-1.25,1.25,-0.25));
#1673=CARTESIAN_POINT('',(-1.25,-6.85,0.249999999999999));
#1674=CARTESIAN_POINT('Origin',(-1.25,1.25,0.25));
#1675=CARTESIAN_POINT('',(-0.75,-6.85,0.249999999999999));
#1676=CARTESIAN_POINT('',(-0.75,1.25,0.25));
#1677=CARTESIAN_POINT('',(-1.25,-6.85,0.249999999999999));
#1678=CARTESIAN_POINT('Origin',(-0.75,1.25,0.25));
#1679=CARTESIAN_POINT('',(-0.75,-6.85,-0.250000000000001));
#1680=CARTESIAN_POINT('',(-0.75,1.25,-0.25));
#1681=CARTESIAN_POINT('',(-0.75,-6.85,0.249999999999999));
#1682=CARTESIAN_POINT('Origin',(-1.25,1.25,-0.25));
#1683=CARTESIAN_POINT('',(-1.25,-6.85,-0.250000000000001));
#1684=CARTESIAN_POINT('Origin',(-1.25,-6.85,0.249999999999999));
#1685=CARTESIAN_POINT('Origin',(0.75,1.25,0.25));
#1686=CARTESIAN_POINT('',(0.75,1.25,-0.25));
#1687=CARTESIAN_POINT('',(0.75,1.25,0.25));
#1688=CARTESIAN_POINT('',(0.75,1.25,0.25));
#1689=CARTESIAN_POINT('',(1.25,1.25,0.25));
#1690=CARTESIAN_POINT('',(0.75,1.25,0.25));
#1691=CARTESIAN_POINT('',(1.25,1.25,-0.25));
#1692=CARTESIAN_POINT('',(1.25,1.25,0.25));
#1693=CARTESIAN_POINT('',(0.75,1.25,-0.25));
#1694=CARTESIAN_POINT('Origin',(0.75,1.25,-0.25));
#1695=CARTESIAN_POINT('',(1.25,1.25,-0.25));
#1696=CARTESIAN_POINT('',(0.75,1.25,-0.25));
#1697=CARTESIAN_POINT('Origin',(1.25,1.25,0.25));
#1698=CARTESIAN_POINT('',(1.25,1.25,0.25));
#1699=CARTESIAN_POINT('Origin',(0.75,1.25,0.25));
#1700=CARTESIAN_POINT('',(0.75,1.25,0.25));
#1701=CARTESIAN_POINT('Origin',(0.75,1.25,0.25));
#1702=CARTESIAN_POINT('Origin',(0.75,1.25,0.25));
#1703=CARTESIAN_POINT('',(0.75,-6.85,0.249999999999999));
#1704=CARTESIAN_POINT('',(0.75,1.25,0.25));
#1705=CARTESIAN_POINT('',(0.75,-6.85,-0.250000000000001));
#1706=CARTESIAN_POINT('',(0.75,1.25,-0.25));
#1707=CARTESIAN_POINT('',(0.75,-6.85,0.249999999999999));
#1708=CARTESIAN_POINT('Origin',(0.75,1.25,0.25));
#1709=CARTESIAN_POINT('',(1.25,-6.85,0.249999999999999));
#1710=CARTESIAN_POINT('',(1.25,1.25,0.25));
#1711=CARTESIAN_POINT('',(0.75,-6.85,0.249999999999999));
#1712=CARTESIAN_POINT('Origin',(1.25,1.25,0.25));
#1713=CARTESIAN_POINT('',(1.25,-6.85,-0.250000000000001));
#1714=CARTESIAN_POINT('',(1.25,1.25,-0.25));
#1715=CARTESIAN_POINT('',(1.25,-6.85,0.249999999999999));
#1716=CARTESIAN_POINT('Origin',(0.75,1.25,-0.25));
#1717=CARTESIAN_POINT('',(0.75,-6.85,-0.250000000000001));
#1718=CARTESIAN_POINT('Origin',(0.75,-6.85,0.249999999999999));
#1719=CARTESIAN_POINT('Origin',(-2.2,-3.22769323391806,2.4));
#1720=CARTESIAN_POINT('',(-1.55,-3.22769323391806,2.4));
#1721=CARTESIAN_POINT('Origin',(-1.55,-3.22769323391806,1.3));
#1722=CARTESIAN_POINT('Origin',(1.55,-3.22769323391806,2.4));
#1723=CARTESIAN_POINT('',(1.55,-3.22769323391806,2.4));
#1724=CARTESIAN_POINT('Origin',(1.55,-3.22769323391806,1.3));
#1725=UNCERTAINTY_MEASURE_WITH_UNIT(LENGTH_MEASURE(0.01),#1729,
'DISTANCE_ACCURACY_VALUE',
'Maximum model space distance between geometric entities at asserted c
onnectivities');
#1726=UNCERTAINTY_MEASURE_WITH_UNIT(LENGTH_MEASURE(0.01),#1729,
'DISTANCE_ACCURACY_VALUE',
'Maximum model space distance between geometric entities at asserted c
onnectivities');
#1727=(
GEOMETRIC_REPRESENTATION_CONTEXT(3)
GLOBAL_UNCERTAINTY_ASSIGNED_CONTEXT((#1725))
GLOBAL_UNIT_ASSIGNED_CONTEXT((#1729,#1731,#1732))
REPRESENTATION_CONTEXT('','3D')
);
#1728=(
GEOMETRIC_REPRESENTATION_CONTEXT(3)
GLOBAL_UNCERTAINTY_ASSIGNED_CONTEXT((#1726))
GLOBAL_UNIT_ASSIGNED_CONTEXT((#1729,#1731,#1732))
REPRESENTATION_CONTEXT('','3D')
);
#1729=(
LENGTH_UNIT()
NAMED_UNIT(*)
SI_UNIT(.MILLI.,.METRE.)
);
#1730=(
LENGTH_UNIT()
NAMED_UNIT(*)
SI_UNIT(.CENTI.,.METRE.)
);
#1731=(
NAMED_UNIT(*)
PLANE_ANGLE_UNIT()
SI_UNIT($,.RADIAN.)
);
#1732=(
NAMED_UNIT(*)
SI_UNIT($,.STERADIAN.)
SOLID_ANGLE_UNIT()
);
#1733=SHAPE_DEFINITION_REPRESENTATION(#1734,#1735);
#1734=PRODUCT_DEFINITION_SHAPE('',$,#1737);
#1735=SHAPE_REPRESENTATION('',(#1121),#1727);
#1736=PRODUCT_DEFINITION_CONTEXT('part definition',#1741,'design');
#1737=PRODUCT_DEFINITION('B02B-PASK-1','B02B-PASK-1',#1738,#1736);
#1738=PRODUCT_DEFINITION_FORMATION('ANY',$,#1743);
#1739=PRODUCT_RELATED_PRODUCT_CATEGORY('B02B-PASK-1','B02B-PASK-1',(#1743));
#1740=APPLICATION_PROTOCOL_DEFINITION('international standard',
'automotive_design',2009,#1741);
#1741=APPLICATION_CONTEXT(
'Core Data for Automotive Mechanical Design Process');
#1742=PRODUCT_CONTEXT('part definition',#1741,'mechanical');
#1743=PRODUCT('B02B-PASK-1','B02B-PASK-1','STEP AP214',(#1742));
#1744=PRESENTATION_STYLE_ASSIGNMENT((#1747));
#1745=PRESENTATION_STYLE_ASSIGNMENT((#1748));
#1746=PRESENTATION_STYLE_ASSIGNMENT((#1749));
#1747=SURFACE_STYLE_USAGE(.BOTH.,#1756);
#1748=SURFACE_STYLE_USAGE(.BOTH.,#1757);
#1749=SURFACE_STYLE_USAGE(.BOTH.,#1758);
#1750=SURFACE_STYLE_RENDERING_WITH_PROPERTIES($,#1768,(#1753));
#1751=SURFACE_STYLE_RENDERING_WITH_PROPERTIES($,#1769,(#1754));
#1752=SURFACE_STYLE_RENDERING_WITH_PROPERTIES($,#1770,(#1755));
#1753=SURFACE_STYLE_TRANSPARENT(0.);
#1754=SURFACE_STYLE_TRANSPARENT(0.);
#1755=SURFACE_STYLE_TRANSPARENT(0.);
#1756=SURFACE_SIDE_STYLE('',(#1759,#1750));
#1757=SURFACE_SIDE_STYLE('',(#1760,#1751));
#1758=SURFACE_SIDE_STYLE('',(#1761,#1752));
#1759=SURFACE_STYLE_FILL_AREA(#1762);
#1760=SURFACE_STYLE_FILL_AREA(#1763);
#1761=SURFACE_STYLE_FILL_AREA(#1764);
#1762=FILL_AREA_STYLE('',(#1765));
#1763=FILL_AREA_STYLE('',(#1766));
#1764=FILL_AREA_STYLE('',(#1767));
#1765=FILL_AREA_STYLE_COLOUR('',#1768);
#1766=FILL_AREA_STYLE_COLOUR('',#1769);
#1767=FILL_AREA_STYLE_COLOUR('',#1770);
#1768=COLOUR_RGB('',0.,0.,0.752941176470588);
#1769=COLOUR_RGB('',0.945098039215686,0.949019607843137,0.972549019607843);
#1770=COLOUR_RGB('',0.996078431372549,0.996078431372549,1.);
ENDSEC;
END-ISO-10303-21;
