ISO-10303-21;
HEADER;
/* Generated by software containing ST-Developer
 * from STEP Tools, Inc. (www.steptools.com) 
 */

FILE_DESCRIPTION(
/* description */ ('STEP AP214'),
/* implementation_level */ '2;1');

FILE_NAME(
/* name */ 'B03B-PASK-1_Fixed.stp',
/* time_stamp */ '2025-04-18T10:12:04-05:00',
/* author */ ('barre'),
/* organization */ (' '),
/* preprocessor_version */ 'ST-DEVELOPER v20',
/* originating_system */ 'Autodesk Inventor 2025',
/* authorisation */ '');

FILE_SCHEMA (('AUTOMOTIVE_DESIGN { 1 0 10303 214 3 1 1 }'));
ENDSEC;

DATA;
#10=MECHANICAL_DESIGN_GEOMETRIC_PRESENTATION_REPRESENTATION('',(#1078,#1079,
#1080,#1081,#1082,#1083,#1084,#1085,#1086,#1087,#1088,#1089,#1090,#1091,
#1092,#1093,#1094,#1095,#1096,#1097,#1098,#1099,#1100,#1101,#1102,#1103,
#1104,#1105,#1106,#1107,#1108,#1109,#1110,#1111,#1112,#1113,#1114,#1115,
#1116,#1117,#1118,#1119,#1120,#1121,#1122,#1123,#1124,#1125,#1126,#1127,
#1128,#1129,#1130,#1131,#1132,#1133,#1134,#1135,#1136,#1137,#1138,#1139),
#1886);
#11=SHAPE_REPRESENTATION_RELATIONSHIP('SRR','None',#1893,#12);
#12=ADVANCED_BREP_SHAPE_REPRESENTATION('',(#13),#1885);
#13=MANIFOLD_SOLID_BREP('Solid1',#1201);
#14=CYLINDRICAL_SURFACE('',#1231,0.4);
#15=CIRCLE('',#1226,0.4);
#16=CIRCLE('',#1232,0.4);
#17=FACE_BOUND('',#88,.T.);
#18=FACE_BOUND('',#89,.T.);
#19=FACE_BOUND('',#90,.T.);
#20=FACE_BOUND('',#91,.T.);
#21=FACE_BOUND('',#103,.T.);
#22=FACE_BOUND('',#137,.T.);
#23=FACE_BOUND('',#138,.T.);
#24=FACE_BOUND('',#139,.T.);
#25=FACE_OUTER_BOUND('',#86,.T.);
#26=FACE_OUTER_BOUND('',#87,.T.);
#27=FACE_OUTER_BOUND('',#92,.T.);
#28=FACE_OUTER_BOUND('',#93,.T.);
#29=FACE_OUTER_BOUND('',#94,.T.);
#30=FACE_OUTER_BOUND('',#95,.T.);
#31=FACE_OUTER_BOUND('',#96,.T.);
#32=FACE_OUTER_BOUND('',#97,.T.);
#33=FACE_OUTER_BOUND('',#98,.T.);
#34=FACE_OUTER_BOUND('',#99,.T.);
#35=FACE_OUTER_BOUND('',#100,.T.);
#36=FACE_OUTER_BOUND('',#101,.T.);
#37=FACE_OUTER_BOUND('',#102,.T.);
#38=FACE_OUTER_BOUND('',#104,.T.);
#39=FACE_OUTER_BOUND('',#105,.T.);
#40=FACE_OUTER_BOUND('',#106,.T.);
#41=FACE_OUTER_BOUND('',#107,.T.);
#42=FACE_OUTER_BOUND('',#108,.T.);
#43=FACE_OUTER_BOUND('',#109,.T.);
#44=FACE_OUTER_BOUND('',#110,.T.);
#45=FACE_OUTER_BOUND('',#111,.T.);
#46=FACE_OUTER_BOUND('',#112,.T.);
#47=FACE_OUTER_BOUND('',#113,.T.);
#48=FACE_OUTER_BOUND('',#114,.T.);
#49=FACE_OUTER_BOUND('',#115,.T.);
#50=FACE_OUTER_BOUND('',#116,.T.);
#51=FACE_OUTER_BOUND('',#117,.T.);
#52=FACE_OUTER_BOUND('',#118,.T.);
#53=FACE_OUTER_BOUND('',#119,.T.);
#54=FACE_OUTER_BOUND('',#120,.T.);
#55=FACE_OUTER_BOUND('',#121,.T.);
#56=FACE_OUTER_BOUND('',#122,.T.);
#57=FACE_OUTER_BOUND('',#123,.T.);
#58=FACE_OUTER_BOUND('',#124,.T.);
#59=FACE_OUTER_BOUND('',#125,.T.);
#60=FACE_OUTER_BOUND('',#126,.T.);
#61=FACE_OUTER_BOUND('',#127,.T.);
#62=FACE_OUTER_BOUND('',#128,.T.);
#63=FACE_OUTER_BOUND('',#129,.T.);
#64=FACE_OUTER_BOUND('',#130,.T.);
#65=FACE_OUTER_BOUND('',#131,.T.);
#66=FACE_OUTER_BOUND('',#132,.T.);
#67=FACE_OUTER_BOUND('',#133,.T.);
#68=FACE_OUTER_BOUND('',#134,.T.);
#69=FACE_OUTER_BOUND('',#135,.T.);
#70=FACE_OUTER_BOUND('',#136,.T.);
#71=FACE_OUTER_BOUND('',#140,.T.);
#72=FACE_OUTER_BOUND('',#141,.T.);
#73=FACE_OUTER_BOUND('',#142,.T.);
#74=FACE_OUTER_BOUND('',#143,.T.);
#75=FACE_OUTER_BOUND('',#144,.T.);
#76=FACE_OUTER_BOUND('',#145,.T.);
#77=FACE_OUTER_BOUND('',#146,.T.);
#78=FACE_OUTER_BOUND('',#147,.T.);
#79=FACE_OUTER_BOUND('',#148,.T.);
#80=FACE_OUTER_BOUND('',#149,.T.);
#81=FACE_OUTER_BOUND('',#150,.T.);
#82=FACE_OUTER_BOUND('',#151,.T.);
#83=FACE_OUTER_BOUND('',#152,.T.);
#84=FACE_OUTER_BOUND('',#153,.T.);
#85=FACE_OUTER_BOUND('',#154,.T.);
#86=EDGE_LOOP('',(#712,#713,#714,#715));
#87=EDGE_LOOP('',(#716,#717,#718,#719));
#88=EDGE_LOOP('',(#720,#721,#722,#723));
#89=EDGE_LOOP('',(#724,#725,#726,#727));
#90=EDGE_LOOP('',(#728,#729,#730,#731));
#91=EDGE_LOOP('',(#732));
#92=EDGE_LOOP('',(#733,#734,#735,#736));
#93=EDGE_LOOP('',(#737,#738,#739,#740));
#94=EDGE_LOOP('',(#741,#742,#743,#744));
#95=EDGE_LOOP('',(#745,#746,#747,#748));
#96=EDGE_LOOP('',(#749,#750,#751,#752));
#97=EDGE_LOOP('',(#753,#754,#755,#756));
#98=EDGE_LOOP('',(#757,#758,#759,#760));
#99=EDGE_LOOP('',(#761,#762,#763,#764));
#100=EDGE_LOOP('',(#765,#766,#767,#768));
#101=EDGE_LOOP('',(#769,#770,#771,#772,#773,#774,#775,#776));
#102=EDGE_LOOP('',(#777,#778,#779,#780,#781,#782,#783,#784));
#103=EDGE_LOOP('',(#785,#786,#787,#788));
#104=EDGE_LOOP('',(#789,#790,#791,#792));
#105=EDGE_LOOP('',(#793,#794,#795,#796));
#106=EDGE_LOOP('',(#797,#798,#799,#800));
#107=EDGE_LOOP('',(#801,#802,#803,#804));
#108=EDGE_LOOP('',(#805,#806,#807,#808,#809,#810,#811,#812));
#109=EDGE_LOOP('',(#813,#814,#815,#816,#817,#818,#819,#820));
#110=EDGE_LOOP('',(#821,#822,#823,#824));
#111=EDGE_LOOP('',(#825));
#112=EDGE_LOOP('',(#826,#827,#828,#829));
#113=EDGE_LOOP('',(#830,#831,#832,#833));
#114=EDGE_LOOP('',(#834,#835,#836,#837));
#115=EDGE_LOOP('',(#838,#839,#840,#841,#842,#843));
#116=EDGE_LOOP('',(#844,#845,#846,#847));
#117=EDGE_LOOP('',(#848,#849,#850,#851,#852,#853));
#118=EDGE_LOOP('',(#854,#855,#856,#857));
#119=EDGE_LOOP('',(#858,#859,#860,#861,#862,#863,#864,#865,#866,#867,#868,
#869));
#120=EDGE_LOOP('',(#870,#871,#872,#873));
#121=EDGE_LOOP('',(#874,#875,#876,#877));
#122=EDGE_LOOP('',(#878,#879,#880,#881));
#123=EDGE_LOOP('',(#882,#883,#884,#885));
#124=EDGE_LOOP('',(#886,#887,#888,#889));
#125=EDGE_LOOP('',(#890,#891,#892,#893));
#126=EDGE_LOOP('',(#894,#895,#896,#897));
#127=EDGE_LOOP('',(#898,#899,#900,#901));
#128=EDGE_LOOP('',(#902,#903,#904,#905));
#129=EDGE_LOOP('',(#906,#907,#908,#909));
#130=EDGE_LOOP('',(#910,#911,#912,#913));
#131=EDGE_LOOP('',(#914,#915,#916,#917,#918,#919,#920,#921));
#132=EDGE_LOOP('',(#922,#923,#924,#925,#926,#927));
#133=EDGE_LOOP('',(#928,#929,#930,#931,#932,#933));
#134=EDGE_LOOP('',(#934,#935,#936,#937));
#135=EDGE_LOOP('',(#938,#939,#940,#941));
#136=EDGE_LOOP('',(#942,#943,#944,#945));
#137=EDGE_LOOP('',(#946,#947,#948,#949));
#138=EDGE_LOOP('',(#950,#951,#952,#953));
#139=EDGE_LOOP('',(#954,#955,#956,#957));
#140=EDGE_LOOP('',(#958,#959,#960,#961));
#141=EDGE_LOOP('',(#962,#963,#964,#965));
#142=EDGE_LOOP('',(#966,#967,#968,#969));
#143=EDGE_LOOP('',(#970,#971,#972,#973));
#144=EDGE_LOOP('',(#974,#975,#976,#977));
#145=EDGE_LOOP('',(#978,#979,#980,#981));
#146=EDGE_LOOP('',(#982,#983,#984,#985));
#147=EDGE_LOOP('',(#986,#987,#988,#989));
#148=EDGE_LOOP('',(#990,#991,#992,#993));
#149=EDGE_LOOP('',(#994,#995,#996,#997));
#150=EDGE_LOOP('',(#998,#999,#1000,#1001));
#151=EDGE_LOOP('',(#1002,#1003,#1004,#1005));
#152=EDGE_LOOP('',(#1006,#1007,#1008,#1009));
#153=EDGE_LOOP('',(#1010,#1011,#1012,#1013));
#154=EDGE_LOOP('',(#1014,#1015,#1016,#1017));
#155=LINE('',#1570,#306);
#156=LINE('',#1572,#307);
#157=LINE('',#1574,#308);
#158=LINE('',#1575,#309);
#159=LINE('',#1579,#310);
#160=LINE('',#1581,#311);
#161=LINE('',#1583,#312);
#162=LINE('',#1584,#313);
#163=LINE('',#1587,#314);
#164=LINE('',#1589,#315);
#165=LINE('',#1591,#316);
#166=LINE('',#1592,#317);
#167=LINE('',#1595,#318);
#168=LINE('',#1597,#319);
#169=LINE('',#1599,#320);
#170=LINE('',#1600,#321);
#171=LINE('',#1602,#322);
#172=LINE('',#1604,#323);
#173=LINE('',#1605,#324);
#174=LINE('',#1610,#325);
#175=LINE('',#1612,#326);
#176=LINE('',#1613,#327);
#177=LINE('',#1615,#328);
#178=LINE('',#1617,#329);
#179=LINE('',#1620,#330);
#180=LINE('',#1622,#331);
#181=LINE('',#1623,#332);
#182=LINE('',#1626,#333);
#183=LINE('',#1630,#334);
#184=LINE('',#1631,#335);
#185=LINE('',#1634,#336);
#186=LINE('',#1636,#337);
#187=LINE('',#1637,#338);
#188=LINE('',#1640,#339);
#189=LINE('',#1641,#340);
#190=LINE('',#1644,#341);
#191=LINE('',#1645,#342);
#192=LINE('',#1649,#343);
#193=LINE('',#1651,#344);
#194=LINE('',#1653,#345);
#195=LINE('',#1655,#346);
#196=LINE('',#1656,#347);
#197=LINE('',#1658,#348);
#198=LINE('',#1659,#349);
#199=LINE('',#1662,#350);
#200=LINE('',#1664,#351);
#201=LINE('',#1666,#352);
#202=LINE('',#1668,#353);
#203=LINE('',#1670,#354);
#204=LINE('',#1672,#355);
#205=LINE('',#1673,#356);
#206=LINE('',#1676,#357);
#207=LINE('',#1678,#358);
#208=LINE('',#1680,#359);
#209=LINE('',#1681,#360);
#210=LINE('',#1684,#361);
#211=LINE('',#1685,#362);
#212=LINE('',#1687,#363);
#213=LINE('',#1689,#364);
#214=LINE('',#1693,#365);
#215=LINE('',#1695,#366);
#216=LINE('',#1697,#367);
#217=LINE('',#1699,#368);
#218=LINE('',#1700,#369);
#219=LINE('',#1703,#370);
#220=LINE('',#1705,#371);
#221=LINE('',#1707,#372);
#222=LINE('',#1709,#373);
#223=LINE('',#1710,#374);
#224=LINE('',#1716,#375);
#225=LINE('',#1718,#376);
#226=LINE('',#1719,#377);
#227=LINE('',#1722,#378);
#228=LINE('',#1723,#379);
#229=LINE('',#1726,#380);
#230=LINE('',#1728,#381);
#231=LINE('',#1729,#382);
#232=LINE('',#1732,#383);
#233=LINE('',#1733,#384);
#234=LINE('',#1736,#385);
#235=LINE('',#1738,#386);
#236=LINE('',#1739,#387);
#237=LINE('',#1742,#388);
#238=LINE('',#1744,#389);
#239=LINE('',#1745,#390);
#240=LINE('',#1749,#391);
#241=LINE('',#1750,#392);
#242=LINE('',#1751,#393);
#243=LINE('',#1753,#394);
#244=LINE('',#1754,#395);
#245=LINE('',#1756,#396);
#246=LINE('',#1758,#397);
#247=LINE('',#1759,#398);
#248=LINE('',#1762,#399);
#249=LINE('',#1764,#400);
#250=LINE('',#1765,#401);
#251=LINE('',#1768,#402);
#252=LINE('',#1769,#403);
#253=LINE('',#1772,#404);
#254=LINE('',#1773,#405);
#255=LINE('',#1775,#406);
#256=LINE('',#1778,#407);
#257=LINE('',#1779,#408);
#258=LINE('',#1781,#409);
#259=LINE('',#1783,#410);
#260=LINE('',#1785,#411);
#261=LINE('',#1789,#412);
#262=LINE('',#1792,#413);
#263=LINE('',#1794,#414);
#264=LINE('',#1795,#415);
#265=LINE('',#1798,#416);
#266=LINE('',#1799,#417);
#267=LINE('',#1802,#418);
#268=LINE('',#1803,#419);
#269=LINE('',#1805,#420);
#270=LINE('',#1810,#421);
#271=LINE('',#1812,#422);
#272=LINE('',#1814,#423);
#273=LINE('',#1815,#424);
#274=LINE('',#1818,#425);
#275=LINE('',#1820,#426);
#276=LINE('',#1822,#427);
#277=LINE('',#1823,#428);
#278=LINE('',#1826,#429);
#279=LINE('',#1828,#430);
#280=LINE('',#1830,#431);
#281=LINE('',#1831,#432);
#282=LINE('',#1834,#433);
#283=LINE('',#1836,#434);
#284=LINE('',#1837,#435);
#285=LINE('',#1840,#436);
#286=LINE('',#1841,#437);
#287=LINE('',#1844,#438);
#288=LINE('',#1846,#439);
#289=LINE('',#1847,#440);
#290=LINE('',#1850,#441);
#291=LINE('',#1852,#442);
#292=LINE('',#1853,#443);
#293=LINE('',#1856,#444);
#294=LINE('',#1858,#445);
#295=LINE('',#1859,#446);
#296=LINE('',#1862,#447);
#297=LINE('',#1863,#448);
#298=LINE('',#1865,#449);
#299=LINE('',#1868,#450);
#300=LINE('',#1870,#451);
#301=LINE('',#1871,#452);
#302=LINE('',#1873,#453);
#303=LINE('',#1875,#454);
#304=LINE('',#1877,#455);
#305=LINE('',#1879,#456);
#306=VECTOR('',#1291,1000.);
#307=VECTOR('',#1292,1000.);
#308=VECTOR('',#1293,1000.);
#309=VECTOR('',#1294,1000.);
#310=VECTOR('',#1297,1000.);
#311=VECTOR('',#1298,1000.);
#312=VECTOR('',#1299,1000.);
#313=VECTOR('',#1300,1000.);
#314=VECTOR('',#1301,1000.);
#315=VECTOR('',#1302,1000.);
#316=VECTOR('',#1303,1000.);
#317=VECTOR('',#1304,1000.);
#318=VECTOR('',#1305,1000.);
#319=VECTOR('',#1306,1000.);
#320=VECTOR('',#1307,1000.);
#321=VECTOR('',#1308,1000.);
#322=VECTOR('',#1309,1000.);
#323=VECTOR('',#1310,1000.);
#324=VECTOR('',#1311,1000.);
#325=VECTOR('',#1316,1000.);
#326=VECTOR('',#1317,1000.);
#327=VECTOR('',#1318,1000.);
#328=VECTOR('',#1321,1000.);
#329=VECTOR('',#1324,1000.);
#330=VECTOR('',#1327,1000.);
#331=VECTOR('',#1328,1000.);
#332=VECTOR('',#1329,1000.);
#333=VECTOR('',#1332,0.4);
#334=VECTOR('',#1337,1000.);
#335=VECTOR('',#1338,1000.);
#336=VECTOR('',#1341,1000.);
#337=VECTOR('',#1342,1000.);
#338=VECTOR('',#1343,1000.);
#339=VECTOR('',#1346,1000.);
#340=VECTOR('',#1347,1000.);
#341=VECTOR('',#1350,1000.);
#342=VECTOR('',#1351,1000.);
#343=VECTOR('',#1354,1000.);
#344=VECTOR('',#1355,1000.);
#345=VECTOR('',#1356,1000.);
#346=VECTOR('',#1357,1000.);
#347=VECTOR('',#1358,1000.);
#348=VECTOR('',#1359,1000.);
#349=VECTOR('',#1360,1000.);
#350=VECTOR('',#1363,1000.);
#351=VECTOR('',#1364,1000.);
#352=VECTOR('',#1365,1000.);
#353=VECTOR('',#1366,1000.);
#354=VECTOR('',#1367,1000.);
#355=VECTOR('',#1368,1000.);
#356=VECTOR('',#1369,1000.);
#357=VECTOR('',#1370,1000.);
#358=VECTOR('',#1371,1000.);
#359=VECTOR('',#1372,1000.);
#360=VECTOR('',#1373,1000.);
#361=VECTOR('',#1376,1000.);
#362=VECTOR('',#1377,1000.);
#363=VECTOR('',#1380,1000.);
#364=VECTOR('',#1383,1000.);
#365=VECTOR('',#1388,1000.);
#366=VECTOR('',#1389,1000.);
#367=VECTOR('',#1390,1000.);
#368=VECTOR('',#1391,1000.);
#369=VECTOR('',#1392,1000.);
#370=VECTOR('',#1395,1000.);
#371=VECTOR('',#1396,1000.);
#372=VECTOR('',#1397,1000.);
#373=VECTOR('',#1398,1000.);
#374=VECTOR('',#1399,1000.);
#375=VECTOR('',#1408,1000.);
#376=VECTOR('',#1409,1000.);
#377=VECTOR('',#1410,1000.);
#378=VECTOR('',#1413,1000.);
#379=VECTOR('',#1414,1000.);
#380=VECTOR('',#1417,1000.);
#381=VECTOR('',#1418,1000.);
#382=VECTOR('',#1419,1000.);
#383=VECTOR('',#1422,1000.);
#384=VECTOR('',#1423,1000.);
#385=VECTOR('',#1426,1000.);
#386=VECTOR('',#1427,1000.);
#387=VECTOR('',#1428,1000.);
#388=VECTOR('',#1431,1000.);
#389=VECTOR('',#1432,1000.);
#390=VECTOR('',#1433,1000.);
#391=VECTOR('',#1436,1000.);
#392=VECTOR('',#1437,1000.);
#393=VECTOR('',#1438,1000.);
#394=VECTOR('',#1439,1000.);
#395=VECTOR('',#1440,1000.);
#396=VECTOR('',#1441,1000.);
#397=VECTOR('',#1442,1000.);
#398=VECTOR('',#1443,1000.);
#399=VECTOR('',#1446,1000.);
#400=VECTOR('',#1447,1000.);
#401=VECTOR('',#1448,1000.);
#402=VECTOR('',#1451,1000.);
#403=VECTOR('',#1452,1000.);
#404=VECTOR('',#1455,1000.);
#405=VECTOR('',#1456,1000.);
#406=VECTOR('',#1459,1000.);
#407=VECTOR('',#1462,1000.);
#408=VECTOR('',#1463,1000.);
#409=VECTOR('',#1466,1000.);
#410=VECTOR('',#1469,1000.);
#411=VECTOR('',#1472,1000.);
#412=VECTOR('',#1479,1000.);
#413=VECTOR('',#1482,1000.);
#414=VECTOR('',#1483,1000.);
#415=VECTOR('',#1484,1000.);
#416=VECTOR('',#1487,1000.);
#417=VECTOR('',#1488,1000.);
#418=VECTOR('',#1491,1000.);
#419=VECTOR('',#1492,1000.);
#420=VECTOR('',#1495,1000.);
#421=VECTOR('',#1500,1000.);
#422=VECTOR('',#1501,1000.);
#423=VECTOR('',#1502,1000.);
#424=VECTOR('',#1503,1000.);
#425=VECTOR('',#1504,1000.);
#426=VECTOR('',#1505,1000.);
#427=VECTOR('',#1506,1000.);
#428=VECTOR('',#1507,1000.);
#429=VECTOR('',#1508,1000.);
#430=VECTOR('',#1509,1000.);
#431=VECTOR('',#1510,1000.);
#432=VECTOR('',#1511,1000.);
#433=VECTOR('',#1514,1000.);
#434=VECTOR('',#1515,1000.);
#435=VECTOR('',#1516,1000.);
#436=VECTOR('',#1519,1000.);
#437=VECTOR('',#1520,1000.);
#438=VECTOR('',#1523,1000.);
#439=VECTOR('',#1524,1000.);
#440=VECTOR('',#1525,1000.);
#441=VECTOR('',#1528,1000.);
#442=VECTOR('',#1529,1000.);
#443=VECTOR('',#1530,1000.);
#444=VECTOR('',#1533,1000.);
#445=VECTOR('',#1534,1000.);
#446=VECTOR('',#1535,1000.);
#447=VECTOR('',#1538,1000.);
#448=VECTOR('',#1539,1000.);
#449=VECTOR('',#1542,1000.);
#450=VECTOR('',#1545,1000.);
#451=VECTOR('',#1546,1000.);
#452=VECTOR('',#1547,1000.);
#453=VECTOR('',#1550,1000.);
#454=VECTOR('',#1553,1000.);
#455=VECTOR('',#1556,1000.);
#456=VECTOR('',#1559,1000.);
#457=VERTEX_POINT('',#1568);
#458=VERTEX_POINT('',#1569);
#459=VERTEX_POINT('',#1571);
#460=VERTEX_POINT('',#1573);
#461=VERTEX_POINT('',#1577);
#462=VERTEX_POINT('',#1578);
#463=VERTEX_POINT('',#1580);
#464=VERTEX_POINT('',#1582);
#465=VERTEX_POINT('',#1585);
#466=VERTEX_POINT('',#1586);
#467=VERTEX_POINT('',#1588);
#468=VERTEX_POINT('',#1590);
#469=VERTEX_POINT('',#1593);
#470=VERTEX_POINT('',#1594);
#471=VERTEX_POINT('',#1596);
#472=VERTEX_POINT('',#1598);
#473=VERTEX_POINT('',#1601);
#474=VERTEX_POINT('',#1603);
#475=VERTEX_POINT('',#1606);
#476=VERTEX_POINT('',#1609);
#477=VERTEX_POINT('',#1611);
#478=VERTEX_POINT('',#1619);
#479=VERTEX_POINT('',#1621);
#480=VERTEX_POINT('',#1625);
#481=VERTEX_POINT('',#1629);
#482=VERTEX_POINT('',#1633);
#483=VERTEX_POINT('',#1635);
#484=VERTEX_POINT('',#1639);
#485=VERTEX_POINT('',#1643);
#486=VERTEX_POINT('',#1647);
#487=VERTEX_POINT('',#1648);
#488=VERTEX_POINT('',#1650);
#489=VERTEX_POINT('',#1652);
#490=VERTEX_POINT('',#1654);
#491=VERTEX_POINT('',#1657);
#492=VERTEX_POINT('',#1661);
#493=VERTEX_POINT('',#1663);
#494=VERTEX_POINT('',#1665);
#495=VERTEX_POINT('',#1667);
#496=VERTEX_POINT('',#1669);
#497=VERTEX_POINT('',#1671);
#498=VERTEX_POINT('',#1674);
#499=VERTEX_POINT('',#1675);
#500=VERTEX_POINT('',#1677);
#501=VERTEX_POINT('',#1679);
#502=VERTEX_POINT('',#1683);
#503=VERTEX_POINT('',#1692);
#504=VERTEX_POINT('',#1694);
#505=VERTEX_POINT('',#1696);
#506=VERTEX_POINT('',#1698);
#507=VERTEX_POINT('',#1702);
#508=VERTEX_POINT('',#1704);
#509=VERTEX_POINT('',#1706);
#510=VERTEX_POINT('',#1708);
#511=VERTEX_POINT('',#1715);
#512=VERTEX_POINT('',#1717);
#513=VERTEX_POINT('',#1721);
#514=VERTEX_POINT('',#1725);
#515=VERTEX_POINT('',#1727);
#516=VERTEX_POINT('',#1731);
#517=VERTEX_POINT('',#1735);
#518=VERTEX_POINT('',#1737);
#519=VERTEX_POINT('',#1741);
#520=VERTEX_POINT('',#1743);
#521=VERTEX_POINT('',#1747);
#522=VERTEX_POINT('',#1748);
#523=VERTEX_POINT('',#1752);
#524=VERTEX_POINT('',#1755);
#525=VERTEX_POINT('',#1757);
#526=VERTEX_POINT('',#1761);
#527=VERTEX_POINT('',#1763);
#528=VERTEX_POINT('',#1767);
#529=VERTEX_POINT('',#1771);
#530=VERTEX_POINT('',#1777);
#531=VERTEX_POINT('',#1791);
#532=VERTEX_POINT('',#1793);
#533=VERTEX_POINT('',#1797);
#534=VERTEX_POINT('',#1801);
#535=VERTEX_POINT('',#1808);
#536=VERTEX_POINT('',#1809);
#537=VERTEX_POINT('',#1811);
#538=VERTEX_POINT('',#1813);
#539=VERTEX_POINT('',#1816);
#540=VERTEX_POINT('',#1817);
#541=VERTEX_POINT('',#1819);
#542=VERTEX_POINT('',#1821);
#543=VERTEX_POINT('',#1824);
#544=VERTEX_POINT('',#1825);
#545=VERTEX_POINT('',#1827);
#546=VERTEX_POINT('',#1829);
#547=VERTEX_POINT('',#1833);
#548=VERTEX_POINT('',#1835);
#549=VERTEX_POINT('',#1839);
#550=VERTEX_POINT('',#1843);
#551=VERTEX_POINT('',#1845);
#552=VERTEX_POINT('',#1849);
#553=VERTEX_POINT('',#1851);
#554=VERTEX_POINT('',#1855);
#555=VERTEX_POINT('',#1857);
#556=VERTEX_POINT('',#1861);
#557=VERTEX_POINT('',#1867);
#558=VERTEX_POINT('',#1869);
#559=EDGE_CURVE('',#457,#458,#155,.T.);
#560=EDGE_CURVE('',#457,#459,#156,.T.);
#561=EDGE_CURVE('',#459,#460,#157,.T.);
#562=EDGE_CURVE('',#460,#458,#158,.T.);
#563=EDGE_CURVE('',#461,#462,#159,.T.);
#564=EDGE_CURVE('',#461,#463,#160,.T.);
#565=EDGE_CURVE('',#463,#464,#161,.T.);
#566=EDGE_CURVE('',#464,#462,#162,.T.);
#567=EDGE_CURVE('',#465,#466,#163,.T.);
#568=EDGE_CURVE('',#467,#465,#164,.T.);
#569=EDGE_CURVE('',#468,#467,#165,.T.);
#570=EDGE_CURVE('',#466,#468,#166,.T.);
#571=EDGE_CURVE('',#469,#470,#167,.T.);
#572=EDGE_CURVE('',#471,#469,#168,.T.);
#573=EDGE_CURVE('',#472,#471,#169,.T.);
#574=EDGE_CURVE('',#470,#472,#170,.T.);
#575=EDGE_CURVE('',#473,#457,#171,.T.);
#576=EDGE_CURVE('',#474,#473,#172,.T.);
#577=EDGE_CURVE('',#459,#474,#173,.T.);
#578=EDGE_CURVE('',#475,#475,#15,.T.);
#579=EDGE_CURVE('',#458,#476,#174,.T.);
#580=EDGE_CURVE('',#477,#460,#175,.T.);
#581=EDGE_CURVE('',#476,#477,#176,.T.);
#582=EDGE_CURVE('',#473,#476,#177,.T.);
#583=EDGE_CURVE('',#474,#477,#178,.T.);
#584=EDGE_CURVE('',#472,#478,#179,.T.);
#585=EDGE_CURVE('',#471,#479,#180,.T.);
#586=EDGE_CURVE('',#479,#478,#181,.T.);
#587=EDGE_CURVE('',#475,#480,#182,.T.);
#588=EDGE_CURVE('',#480,#480,#16,.T.);
#589=EDGE_CURVE('',#469,#481,#183,.T.);
#590=EDGE_CURVE('',#481,#479,#184,.T.);
#591=EDGE_CURVE('',#466,#482,#185,.T.);
#592=EDGE_CURVE('',#468,#483,#186,.T.);
#593=EDGE_CURVE('',#483,#482,#187,.T.);
#594=EDGE_CURVE('',#467,#484,#188,.T.);
#595=EDGE_CURVE('',#484,#483,#189,.T.);
#596=EDGE_CURVE('',#465,#485,#190,.T.);
#597=EDGE_CURVE('',#485,#484,#191,.T.);
#598=EDGE_CURVE('',#486,#487,#192,.T.);
#599=EDGE_CURVE('',#488,#486,#193,.T.);
#600=EDGE_CURVE('',#488,#489,#194,.T.);
#601=EDGE_CURVE('',#490,#489,#195,.T.);
#602=EDGE_CURVE('',#462,#490,#196,.T.);
#603=EDGE_CURVE('',#491,#464,#197,.T.);
#604=EDGE_CURVE('',#487,#491,#198,.T.);
#605=EDGE_CURVE('',#492,#463,#199,.T.);
#606=EDGE_CURVE('',#493,#461,#200,.T.);
#607=EDGE_CURVE('',#493,#494,#201,.T.);
#608=EDGE_CURVE('',#494,#495,#202,.T.);
#609=EDGE_CURVE('',#495,#496,#203,.T.);
#610=EDGE_CURVE('',#496,#497,#204,.T.);
#611=EDGE_CURVE('',#497,#492,#205,.T.);
#612=EDGE_CURVE('',#498,#499,#206,.T.);
#613=EDGE_CURVE('',#500,#498,#207,.T.);
#614=EDGE_CURVE('',#500,#501,#208,.T.);
#615=EDGE_CURVE('',#501,#499,#209,.T.);
#616=EDGE_CURVE('',#470,#502,#210,.T.);
#617=EDGE_CURVE('',#502,#481,#211,.T.);
#618=EDGE_CURVE('',#482,#485,#212,.T.);
#619=EDGE_CURVE('',#478,#502,#213,.T.);
#620=EDGE_CURVE('',#503,#493,#214,.T.);
#621=EDGE_CURVE('',#504,#490,#215,.T.);
#622=EDGE_CURVE('',#504,#505,#216,.T.);
#623=EDGE_CURVE('',#505,#506,#217,.T.);
#624=EDGE_CURVE('',#503,#506,#218,.T.);
#625=EDGE_CURVE('',#507,#492,#219,.T.);
#626=EDGE_CURVE('',#508,#507,#220,.T.);
#627=EDGE_CURVE('',#509,#508,#221,.T.);
#628=EDGE_CURVE('',#510,#509,#222,.T.);
#629=EDGE_CURVE('',#510,#491,#223,.T.);
#630=EDGE_CURVE('',#486,#511,#224,.T.);
#631=EDGE_CURVE('',#511,#512,#225,.T.);
#632=EDGE_CURVE('',#512,#488,#226,.T.);
#633=EDGE_CURVE('',#513,#489,#227,.T.);
#634=EDGE_CURVE('',#512,#513,#228,.T.);
#635=EDGE_CURVE('',#513,#514,#229,.T.);
#636=EDGE_CURVE('',#514,#515,#230,.T.);
#637=EDGE_CURVE('',#504,#515,#231,.T.);
#638=EDGE_CURVE('',#487,#516,#232,.T.);
#639=EDGE_CURVE('',#511,#516,#233,.T.);
#640=EDGE_CURVE('',#517,#516,#234,.T.);
#641=EDGE_CURVE('',#518,#510,#235,.T.);
#642=EDGE_CURVE('',#517,#518,#236,.T.);
#643=EDGE_CURVE('',#496,#519,#237,.T.);
#644=EDGE_CURVE('',#519,#520,#238,.T.);
#645=EDGE_CURVE('',#497,#520,#239,.T.);
#646=EDGE_CURVE('',#521,#522,#240,.T.);
#647=EDGE_CURVE('',#521,#509,#241,.T.);
#648=EDGE_CURVE('',#519,#508,#242,.T.);
#649=EDGE_CURVE('',#495,#523,#243,.T.);
#650=EDGE_CURVE('',#506,#523,#244,.T.);
#651=EDGE_CURVE('',#505,#524,#245,.T.);
#652=EDGE_CURVE('',#524,#525,#246,.T.);
#653=EDGE_CURVE('',#525,#522,#247,.T.);
#654=EDGE_CURVE('',#498,#526,#248,.T.);
#655=EDGE_CURVE('',#526,#527,#249,.T.);
#656=EDGE_CURVE('',#527,#500,#250,.T.);
#657=EDGE_CURVE('',#528,#501,#251,.T.);
#658=EDGE_CURVE('',#527,#528,#252,.T.);
#659=EDGE_CURVE('',#494,#529,#253,.T.);
#660=EDGE_CURVE('',#529,#523,#254,.T.);
#661=EDGE_CURVE('',#503,#529,#255,.T.);
#662=EDGE_CURVE('',#530,#528,#256,.T.);
#663=EDGE_CURVE('',#499,#530,#257,.T.);
#664=EDGE_CURVE('',#520,#507,#258,.T.);
#665=EDGE_CURVE('',#526,#530,#259,.T.);
#666=EDGE_CURVE('',#515,#524,#260,.T.);
#667=EDGE_CURVE('',#518,#521,#261,.T.);
#668=EDGE_CURVE('',#531,#517,#262,.T.);
#669=EDGE_CURVE('',#531,#532,#263,.T.);
#670=EDGE_CURVE('',#532,#514,#264,.T.);
#671=EDGE_CURVE('',#533,#532,#265,.T.);
#672=EDGE_CURVE('',#525,#533,#266,.T.);
#673=EDGE_CURVE('',#522,#534,#267,.T.);
#674=EDGE_CURVE('',#534,#531,#268,.T.);
#675=EDGE_CURVE('',#534,#533,#269,.T.);
#676=EDGE_CURVE('',#535,#536,#270,.T.);
#677=EDGE_CURVE('',#537,#535,#271,.T.);
#678=EDGE_CURVE('',#538,#537,#272,.T.);
#679=EDGE_CURVE('',#536,#538,#273,.T.);
#680=EDGE_CURVE('',#539,#540,#274,.T.);
#681=EDGE_CURVE('',#541,#539,#275,.T.);
#682=EDGE_CURVE('',#542,#541,#276,.T.);
#683=EDGE_CURVE('',#540,#542,#277,.T.);
#684=EDGE_CURVE('',#543,#544,#278,.T.);
#685=EDGE_CURVE('',#545,#543,#279,.T.);
#686=EDGE_CURVE('',#546,#545,#280,.T.);
#687=EDGE_CURVE('',#544,#546,#281,.T.);
#688=EDGE_CURVE('',#547,#541,#282,.T.);
#689=EDGE_CURVE('',#548,#539,#283,.T.);
#690=EDGE_CURVE('',#547,#548,#284,.T.);
#691=EDGE_CURVE('',#549,#540,#285,.T.);
#692=EDGE_CURVE('',#548,#549,#286,.T.);
#693=EDGE_CURVE('',#550,#536,#287,.T.);
#694=EDGE_CURVE('',#551,#538,#288,.T.);
#695=EDGE_CURVE('',#550,#551,#289,.T.);
#696=EDGE_CURVE('',#552,#544,#290,.T.);
#697=EDGE_CURVE('',#553,#546,#291,.T.);
#698=EDGE_CURVE('',#552,#553,#292,.T.);
#699=EDGE_CURVE('',#554,#545,#293,.T.);
#700=EDGE_CURVE('',#555,#543,#294,.T.);
#701=EDGE_CURVE('',#554,#555,#295,.T.);
#702=EDGE_CURVE('',#556,#542,#296,.T.);
#703=EDGE_CURVE('',#549,#556,#297,.T.);
#704=EDGE_CURVE('',#553,#554,#298,.T.);
#705=EDGE_CURVE('',#557,#537,#299,.T.);
#706=EDGE_CURVE('',#558,#535,#300,.T.);
#707=EDGE_CURVE('',#557,#558,#301,.T.);
#708=EDGE_CURVE('',#555,#552,#302,.T.);
#709=EDGE_CURVE('',#558,#550,#303,.T.);
#710=EDGE_CURVE('',#556,#547,#304,.T.);
#711=EDGE_CURVE('',#551,#557,#305,.T.);
#712=ORIENTED_EDGE('',*,*,#559,.F.);
#713=ORIENTED_EDGE('',*,*,#560,.T.);
#714=ORIENTED_EDGE('',*,*,#561,.T.);
#715=ORIENTED_EDGE('',*,*,#562,.T.);
#716=ORIENTED_EDGE('',*,*,#563,.F.);
#717=ORIENTED_EDGE('',*,*,#564,.T.);
#718=ORIENTED_EDGE('',*,*,#565,.T.);
#719=ORIENTED_EDGE('',*,*,#566,.T.);
#720=ORIENTED_EDGE('',*,*,#567,.F.);
#721=ORIENTED_EDGE('',*,*,#568,.F.);
#722=ORIENTED_EDGE('',*,*,#569,.F.);
#723=ORIENTED_EDGE('',*,*,#570,.F.);
#724=ORIENTED_EDGE('',*,*,#571,.F.);
#725=ORIENTED_EDGE('',*,*,#572,.F.);
#726=ORIENTED_EDGE('',*,*,#573,.F.);
#727=ORIENTED_EDGE('',*,*,#574,.F.);
#728=ORIENTED_EDGE('',*,*,#575,.F.);
#729=ORIENTED_EDGE('',*,*,#576,.F.);
#730=ORIENTED_EDGE('',*,*,#577,.F.);
#731=ORIENTED_EDGE('',*,*,#560,.F.);
#732=ORIENTED_EDGE('',*,*,#578,.F.);
#733=ORIENTED_EDGE('',*,*,#579,.F.);
#734=ORIENTED_EDGE('',*,*,#562,.F.);
#735=ORIENTED_EDGE('',*,*,#580,.F.);
#736=ORIENTED_EDGE('',*,*,#581,.F.);
#737=ORIENTED_EDGE('',*,*,#582,.F.);
#738=ORIENTED_EDGE('',*,*,#575,.T.);
#739=ORIENTED_EDGE('',*,*,#559,.T.);
#740=ORIENTED_EDGE('',*,*,#579,.T.);
#741=ORIENTED_EDGE('',*,*,#561,.F.);
#742=ORIENTED_EDGE('',*,*,#577,.T.);
#743=ORIENTED_EDGE('',*,*,#583,.T.);
#744=ORIENTED_EDGE('',*,*,#580,.T.);
#745=ORIENTED_EDGE('',*,*,#584,.F.);
#746=ORIENTED_EDGE('',*,*,#573,.T.);
#747=ORIENTED_EDGE('',*,*,#585,.T.);
#748=ORIENTED_EDGE('',*,*,#586,.T.);
#749=ORIENTED_EDGE('',*,*,#578,.T.);
#750=ORIENTED_EDGE('',*,*,#587,.T.);
#751=ORIENTED_EDGE('',*,*,#588,.F.);
#752=ORIENTED_EDGE('',*,*,#587,.F.);
#753=ORIENTED_EDGE('',*,*,#585,.F.);
#754=ORIENTED_EDGE('',*,*,#572,.T.);
#755=ORIENTED_EDGE('',*,*,#589,.T.);
#756=ORIENTED_EDGE('',*,*,#590,.T.);
#757=ORIENTED_EDGE('',*,*,#591,.F.);
#758=ORIENTED_EDGE('',*,*,#570,.T.);
#759=ORIENTED_EDGE('',*,*,#592,.T.);
#760=ORIENTED_EDGE('',*,*,#593,.T.);
#761=ORIENTED_EDGE('',*,*,#592,.F.);
#762=ORIENTED_EDGE('',*,*,#569,.T.);
#763=ORIENTED_EDGE('',*,*,#594,.T.);
#764=ORIENTED_EDGE('',*,*,#595,.T.);
#765=ORIENTED_EDGE('',*,*,#594,.F.);
#766=ORIENTED_EDGE('',*,*,#568,.T.);
#767=ORIENTED_EDGE('',*,*,#596,.T.);
#768=ORIENTED_EDGE('',*,*,#597,.T.);
#769=ORIENTED_EDGE('',*,*,#598,.F.);
#770=ORIENTED_EDGE('',*,*,#599,.F.);
#771=ORIENTED_EDGE('',*,*,#600,.T.);
#772=ORIENTED_EDGE('',*,*,#601,.F.);
#773=ORIENTED_EDGE('',*,*,#602,.F.);
#774=ORIENTED_EDGE('',*,*,#566,.F.);
#775=ORIENTED_EDGE('',*,*,#603,.F.);
#776=ORIENTED_EDGE('',*,*,#604,.F.);
#777=ORIENTED_EDGE('',*,*,#605,.T.);
#778=ORIENTED_EDGE('',*,*,#564,.F.);
#779=ORIENTED_EDGE('',*,*,#606,.F.);
#780=ORIENTED_EDGE('',*,*,#607,.T.);
#781=ORIENTED_EDGE('',*,*,#608,.T.);
#782=ORIENTED_EDGE('',*,*,#609,.T.);
#783=ORIENTED_EDGE('',*,*,#610,.T.);
#784=ORIENTED_EDGE('',*,*,#611,.T.);
#785=ORIENTED_EDGE('',*,*,#612,.F.);
#786=ORIENTED_EDGE('',*,*,#613,.F.);
#787=ORIENTED_EDGE('',*,*,#614,.T.);
#788=ORIENTED_EDGE('',*,*,#615,.T.);
#789=ORIENTED_EDGE('',*,*,#589,.F.);
#790=ORIENTED_EDGE('',*,*,#571,.T.);
#791=ORIENTED_EDGE('',*,*,#616,.T.);
#792=ORIENTED_EDGE('',*,*,#617,.T.);
#793=ORIENTED_EDGE('',*,*,#596,.F.);
#794=ORIENTED_EDGE('',*,*,#567,.T.);
#795=ORIENTED_EDGE('',*,*,#591,.T.);
#796=ORIENTED_EDGE('',*,*,#618,.T.);
#797=ORIENTED_EDGE('',*,*,#616,.F.);
#798=ORIENTED_EDGE('',*,*,#574,.T.);
#799=ORIENTED_EDGE('',*,*,#584,.T.);
#800=ORIENTED_EDGE('',*,*,#619,.T.);
#801=ORIENTED_EDGE('',*,*,#583,.F.);
#802=ORIENTED_EDGE('',*,*,#576,.T.);
#803=ORIENTED_EDGE('',*,*,#582,.T.);
#804=ORIENTED_EDGE('',*,*,#581,.T.);
#805=ORIENTED_EDGE('',*,*,#620,.T.);
#806=ORIENTED_EDGE('',*,*,#606,.T.);
#807=ORIENTED_EDGE('',*,*,#563,.T.);
#808=ORIENTED_EDGE('',*,*,#602,.T.);
#809=ORIENTED_EDGE('',*,*,#621,.F.);
#810=ORIENTED_EDGE('',*,*,#622,.T.);
#811=ORIENTED_EDGE('',*,*,#623,.T.);
#812=ORIENTED_EDGE('',*,*,#624,.F.);
#813=ORIENTED_EDGE('',*,*,#565,.F.);
#814=ORIENTED_EDGE('',*,*,#605,.F.);
#815=ORIENTED_EDGE('',*,*,#625,.F.);
#816=ORIENTED_EDGE('',*,*,#626,.F.);
#817=ORIENTED_EDGE('',*,*,#627,.F.);
#818=ORIENTED_EDGE('',*,*,#628,.F.);
#819=ORIENTED_EDGE('',*,*,#629,.T.);
#820=ORIENTED_EDGE('',*,*,#603,.T.);
#821=ORIENTED_EDGE('',*,*,#617,.F.);
#822=ORIENTED_EDGE('',*,*,#619,.F.);
#823=ORIENTED_EDGE('',*,*,#586,.F.);
#824=ORIENTED_EDGE('',*,*,#590,.F.);
#825=ORIENTED_EDGE('',*,*,#588,.T.);
#826=ORIENTED_EDGE('',*,*,#618,.F.);
#827=ORIENTED_EDGE('',*,*,#593,.F.);
#828=ORIENTED_EDGE('',*,*,#595,.F.);
#829=ORIENTED_EDGE('',*,*,#597,.F.);
#830=ORIENTED_EDGE('',*,*,#630,.T.);
#831=ORIENTED_EDGE('',*,*,#631,.T.);
#832=ORIENTED_EDGE('',*,*,#632,.T.);
#833=ORIENTED_EDGE('',*,*,#599,.T.);
#834=ORIENTED_EDGE('',*,*,#633,.T.);
#835=ORIENTED_EDGE('',*,*,#600,.F.);
#836=ORIENTED_EDGE('',*,*,#632,.F.);
#837=ORIENTED_EDGE('',*,*,#634,.T.);
#838=ORIENTED_EDGE('',*,*,#601,.T.);
#839=ORIENTED_EDGE('',*,*,#633,.F.);
#840=ORIENTED_EDGE('',*,*,#635,.T.);
#841=ORIENTED_EDGE('',*,*,#636,.T.);
#842=ORIENTED_EDGE('',*,*,#637,.F.);
#843=ORIENTED_EDGE('',*,*,#621,.T.);
#844=ORIENTED_EDGE('',*,*,#638,.T.);
#845=ORIENTED_EDGE('',*,*,#639,.F.);
#846=ORIENTED_EDGE('',*,*,#630,.F.);
#847=ORIENTED_EDGE('',*,*,#598,.T.);
#848=ORIENTED_EDGE('',*,*,#640,.T.);
#849=ORIENTED_EDGE('',*,*,#638,.F.);
#850=ORIENTED_EDGE('',*,*,#604,.T.);
#851=ORIENTED_EDGE('',*,*,#629,.F.);
#852=ORIENTED_EDGE('',*,*,#641,.F.);
#853=ORIENTED_EDGE('',*,*,#642,.F.);
#854=ORIENTED_EDGE('',*,*,#643,.T.);
#855=ORIENTED_EDGE('',*,*,#644,.T.);
#856=ORIENTED_EDGE('',*,*,#645,.F.);
#857=ORIENTED_EDGE('',*,*,#610,.F.);
#858=ORIENTED_EDGE('',*,*,#646,.F.);
#859=ORIENTED_EDGE('',*,*,#647,.T.);
#860=ORIENTED_EDGE('',*,*,#627,.T.);
#861=ORIENTED_EDGE('',*,*,#648,.F.);
#862=ORIENTED_EDGE('',*,*,#643,.F.);
#863=ORIENTED_EDGE('',*,*,#609,.F.);
#864=ORIENTED_EDGE('',*,*,#649,.T.);
#865=ORIENTED_EDGE('',*,*,#650,.F.);
#866=ORIENTED_EDGE('',*,*,#623,.F.);
#867=ORIENTED_EDGE('',*,*,#651,.T.);
#868=ORIENTED_EDGE('',*,*,#652,.T.);
#869=ORIENTED_EDGE('',*,*,#653,.T.);
#870=ORIENTED_EDGE('',*,*,#613,.T.);
#871=ORIENTED_EDGE('',*,*,#654,.T.);
#872=ORIENTED_EDGE('',*,*,#655,.T.);
#873=ORIENTED_EDGE('',*,*,#656,.T.);
#874=ORIENTED_EDGE('',*,*,#657,.T.);
#875=ORIENTED_EDGE('',*,*,#614,.F.);
#876=ORIENTED_EDGE('',*,*,#656,.F.);
#877=ORIENTED_EDGE('',*,*,#658,.T.);
#878=ORIENTED_EDGE('',*,*,#659,.T.);
#879=ORIENTED_EDGE('',*,*,#660,.T.);
#880=ORIENTED_EDGE('',*,*,#649,.F.);
#881=ORIENTED_EDGE('',*,*,#608,.F.);
#882=ORIENTED_EDGE('',*,*,#661,.T.);
#883=ORIENTED_EDGE('',*,*,#659,.F.);
#884=ORIENTED_EDGE('',*,*,#607,.F.);
#885=ORIENTED_EDGE('',*,*,#620,.F.);
#886=ORIENTED_EDGE('',*,*,#615,.F.);
#887=ORIENTED_EDGE('',*,*,#657,.F.);
#888=ORIENTED_EDGE('',*,*,#662,.F.);
#889=ORIENTED_EDGE('',*,*,#663,.F.);
#890=ORIENTED_EDGE('',*,*,#611,.F.);
#891=ORIENTED_EDGE('',*,*,#645,.T.);
#892=ORIENTED_EDGE('',*,*,#664,.T.);
#893=ORIENTED_EDGE('',*,*,#625,.T.);
#894=ORIENTED_EDGE('',*,*,#663,.T.);
#895=ORIENTED_EDGE('',*,*,#665,.F.);
#896=ORIENTED_EDGE('',*,*,#654,.F.);
#897=ORIENTED_EDGE('',*,*,#612,.T.);
#898=ORIENTED_EDGE('',*,*,#637,.T.);
#899=ORIENTED_EDGE('',*,*,#666,.T.);
#900=ORIENTED_EDGE('',*,*,#651,.F.);
#901=ORIENTED_EDGE('',*,*,#622,.F.);
#902=ORIENTED_EDGE('',*,*,#650,.T.);
#903=ORIENTED_EDGE('',*,*,#660,.F.);
#904=ORIENTED_EDGE('',*,*,#661,.F.);
#905=ORIENTED_EDGE('',*,*,#624,.T.);
#906=ORIENTED_EDGE('',*,*,#664,.F.);
#907=ORIENTED_EDGE('',*,*,#644,.F.);
#908=ORIENTED_EDGE('',*,*,#648,.T.);
#909=ORIENTED_EDGE('',*,*,#626,.T.);
#910=ORIENTED_EDGE('',*,*,#667,.F.);
#911=ORIENTED_EDGE('',*,*,#641,.T.);
#912=ORIENTED_EDGE('',*,*,#628,.T.);
#913=ORIENTED_EDGE('',*,*,#647,.F.);
#914=ORIENTED_EDGE('',*,*,#631,.F.);
#915=ORIENTED_EDGE('',*,*,#639,.T.);
#916=ORIENTED_EDGE('',*,*,#640,.F.);
#917=ORIENTED_EDGE('',*,*,#668,.F.);
#918=ORIENTED_EDGE('',*,*,#669,.T.);
#919=ORIENTED_EDGE('',*,*,#670,.T.);
#920=ORIENTED_EDGE('',*,*,#635,.F.);
#921=ORIENTED_EDGE('',*,*,#634,.F.);
#922=ORIENTED_EDGE('',*,*,#666,.F.);
#923=ORIENTED_EDGE('',*,*,#636,.F.);
#924=ORIENTED_EDGE('',*,*,#670,.F.);
#925=ORIENTED_EDGE('',*,*,#671,.F.);
#926=ORIENTED_EDGE('',*,*,#672,.F.);
#927=ORIENTED_EDGE('',*,*,#652,.F.);
#928=ORIENTED_EDGE('',*,*,#646,.T.);
#929=ORIENTED_EDGE('',*,*,#673,.T.);
#930=ORIENTED_EDGE('',*,*,#674,.T.);
#931=ORIENTED_EDGE('',*,*,#668,.T.);
#932=ORIENTED_EDGE('',*,*,#642,.T.);
#933=ORIENTED_EDGE('',*,*,#667,.T.);
#934=ORIENTED_EDGE('',*,*,#672,.T.);
#935=ORIENTED_EDGE('',*,*,#675,.F.);
#936=ORIENTED_EDGE('',*,*,#673,.F.);
#937=ORIENTED_EDGE('',*,*,#653,.F.);
#938=ORIENTED_EDGE('',*,*,#662,.T.);
#939=ORIENTED_EDGE('',*,*,#658,.F.);
#940=ORIENTED_EDGE('',*,*,#655,.F.);
#941=ORIENTED_EDGE('',*,*,#665,.T.);
#942=ORIENTED_EDGE('',*,*,#671,.T.);
#943=ORIENTED_EDGE('',*,*,#669,.F.);
#944=ORIENTED_EDGE('',*,*,#674,.F.);
#945=ORIENTED_EDGE('',*,*,#675,.T.);
#946=ORIENTED_EDGE('',*,*,#676,.F.);
#947=ORIENTED_EDGE('',*,*,#677,.F.);
#948=ORIENTED_EDGE('',*,*,#678,.F.);
#949=ORIENTED_EDGE('',*,*,#679,.F.);
#950=ORIENTED_EDGE('',*,*,#680,.F.);
#951=ORIENTED_EDGE('',*,*,#681,.F.);
#952=ORIENTED_EDGE('',*,*,#682,.F.);
#953=ORIENTED_EDGE('',*,*,#683,.F.);
#954=ORIENTED_EDGE('',*,*,#684,.F.);
#955=ORIENTED_EDGE('',*,*,#685,.F.);
#956=ORIENTED_EDGE('',*,*,#686,.F.);
#957=ORIENTED_EDGE('',*,*,#687,.F.);
#958=ORIENTED_EDGE('',*,*,#688,.T.);
#959=ORIENTED_EDGE('',*,*,#681,.T.);
#960=ORIENTED_EDGE('',*,*,#689,.F.);
#961=ORIENTED_EDGE('',*,*,#690,.F.);
#962=ORIENTED_EDGE('',*,*,#689,.T.);
#963=ORIENTED_EDGE('',*,*,#680,.T.);
#964=ORIENTED_EDGE('',*,*,#691,.F.);
#965=ORIENTED_EDGE('',*,*,#692,.F.);
#966=ORIENTED_EDGE('',*,*,#693,.T.);
#967=ORIENTED_EDGE('',*,*,#679,.T.);
#968=ORIENTED_EDGE('',*,*,#694,.F.);
#969=ORIENTED_EDGE('',*,*,#695,.F.);
#970=ORIENTED_EDGE('',*,*,#696,.T.);
#971=ORIENTED_EDGE('',*,*,#687,.T.);
#972=ORIENTED_EDGE('',*,*,#697,.F.);
#973=ORIENTED_EDGE('',*,*,#698,.F.);
#974=ORIENTED_EDGE('',*,*,#699,.T.);
#975=ORIENTED_EDGE('',*,*,#685,.T.);
#976=ORIENTED_EDGE('',*,*,#700,.F.);
#977=ORIENTED_EDGE('',*,*,#701,.F.);
#978=ORIENTED_EDGE('',*,*,#691,.T.);
#979=ORIENTED_EDGE('',*,*,#683,.T.);
#980=ORIENTED_EDGE('',*,*,#702,.F.);
#981=ORIENTED_EDGE('',*,*,#703,.F.);
#982=ORIENTED_EDGE('',*,*,#697,.T.);
#983=ORIENTED_EDGE('',*,*,#686,.T.);
#984=ORIENTED_EDGE('',*,*,#699,.F.);
#985=ORIENTED_EDGE('',*,*,#704,.F.);
#986=ORIENTED_EDGE('',*,*,#705,.T.);
#987=ORIENTED_EDGE('',*,*,#677,.T.);
#988=ORIENTED_EDGE('',*,*,#706,.F.);
#989=ORIENTED_EDGE('',*,*,#707,.F.);
#990=ORIENTED_EDGE('',*,*,#700,.T.);
#991=ORIENTED_EDGE('',*,*,#684,.T.);
#992=ORIENTED_EDGE('',*,*,#696,.F.);
#993=ORIENTED_EDGE('',*,*,#708,.F.);
#994=ORIENTED_EDGE('',*,*,#706,.T.);
#995=ORIENTED_EDGE('',*,*,#676,.T.);
#996=ORIENTED_EDGE('',*,*,#693,.F.);
#997=ORIENTED_EDGE('',*,*,#709,.F.);
#998=ORIENTED_EDGE('',*,*,#702,.T.);
#999=ORIENTED_EDGE('',*,*,#682,.T.);
#1000=ORIENTED_EDGE('',*,*,#688,.F.);
#1001=ORIENTED_EDGE('',*,*,#710,.F.);
#1002=ORIENTED_EDGE('',*,*,#694,.T.);
#1003=ORIENTED_EDGE('',*,*,#678,.T.);
#1004=ORIENTED_EDGE('',*,*,#705,.F.);
#1005=ORIENTED_EDGE('',*,*,#711,.F.);
#1006=ORIENTED_EDGE('',*,*,#692,.T.);
#1007=ORIENTED_EDGE('',*,*,#703,.T.);
#1008=ORIENTED_EDGE('',*,*,#710,.T.);
#1009=ORIENTED_EDGE('',*,*,#690,.T.);
#1010=ORIENTED_EDGE('',*,*,#709,.T.);
#1011=ORIENTED_EDGE('',*,*,#695,.T.);
#1012=ORIENTED_EDGE('',*,*,#711,.T.);
#1013=ORIENTED_EDGE('',*,*,#707,.T.);
#1014=ORIENTED_EDGE('',*,*,#708,.T.);
#1015=ORIENTED_EDGE('',*,*,#698,.T.);
#1016=ORIENTED_EDGE('',*,*,#704,.T.);
#1017=ORIENTED_EDGE('',*,*,#701,.T.);
#1018=PLANE('',#1224);
#1019=PLANE('',#1225);
#1020=PLANE('',#1227);
#1021=PLANE('',#1228);
#1022=PLANE('',#1229);
#1023=PLANE('',#1230);
#1024=PLANE('',#1233);
#1025=PLANE('',#1234);
#1026=PLANE('',#1235);
#1027=PLANE('',#1236);
#1028=PLANE('',#1237);
#1029=PLANE('',#1238);
#1030=PLANE('',#1239);
#1031=PLANE('',#1240);
#1032=PLANE('',#1241);
#1033=PLANE('',#1242);
#1034=PLANE('',#1243);
#1035=PLANE('',#1244);
#1036=PLANE('',#1245);
#1037=PLANE('',#1246);
#1038=PLANE('',#1247);
#1039=PLANE('',#1248);
#1040=PLANE('',#1249);
#1041=PLANE('',#1250);
#1042=PLANE('',#1251);
#1043=PLANE('',#1252);
#1044=PLANE('',#1253);
#1045=PLANE('',#1254);
#1046=PLANE('',#1255);
#1047=PLANE('',#1256);
#1048=PLANE('',#1257);
#1049=PLANE('',#1258);
#1050=PLANE('',#1259);
#1051=PLANE('',#1260);
#1052=PLANE('',#1261);
#1053=PLANE('',#1262);
#1054=PLANE('',#1263);
#1055=PLANE('',#1264);
#1056=PLANE('',#1265);
#1057=PLANE('',#1266);
#1058=PLANE('',#1267);
#1059=PLANE('',#1268);
#1060=PLANE('',#1269);
#1061=PLANE('',#1270);
#1062=PLANE('',#1271);
#1063=PLANE('',#1272);
#1064=PLANE('',#1273);
#1065=PLANE('',#1274);
#1066=PLANE('',#1275);
#1067=PLANE('',#1276);
#1068=PLANE('',#1277);
#1069=PLANE('',#1278);
#1070=PLANE('',#1279);
#1071=PLANE('',#1280);
#1072=PLANE('',#1281);
#1073=PLANE('',#1282);
#1074=PLANE('',#1283);
#1075=PLANE('',#1284);
#1076=PLANE('',#1285);
#1077=PLANE('',#1286);
#1078=STYLED_ITEM('',(#1904),#1140);
#1079=STYLED_ITEM('',(#1905),#1141);
#1080=STYLED_ITEM('',(#1904),#1142);
#1081=STYLED_ITEM('',(#1904),#1143);
#1082=STYLED_ITEM('',(#1904),#1144);
#1083=STYLED_ITEM('',(#1904),#1145);
#1084=STYLED_ITEM('',(#1905),#1146);
#1085=STYLED_ITEM('',(#1904),#1147);
#1086=STYLED_ITEM('',(#1904),#1148);
#1087=STYLED_ITEM('',(#1904),#1149);
#1088=STYLED_ITEM('',(#1904),#1150);
#1089=STYLED_ITEM('',(#1905),#1151);
#1090=STYLED_ITEM('',(#1905),#1152);
#1091=STYLED_ITEM('',(#1904),#1153);
#1092=STYLED_ITEM('',(#1904),#1154);
#1093=STYLED_ITEM('',(#1904),#1155);
#1094=STYLED_ITEM('',(#1904),#1156);
#1095=STYLED_ITEM('',(#1905),#1157);
#1096=STYLED_ITEM('',(#1905),#1158);
#1097=STYLED_ITEM('',(#1904),#1159);
#1098=STYLED_ITEM('',(#1905),#1160);
#1099=STYLED_ITEM('',(#1904),#1161);
#1100=STYLED_ITEM('',(#1905),#1162);
#1101=STYLED_ITEM('',(#1905),#1163);
#1102=STYLED_ITEM('',(#1905),#1164);
#1103=STYLED_ITEM('',(#1905),#1165);
#1104=STYLED_ITEM('',(#1905),#1166);
#1105=STYLED_ITEM('',(#1905),#1167);
#1106=STYLED_ITEM('',(#1905),#1168);
#1107=STYLED_ITEM('',(#1905),#1169);
#1108=STYLED_ITEM('',(#1905),#1170);
#1109=STYLED_ITEM('',(#1905),#1171);
#1110=STYLED_ITEM('',(#1905),#1172);
#1111=STYLED_ITEM('',(#1905),#1173);
#1112=STYLED_ITEM('',(#1905),#1174);
#1113=STYLED_ITEM('',(#1905),#1175);
#1114=STYLED_ITEM('',(#1905),#1176);
#1115=STYLED_ITEM('',(#1905),#1177);
#1116=STYLED_ITEM('',(#1905),#1178);
#1117=STYLED_ITEM('',(#1905),#1179);
#1118=STYLED_ITEM('',(#1905),#1180);
#1119=STYLED_ITEM('',(#1905),#1181);
#1120=STYLED_ITEM('',(#1905),#1182);
#1121=STYLED_ITEM('',(#1905),#1183);
#1122=STYLED_ITEM('',(#1905),#1184);
#1123=STYLED_ITEM('',(#1905),#1185);
#1124=STYLED_ITEM('',(#1904),#1186);
#1125=STYLED_ITEM('',(#1904),#1187);
#1126=STYLED_ITEM('',(#1904),#1188);
#1127=STYLED_ITEM('',(#1904),#1189);
#1128=STYLED_ITEM('',(#1904),#1190);
#1129=STYLED_ITEM('',(#1904),#1191);
#1130=STYLED_ITEM('',(#1904),#1192);
#1131=STYLED_ITEM('',(#1904),#1193);
#1132=STYLED_ITEM('',(#1904),#1194);
#1133=STYLED_ITEM('',(#1904),#1195);
#1134=STYLED_ITEM('',(#1904),#1196);
#1135=STYLED_ITEM('',(#1904),#1197);
#1136=STYLED_ITEM('',(#1904),#1198);
#1137=STYLED_ITEM('',(#1904),#1199);
#1138=STYLED_ITEM('',(#1904),#1200);
#1139=STYLED_ITEM('',(#1903),#13);
#1140=ADVANCED_FACE('',(#25),#1018,.F.);
#1141=ADVANCED_FACE('',(#26,#17,#18,#19,#20),#1019,.F.);
#1142=ADVANCED_FACE('',(#27),#1020,.T.);
#1143=ADVANCED_FACE('',(#28),#1021,.F.);
#1144=ADVANCED_FACE('',(#29),#1022,.F.);
#1145=ADVANCED_FACE('',(#30),#1023,.F.);
#1146=ADVANCED_FACE('',(#31),#14,.T.);
#1147=ADVANCED_FACE('',(#32),#1024,.F.);
#1148=ADVANCED_FACE('',(#33),#1025,.F.);
#1149=ADVANCED_FACE('',(#34),#1026,.F.);
#1150=ADVANCED_FACE('',(#35),#1027,.F.);
#1151=ADVANCED_FACE('',(#36),#1028,.T.);
#1152=ADVANCED_FACE('',(#37,#21),#1029,.F.);
#1153=ADVANCED_FACE('',(#38),#1030,.F.);
#1154=ADVANCED_FACE('',(#39),#1031,.F.);
#1155=ADVANCED_FACE('',(#40),#1032,.F.);
#1156=ADVANCED_FACE('',(#41),#1033,.F.);
#1157=ADVANCED_FACE('',(#42),#1034,.F.);
#1158=ADVANCED_FACE('',(#43),#1035,.F.);
#1159=ADVANCED_FACE('',(#44),#1036,.T.);
#1160=ADVANCED_FACE('',(#45),#1037,.T.);
#1161=ADVANCED_FACE('',(#46),#1038,.T.);
#1162=ADVANCED_FACE('',(#47),#1039,.T.);
#1163=ADVANCED_FACE('',(#48),#1040,.F.);
#1164=ADVANCED_FACE('',(#49),#1041,.F.);
#1165=ADVANCED_FACE('',(#50),#1042,.F.);
#1166=ADVANCED_FACE('',(#51),#1043,.F.);
#1167=ADVANCED_FACE('',(#52),#1044,.F.);
#1168=ADVANCED_FACE('',(#53),#1045,.F.);
#1169=ADVANCED_FACE('',(#54),#1046,.T.);
#1170=ADVANCED_FACE('',(#55),#1047,.F.);
#1171=ADVANCED_FACE('',(#56),#1048,.F.);
#1172=ADVANCED_FACE('',(#57),#1049,.F.);
#1173=ADVANCED_FACE('',(#58),#1050,.F.);
#1174=ADVANCED_FACE('',(#59),#1051,.F.);
#1175=ADVANCED_FACE('',(#60),#1052,.F.);
#1176=ADVANCED_FACE('',(#61),#1053,.F.);
#1177=ADVANCED_FACE('',(#62),#1054,.F.);
#1178=ADVANCED_FACE('',(#63),#1055,.F.);
#1179=ADVANCED_FACE('',(#64),#1056,.F.);
#1180=ADVANCED_FACE('',(#65),#1057,.F.);
#1181=ADVANCED_FACE('',(#66),#1058,.F.);
#1182=ADVANCED_FACE('',(#67),#1059,.T.);
#1183=ADVANCED_FACE('',(#68),#1060,.F.);
#1184=ADVANCED_FACE('',(#69),#1061,.F.);
#1185=ADVANCED_FACE('',(#70,#22,#23,#24),#1062,.F.);
#1186=ADVANCED_FACE('',(#71),#1063,.F.);
#1187=ADVANCED_FACE('',(#72),#1064,.F.);
#1188=ADVANCED_FACE('',(#73),#1065,.F.);
#1189=ADVANCED_FACE('',(#74),#1066,.F.);
#1190=ADVANCED_FACE('',(#75),#1067,.F.);
#1191=ADVANCED_FACE('',(#76),#1068,.F.);
#1192=ADVANCED_FACE('',(#77),#1069,.F.);
#1193=ADVANCED_FACE('',(#78),#1070,.F.);
#1194=ADVANCED_FACE('',(#79),#1071,.F.);
#1195=ADVANCED_FACE('',(#80),#1072,.F.);
#1196=ADVANCED_FACE('',(#81),#1073,.F.);
#1197=ADVANCED_FACE('',(#82),#1074,.F.);
#1198=ADVANCED_FACE('',(#83),#1075,.F.);
#1199=ADVANCED_FACE('',(#84),#1076,.F.);
#1200=ADVANCED_FACE('',(#85),#1077,.F.);
#1201=CLOSED_SHELL('',(#1140,#1141,#1142,#1143,#1144,#1145,#1146,#1147,
#1148,#1149,#1150,#1151,#1152,#1153,#1154,#1155,#1156,#1157,#1158,#1159,
#1160,#1161,#1162,#1163,#1164,#1165,#1166,#1167,#1168,#1169,#1170,#1171,
#1172,#1173,#1174,#1175,#1176,#1177,#1178,#1179,#1180,#1181,#1182,#1183,
#1184,#1185,#1186,#1187,#1188,#1189,#1190,#1191,#1192,#1193,#1194,#1195,
#1196,#1197,#1198,#1199,#1200));
#1202=DERIVED_UNIT_ELEMENT(#1205,1.);
#1203=DERIVED_UNIT_ELEMENT(#1888,-3.);
#1204=DIMENSIONAL_EXPONENTS(0.,1.,0.,0.,0.,0.,0.);
#1205=(
CONVERSION_BASED_UNIT('gram',#1207)
MASS_UNIT()
NAMED_UNIT(#1204)
);
#1206=(
MASS_UNIT()
NAMED_UNIT(*)
SI_UNIT(.KILO.,.GRAM.)
);
#1207=MASS_MEASURE_WITH_UNIT(MASS_MEASURE(0.001),#1206);
#1208=DERIVED_UNIT((#1202,#1203));
#1209=MEASURE_REPRESENTATION_ITEM('density measure',
POSITIVE_RATIO_MEASURE(1.),#1208);
#1210=PROPERTY_DEFINITION_REPRESENTATION(#1215,#1212);
#1211=PROPERTY_DEFINITION_REPRESENTATION(#1216,#1213);
#1212=REPRESENTATION('material name',(#1214),#1885);
#1213=REPRESENTATION('density',(#1209),#1885);
#1214=DESCRIPTIVE_REPRESENTATION_ITEM('Generic','Generic');
#1215=PROPERTY_DEFINITION('material property','material name',#1895);
#1216=PROPERTY_DEFINITION('material property','density of part',#1895);
#1217=DATE_TIME_ROLE('creation_date');
#1218=APPLIED_DATE_AND_TIME_ASSIGNMENT(#1219,#1217,(#1895));
#1219=DATE_AND_TIME(#1220,#1221);
#1220=CALENDAR_DATE(2010,10,6);
#1221=LOCAL_TIME(2,24,23.,#1222);
#1222=COORDINATED_UNIVERSAL_TIME_OFFSET(0,0,.BEHIND.);
#1223=AXIS2_PLACEMENT_3D('',#1566,#1287,#1288);
#1224=AXIS2_PLACEMENT_3D('',#1567,#1289,#1290);
#1225=AXIS2_PLACEMENT_3D('',#1576,#1295,#1296);
#1226=AXIS2_PLACEMENT_3D('',#1607,#1312,#1313);
#1227=AXIS2_PLACEMENT_3D('',#1608,#1314,#1315);
#1228=AXIS2_PLACEMENT_3D('',#1614,#1319,#1320);
#1229=AXIS2_PLACEMENT_3D('',#1616,#1322,#1323);
#1230=AXIS2_PLACEMENT_3D('',#1618,#1325,#1326);
#1231=AXIS2_PLACEMENT_3D('',#1624,#1330,#1331);
#1232=AXIS2_PLACEMENT_3D('',#1627,#1333,#1334);
#1233=AXIS2_PLACEMENT_3D('',#1628,#1335,#1336);
#1234=AXIS2_PLACEMENT_3D('',#1632,#1339,#1340);
#1235=AXIS2_PLACEMENT_3D('',#1638,#1344,#1345);
#1236=AXIS2_PLACEMENT_3D('',#1642,#1348,#1349);
#1237=AXIS2_PLACEMENT_3D('',#1646,#1352,#1353);
#1238=AXIS2_PLACEMENT_3D('',#1660,#1361,#1362);
#1239=AXIS2_PLACEMENT_3D('',#1682,#1374,#1375);
#1240=AXIS2_PLACEMENT_3D('',#1686,#1378,#1379);
#1241=AXIS2_PLACEMENT_3D('',#1688,#1381,#1382);
#1242=AXIS2_PLACEMENT_3D('',#1690,#1384,#1385);
#1243=AXIS2_PLACEMENT_3D('',#1691,#1386,#1387);
#1244=AXIS2_PLACEMENT_3D('',#1701,#1393,#1394);
#1245=AXIS2_PLACEMENT_3D('',#1711,#1400,#1401);
#1246=AXIS2_PLACEMENT_3D('',#1712,#1402,#1403);
#1247=AXIS2_PLACEMENT_3D('',#1713,#1404,#1405);
#1248=AXIS2_PLACEMENT_3D('',#1714,#1406,#1407);
#1249=AXIS2_PLACEMENT_3D('',#1720,#1411,#1412);
#1250=AXIS2_PLACEMENT_3D('',#1724,#1415,#1416);
#1251=AXIS2_PLACEMENT_3D('',#1730,#1420,#1421);
#1252=AXIS2_PLACEMENT_3D('',#1734,#1424,#1425);
#1253=AXIS2_PLACEMENT_3D('',#1740,#1429,#1430);
#1254=AXIS2_PLACEMENT_3D('',#1746,#1434,#1435);
#1255=AXIS2_PLACEMENT_3D('',#1760,#1444,#1445);
#1256=AXIS2_PLACEMENT_3D('',#1766,#1449,#1450);
#1257=AXIS2_PLACEMENT_3D('',#1770,#1453,#1454);
#1258=AXIS2_PLACEMENT_3D('',#1774,#1457,#1458);
#1259=AXIS2_PLACEMENT_3D('',#1776,#1460,#1461);
#1260=AXIS2_PLACEMENT_3D('',#1780,#1464,#1465);
#1261=AXIS2_PLACEMENT_3D('',#1782,#1467,#1468);
#1262=AXIS2_PLACEMENT_3D('',#1784,#1470,#1471);
#1263=AXIS2_PLACEMENT_3D('',#1786,#1473,#1474);
#1264=AXIS2_PLACEMENT_3D('',#1787,#1475,#1476);
#1265=AXIS2_PLACEMENT_3D('',#1788,#1477,#1478);
#1266=AXIS2_PLACEMENT_3D('',#1790,#1480,#1481);
#1267=AXIS2_PLACEMENT_3D('',#1796,#1485,#1486);
#1268=AXIS2_PLACEMENT_3D('',#1800,#1489,#1490);
#1269=AXIS2_PLACEMENT_3D('',#1804,#1493,#1494);
#1270=AXIS2_PLACEMENT_3D('',#1806,#1496,#1497);
#1271=AXIS2_PLACEMENT_3D('',#1807,#1498,#1499);
#1272=AXIS2_PLACEMENT_3D('',#1832,#1512,#1513);
#1273=AXIS2_PLACEMENT_3D('',#1838,#1517,#1518);
#1274=AXIS2_PLACEMENT_3D('',#1842,#1521,#1522);
#1275=AXIS2_PLACEMENT_3D('',#1848,#1526,#1527);
#1276=AXIS2_PLACEMENT_3D('',#1854,#1531,#1532);
#1277=AXIS2_PLACEMENT_3D('',#1860,#1536,#1537);
#1278=AXIS2_PLACEMENT_3D('',#1864,#1540,#1541);
#1279=AXIS2_PLACEMENT_3D('',#1866,#1543,#1544);
#1280=AXIS2_PLACEMENT_3D('',#1872,#1548,#1549);
#1281=AXIS2_PLACEMENT_3D('',#1874,#1551,#1552);
#1282=AXIS2_PLACEMENT_3D('',#1876,#1554,#1555);
#1283=AXIS2_PLACEMENT_3D('',#1878,#1557,#1558);
#1284=AXIS2_PLACEMENT_3D('',#1880,#1560,#1561);
#1285=AXIS2_PLACEMENT_3D('',#1881,#1562,#1563);
#1286=AXIS2_PLACEMENT_3D('',#1882,#1564,#1565);
#1287=DIRECTION('axis',(0.,0.,1.));
#1288=DIRECTION('refdir',(1.,0.,0.));
#1289=DIRECTION('center_axis',(0.,-1.60622544071927E-16,1.));
#1290=DIRECTION('ref_axis',(0.,-1.,-1.60622544071927E-16));
#1291=DIRECTION('',(0.,-1.,-1.60622544071927E-16));
#1292=DIRECTION('',(1.,0.,0.));
#1293=DIRECTION('',(0.,-1.,-1.60622544071927E-16));
#1294=DIRECTION('',(-1.,0.,0.));
#1295=DIRECTION('center_axis',(0.,1.,0.));
#1296=DIRECTION('ref_axis',(0.,0.,1.));
#1297=DIRECTION('',(0.,0.,-1.));
#1298=DIRECTION('',(-1.,0.,0.));
#1299=DIRECTION('',(0.,0.,-1.));
#1300=DIRECTION('',(1.,0.,0.));
#1301=DIRECTION('',(0.,0.,-1.));
#1302=DIRECTION('',(-1.,0.,1.0842021724855E-16));
#1303=DIRECTION('',(0.,0.,1.));
#1304=DIRECTION('',(1.,0.,0.));
#1305=DIRECTION('',(0.,0.,-1.));
#1306=DIRECTION('',(-1.,0.,1.0842021724855E-16));
#1307=DIRECTION('',(0.,0.,1.));
#1308=DIRECTION('',(1.,0.,0.));
#1309=DIRECTION('',(0.,0.,-1.));
#1310=DIRECTION('',(-1.,0.,1.0842021724855E-16));
#1311=DIRECTION('',(0.,0.,1.));
#1312=DIRECTION('center_axis',(0.,-1.,0.));
#1313=DIRECTION('ref_axis',(0.,0.,1.));
#1314=DIRECTION('center_axis',(0.,-1.,0.));
#1315=DIRECTION('ref_axis',(0.,0.,-1.));
#1316=DIRECTION('',(0.,0.,1.));
#1317=DIRECTION('',(0.,0.,-1.));
#1318=DIRECTION('',(1.,0.,-1.0842021724855E-16));
#1319=DIRECTION('center_axis',(1.,0.,0.));
#1320=DIRECTION('ref_axis',(0.,0.,-1.));
#1321=DIRECTION('',(0.,-1.,-1.60622544071927E-16));
#1322=DIRECTION('center_axis',(-1.,0.,0.));
#1323=DIRECTION('ref_axis',(0.,0.,1.));
#1324=DIRECTION('',(0.,-1.,-1.60622544071927E-16));
#1325=DIRECTION('center_axis',(-1.,0.,0.));
#1326=DIRECTION('ref_axis',(0.,0.,1.));
#1327=DIRECTION('',(0.,-1.,-1.60622544071927E-16));
#1328=DIRECTION('',(0.,-1.,-1.60622544071927E-16));
#1329=DIRECTION('',(0.,0.,-1.));
#1330=DIRECTION('center_axis',(0.,1.,0.));
#1331=DIRECTION('ref_axis',(0.,0.,1.));
#1332=DIRECTION('',(0.,-1.,0.));
#1333=DIRECTION('center_axis',(0.,-1.,0.));
#1334=DIRECTION('ref_axis',(0.,0.,-1.));
#1335=DIRECTION('center_axis',(-1.0842021724855E-16,1.60622544071927E-16,
-1.));
#1336=DIRECTION('ref_axis',(0.,1.,1.60622544071927E-16));
#1337=DIRECTION('',(0.,-1.,-1.60622544071927E-16));
#1338=DIRECTION('',(1.,0.,-1.0842021724855E-16));
#1339=DIRECTION('center_axis',(0.,-1.60622544071927E-16,1.));
#1340=DIRECTION('ref_axis',(0.,-1.,-1.60622544071927E-16));
#1341=DIRECTION('',(0.,-1.,-1.60622544071927E-16));
#1342=DIRECTION('',(0.,-1.,-1.60622544071927E-16));
#1343=DIRECTION('',(-1.,0.,0.));
#1344=DIRECTION('center_axis',(-1.,0.,0.));
#1345=DIRECTION('ref_axis',(0.,0.,1.));
#1346=DIRECTION('',(0.,-1.,-1.60622544071927E-16));
#1347=DIRECTION('',(0.,0.,-1.));
#1348=DIRECTION('center_axis',(-1.0842021724855E-16,1.60622544071927E-16,
-1.));
#1349=DIRECTION('ref_axis',(0.,1.,1.60622544071927E-16));
#1350=DIRECTION('',(0.,-1.,-1.60622544071927E-16));
#1351=DIRECTION('',(1.,0.,-1.0842021724855E-16));
#1352=DIRECTION('center_axis',(0.,0.,-1.));
#1353=DIRECTION('ref_axis',(-1.,0.,0.));
#1354=DIRECTION('',(0.,1.,0.));
#1355=DIRECTION('',(-1.,0.,2.16840434497101E-16));
#1356=DIRECTION('',(0.,1.,0.));
#1357=DIRECTION('',(-1.,0.,0.));
#1358=DIRECTION('',(0.,1.,0.));
#1359=DIRECTION('',(0.,-1.,0.));
#1360=DIRECTION('',(-1.,0.,0.));
#1361=DIRECTION('center_axis',(0.,0.,-1.));
#1362=DIRECTION('ref_axis',(-1.,0.,0.));
#1363=DIRECTION('',(0.,-1.,0.));
#1364=DIRECTION('',(0.,-1.,0.));
#1365=DIRECTION('',(-1.,0.,0.));
#1366=DIRECTION('',(-1.00856016045163E-16,1.,0.));
#1367=DIRECTION('',(-1.,0.,0.));
#1368=DIRECTION('',(2.01712032090326E-16,-1.,0.));
#1369=DIRECTION('',(-1.,0.,0.));
#1370=DIRECTION('',(-1.,0.,0.));
#1371=DIRECTION('',(0.,1.,0.));
#1372=DIRECTION('',(-1.,0.,0.));
#1373=DIRECTION('',(0.,1.,0.));
#1374=DIRECTION('center_axis',(1.,0.,0.));
#1375=DIRECTION('ref_axis',(0.,0.,-1.));
#1376=DIRECTION('',(0.,-1.,-1.60622544071927E-16));
#1377=DIRECTION('',(0.,0.,1.));
#1378=DIRECTION('center_axis',(1.,0.,0.));
#1379=DIRECTION('ref_axis',(0.,0.,-1.));
#1380=DIRECTION('',(0.,0.,1.));
#1381=DIRECTION('center_axis',(0.,-1.60622544071927E-16,1.));
#1382=DIRECTION('ref_axis',(0.,-1.,-1.60622544071927E-16));
#1383=DIRECTION('',(-1.,0.,0.));
#1384=DIRECTION('center_axis',(-1.0842021724855E-16,1.60622544071927E-16,
-1.));
#1385=DIRECTION('ref_axis',(0.,1.,1.60622544071927E-16));
#1386=DIRECTION('center_axis',(-1.,0.,0.));
#1387=DIRECTION('ref_axis',(0.,0.,1.));
#1388=DIRECTION('',(0.,-7.88510670898549E-16,-1.));
#1389=DIRECTION('',(0.,0.,-1.));
#1390=DIRECTION('',(0.,-1.,-3.01167270134863E-17));
#1391=DIRECTION('',(0.,1.25704599708464E-16,1.));
#1392=DIRECTION('',(0.,1.,0.));
#1393=DIRECTION('center_axis',(1.,0.,0.));
#1394=DIRECTION('ref_axis',(0.,0.,-1.));
#1395=DIRECTION('',(0.,-7.88510670898549E-16,-1.));
#1396=DIRECTION('',(0.,-1.,0.));
#1397=DIRECTION('',(0.,1.25704599708464E-16,1.));
#1398=DIRECTION('',(0.,-1.,-3.01167270134863E-17));
#1399=DIRECTION('',(0.,0.,-1.));
#1400=DIRECTION('center_axis',(0.,-1.,0.));
#1401=DIRECTION('ref_axis',(0.,0.,-1.));
#1402=DIRECTION('center_axis',(0.,-1.,0.));
#1403=DIRECTION('ref_axis',(0.,0.,-1.));
#1404=DIRECTION('center_axis',(0.,-1.,0.));
#1405=DIRECTION('ref_axis',(0.,0.,-1.));
#1406=DIRECTION('center_axis',(0.,1.,0.));
#1407=DIRECTION('ref_axis',(0.,0.,1.));
#1408=DIRECTION('',(0.,0.,1.));
#1409=DIRECTION('',(1.,0.,-1.0842021724855E-16));
#1410=DIRECTION('',(0.,0.,-1.));
#1411=DIRECTION('center_axis',(1.,0.,0.));
#1412=DIRECTION('ref_axis',(0.,0.,-1.));
#1413=DIRECTION('',(0.,0.,-1.));
#1414=DIRECTION('',(0.,1.,0.));
#1415=DIRECTION('center_axis',(0.,-1.,0.));
#1416=DIRECTION('ref_axis',(0.,0.,-1.));
#1417=DIRECTION('',(1.,0.,0.));
#1418=DIRECTION('',(0.,-3.21245088143853E-16,1.));
#1419=DIRECTION('',(-1.,0.,0.));
#1420=DIRECTION('center_axis',(-1.,0.,0.));
#1421=DIRECTION('ref_axis',(0.,0.,1.));
#1422=DIRECTION('',(0.,0.,1.));
#1423=DIRECTION('',(0.,1.,0.));
#1424=DIRECTION('center_axis',(0.,-1.,0.));
#1425=DIRECTION('ref_axis',(0.,0.,-1.));
#1426=DIRECTION('',(1.,0.,0.));
#1427=DIRECTION('',(-1.,0.,0.));
#1428=DIRECTION('',(0.,-3.21245088143853E-16,1.));
#1429=DIRECTION('center_axis',(-1.,-2.01712032090326E-16,0.));
#1430=DIRECTION('ref_axis',(2.01712032090326E-16,-1.,0.));
#1431=DIRECTION('',(0.,0.,1.));
#1432=DIRECTION('',(2.01712032090326E-16,-1.,0.));
#1433=DIRECTION('',(0.,0.,1.));
#1434=DIRECTION('center_axis',(0.,-1.,1.25704599708464E-16));
#1435=DIRECTION('ref_axis',(0.,-1.25704599708464E-16,-1.));
#1436=DIRECTION('',(0.,1.25704599708464E-16,1.));
#1437=DIRECTION('',(-1.,0.,0.));
#1438=DIRECTION('',(-1.,0.,0.));
#1439=DIRECTION('',(0.,0.,1.));
#1440=DIRECTION('',(-1.,0.,0.));
#1441=DIRECTION('',(-1.,0.,0.));
#1442=DIRECTION('',(0.,1.25704599708464E-16,1.));
#1443=DIRECTION('',(-1.,0.,0.));
#1444=DIRECTION('center_axis',(1.,0.,0.));
#1445=DIRECTION('ref_axis',(0.,0.,-1.));
#1446=DIRECTION('',(0.,0.,1.));
#1447=DIRECTION('',(0.,-1.,-2.35696124453371E-16));
#1448=DIRECTION('',(0.,3.61400724161835E-16,-1.));
#1449=DIRECTION('center_axis',(0.,1.,3.61400724161835E-16));
#1450=DIRECTION('ref_axis',(0.,-3.61400724161835E-16,1.));
#1451=DIRECTION('',(0.,3.61400724161835E-16,-1.));
#1452=DIRECTION('',(-1.,0.,0.));
#1453=DIRECTION('center_axis',(1.,1.00856016045163E-16,0.));
#1454=DIRECTION('ref_axis',(-1.00856016045163E-16,1.,0.));
#1455=DIRECTION('',(0.,0.,1.));
#1456=DIRECTION('',(-1.00856016045163E-16,1.,0.));
#1457=DIRECTION('center_axis',(0.,1.,-7.88510670898549E-16));
#1458=DIRECTION('ref_axis',(0.,7.88510670898549E-16,1.));
#1459=DIRECTION('',(-1.,0.,0.));
#1460=DIRECTION('center_axis',(1.,0.,0.));
#1461=DIRECTION('ref_axis',(0.,0.,-1.));
#1462=DIRECTION('',(0.,-1.,-2.35696124453371E-16));
#1463=DIRECTION('',(0.,0.,1.));
#1464=DIRECTION('center_axis',(0.,1.,-7.88510670898549E-16));
#1465=DIRECTION('ref_axis',(0.,7.88510670898549E-16,1.));
#1466=DIRECTION('',(-1.,0.,0.));
#1467=DIRECTION('center_axis',(0.,-1.,0.));
#1468=DIRECTION('ref_axis',(0.,0.,-1.));
#1469=DIRECTION('',(-1.,0.,0.));
#1470=DIRECTION('center_axis',(0.,3.01167270134863E-17,-1.));
#1471=DIRECTION('ref_axis',(0.,1.,3.01167270134863E-17));
#1472=DIRECTION('',(0.,-1.,-3.01167270134863E-17));
#1473=DIRECTION('center_axis',(0.,0.,-1.));
#1474=DIRECTION('ref_axis',(-1.,0.,0.));
#1475=DIRECTION('center_axis',(0.,0.,-1.));
#1476=DIRECTION('ref_axis',(-1.,0.,0.));
#1477=DIRECTION('center_axis',(0.,3.01167270134863E-17,-1.));
#1478=DIRECTION('ref_axis',(0.,1.,3.01167270134863E-17));
#1479=DIRECTION('',(0.,-1.,-3.01167270134863E-17));
#1480=DIRECTION('center_axis',(0.,1.4954512723938E-16,-1.));
#1481=DIRECTION('ref_axis',(0.,1.,1.4954512723938E-16));
#1482=DIRECTION('',(0.,1.,1.4954512723938E-16));
#1483=DIRECTION('',(1.,0.,0.));
#1484=DIRECTION('',(0.,1.,1.4954512723938E-16));
#1485=DIRECTION('center_axis',(1.,0.,0.));
#1486=DIRECTION('ref_axis',(0.,0.,-1.));
#1487=DIRECTION('',(0.,1.60622544071927E-16,-1.));
#1488=DIRECTION('',(0.,-1.,0.));
#1489=DIRECTION('center_axis',(1.,0.,0.));
#1490=DIRECTION('ref_axis',(0.,0.,-1.));
#1491=DIRECTION('',(0.,-1.,0.));
#1492=DIRECTION('',(0.,1.60622544071927E-16,-1.));
#1493=DIRECTION('center_axis',(0.,0.,1.));
#1494=DIRECTION('ref_axis',(1.,0.,0.));
#1495=DIRECTION('',(1.,0.,0.));
#1496=DIRECTION('center_axis',(0.,2.3569612445337E-16,-1.));
#1497=DIRECTION('ref_axis',(0.,1.,2.3569612445337E-16));
#1498=DIRECTION('center_axis',(0.,-1.,-1.60622544071927E-16));
#1499=DIRECTION('ref_axis',(0.,1.60622544071927E-16,-1.));
#1500=DIRECTION('',(0.,-1.60622544071927E-16,1.));
#1501=DIRECTION('',(-1.,0.,0.));
#1502=DIRECTION('',(0.,1.60622544071927E-16,-1.));
#1503=DIRECTION('',(1.,1.74147311232931E-32,-1.0842021724855E-16));
#1504=DIRECTION('',(0.,-1.60622544071927E-16,1.));
#1505=DIRECTION('',(-1.,0.,0.));
#1506=DIRECTION('',(0.,1.60622544071927E-16,-1.));
#1507=DIRECTION('',(1.,1.74147311232931E-32,-1.0842021724855E-16));
#1508=DIRECTION('',(0.,-1.60622544071927E-16,1.));
#1509=DIRECTION('',(-1.,0.,0.));
#1510=DIRECTION('',(0.,1.60622544071927E-16,-1.));
#1511=DIRECTION('',(1.,1.74147311232931E-32,-1.0842021724855E-16));
#1512=DIRECTION('center_axis',(0.,-1.60622544071927E-16,1.));
#1513=DIRECTION('ref_axis',(0.,-1.,-1.60622544071927E-16));
#1514=DIRECTION('',(0.,-1.,-1.60622544071927E-16));
#1515=DIRECTION('',(0.,-1.,-1.60622544071927E-16));
#1516=DIRECTION('',(-1.,0.,0.));
#1517=DIRECTION('center_axis',(1.,0.,0.));
#1518=DIRECTION('ref_axis',(0.,0.,-1.));
#1519=DIRECTION('',(0.,-1.,-1.60622544071927E-16));
#1520=DIRECTION('',(0.,0.,1.));
#1521=DIRECTION('center_axis',(-1.0842021724855E-16,1.60622544071927E-16,
-1.));
#1522=DIRECTION('ref_axis',(0.,1.,1.60622544071927E-16));
#1523=DIRECTION('',(0.,-1.,-1.60622544071927E-16));
#1524=DIRECTION('',(0.,-1.,-1.60622544071927E-16));
#1525=DIRECTION('',(1.,0.,-1.0842021724855E-16));
#1526=DIRECTION('center_axis',(-1.0842021724855E-16,1.60622544071927E-16,
-1.));
#1527=DIRECTION('ref_axis',(0.,1.,1.60622544071927E-16));
#1528=DIRECTION('',(0.,-1.,-1.60622544071927E-16));
#1529=DIRECTION('',(0.,-1.,-1.60622544071927E-16));
#1530=DIRECTION('',(1.,0.,-1.0842021724855E-16));
#1531=DIRECTION('center_axis',(0.,-1.60622544071927E-16,1.));
#1532=DIRECTION('ref_axis',(0.,-1.,-1.60622544071927E-16));
#1533=DIRECTION('',(0.,-1.,-1.60622544071927E-16));
#1534=DIRECTION('',(0.,-1.,-1.60622544071927E-16));
#1535=DIRECTION('',(-1.,0.,0.));
#1536=DIRECTION('center_axis',(-1.0842021724855E-16,1.60622544071927E-16,
-1.));
#1537=DIRECTION('ref_axis',(0.,1.,1.60622544071927E-16));
#1538=DIRECTION('',(0.,-1.,-1.60622544071927E-16));
#1539=DIRECTION('',(1.,0.,-1.0842021724855E-16));
#1540=DIRECTION('center_axis',(-1.,0.,0.));
#1541=DIRECTION('ref_axis',(0.,0.,1.));
#1542=DIRECTION('',(0.,0.,-1.));
#1543=DIRECTION('center_axis',(0.,-1.60622544071927E-16,1.));
#1544=DIRECTION('ref_axis',(0.,-1.,-1.60622544071927E-16));
#1545=DIRECTION('',(0.,-1.,-1.60622544071927E-16));
#1546=DIRECTION('',(0.,-1.,-1.60622544071927E-16));
#1547=DIRECTION('',(-1.,0.,0.));
#1548=DIRECTION('center_axis',(1.,0.,0.));
#1549=DIRECTION('ref_axis',(0.,0.,-1.));
#1550=DIRECTION('',(0.,0.,1.));
#1551=DIRECTION('center_axis',(1.,0.,0.));
#1552=DIRECTION('ref_axis',(0.,0.,-1.));
#1553=DIRECTION('',(0.,0.,1.));
#1554=DIRECTION('center_axis',(-1.,0.,0.));
#1555=DIRECTION('ref_axis',(0.,0.,1.));
#1556=DIRECTION('',(0.,0.,-1.));
#1557=DIRECTION('center_axis',(-1.,0.,0.));
#1558=DIRECTION('ref_axis',(0.,0.,1.));
#1559=DIRECTION('',(0.,0.,-1.));
#1560=DIRECTION('center_axis',(0.,-1.,0.));
#1561=DIRECTION('ref_axis',(0.,0.,-1.));
#1562=DIRECTION('center_axis',(0.,-1.,0.));
#1563=DIRECTION('ref_axis',(0.,0.,-1.));
#1564=DIRECTION('center_axis',(0.,-1.,0.));
#1565=DIRECTION('ref_axis',(0.,0.,-1.));
#1566=CARTESIAN_POINT('',(0.,0.,0.));
#1567=CARTESIAN_POINT('Origin',(-0.25,1.25,-0.249999999999999));
#1568=CARTESIAN_POINT('',(-0.25,-3.85,-0.25));
#1569=CARTESIAN_POINT('',(-0.25,-6.85,-0.25));
#1570=CARTESIAN_POINT('',(-0.25,1.25,-0.249999999999999));
#1571=CARTESIAN_POINT('',(0.25,-3.85,-0.25));
#1572=CARTESIAN_POINT('',(-4.,-3.85,-0.25));
#1573=CARTESIAN_POINT('',(0.25,-6.85,-0.25));
#1574=CARTESIAN_POINT('',(0.25,1.25,-0.249999999999999));
#1575=CARTESIAN_POINT('',(-0.25,-6.85,-0.25));
#1576=CARTESIAN_POINT('Origin',(-4.,-3.85,3.1));
#1577=CARTESIAN_POINT('',(4.,-3.85,2.));
#1578=CARTESIAN_POINT('',(4.,-3.85,-2.2));
#1579=CARTESIAN_POINT('',(4.,-3.85,3.1));
#1580=CARTESIAN_POINT('',(-4.,-3.85,2.));
#1581=CARTESIAN_POINT('',(4.,-3.85,2.));
#1582=CARTESIAN_POINT('',(-4.,-3.85,-2.2));
#1583=CARTESIAN_POINT('',(-4.,-3.85,3.1));
#1584=CARTESIAN_POINT('',(-4.,-3.85,-2.2));
#1585=CARTESIAN_POINT('',(-2.25,-3.85,0.25));
#1586=CARTESIAN_POINT('',(-2.25,-3.85,-0.250000000000001));
#1587=CARTESIAN_POINT('',(-2.25,-3.85,3.1));
#1588=CARTESIAN_POINT('',(-1.75,-3.85,0.25));
#1589=CARTESIAN_POINT('',(-4.,-3.85,0.25));
#1590=CARTESIAN_POINT('',(-1.75,-3.85,-0.250000000000001));
#1591=CARTESIAN_POINT('',(-1.75,-3.85,3.1));
#1592=CARTESIAN_POINT('',(-4.,-3.85,-0.250000000000001));
#1593=CARTESIAN_POINT('',(1.75,-3.85,0.250000000000001));
#1594=CARTESIAN_POINT('',(1.75,-3.85,-0.249999999999999));
#1595=CARTESIAN_POINT('',(1.75,-3.85,3.1));
#1596=CARTESIAN_POINT('',(2.25,-3.85,0.250000000000002));
#1597=CARTESIAN_POINT('',(-4.,-3.85,0.250000000000002));
#1598=CARTESIAN_POINT('',(2.25,-3.85,-0.249999999999999));
#1599=CARTESIAN_POINT('',(2.25,-3.85,3.1));
#1600=CARTESIAN_POINT('',(-4.,-3.85,-0.249999999999999));
#1601=CARTESIAN_POINT('',(-0.25,-3.85,0.25));
#1602=CARTESIAN_POINT('',(-0.25,-3.85,3.1));
#1603=CARTESIAN_POINT('',(0.25,-3.85,0.250000000000001));
#1604=CARTESIAN_POINT('',(-4.,-3.85,0.250000000000001));
#1605=CARTESIAN_POINT('',(0.25,-3.85,3.1));
#1606=CARTESIAN_POINT('',(3.5,-3.85,-2.1));
#1607=CARTESIAN_POINT('Origin',(3.5,-3.85,-1.7));
#1608=CARTESIAN_POINT('Origin',(-0.25,-6.85,-0.25));
#1609=CARTESIAN_POINT('',(-0.25,-6.85,0.25));
#1610=CARTESIAN_POINT('',(-0.25,-6.85,0.25));
#1611=CARTESIAN_POINT('',(0.25,-6.85,0.25));
#1612=CARTESIAN_POINT('',(0.25,-6.85,0.25));
#1613=CARTESIAN_POINT('',(-0.25,-6.85,0.25));
#1614=CARTESIAN_POINT('Origin',(-0.25,1.25,0.250000000000001));
#1615=CARTESIAN_POINT('',(-0.25,1.25,0.250000000000001));
#1616=CARTESIAN_POINT('Origin',(0.25,1.25,0.250000000000001));
#1617=CARTESIAN_POINT('',(0.25,1.25,0.250000000000001));
#1618=CARTESIAN_POINT('Origin',(2.25,1.25,0.250000000000002));
#1619=CARTESIAN_POINT('',(2.25,-6.85,-0.249999999999999));
#1620=CARTESIAN_POINT('',(2.25,1.25,-0.249999999999998));
#1621=CARTESIAN_POINT('',(2.25,-6.85,0.250000000000001));
#1622=CARTESIAN_POINT('',(2.25,1.25,0.250000000000002));
#1623=CARTESIAN_POINT('',(2.25,-6.85,0.250000000000001));
#1624=CARTESIAN_POINT('Origin',(3.5,-5.05,-1.7));
#1625=CARTESIAN_POINT('',(3.5,-5.05,-2.1));
#1626=CARTESIAN_POINT('',(3.5,-5.05,-2.1));
#1627=CARTESIAN_POINT('Origin',(3.5,-5.05,-1.7));
#1628=CARTESIAN_POINT('Origin',(1.75,1.25,0.250000000000002));
#1629=CARTESIAN_POINT('',(1.75,-6.85,0.250000000000001));
#1630=CARTESIAN_POINT('',(1.75,1.25,0.250000000000002));
#1631=CARTESIAN_POINT('',(1.75,-6.85,0.250000000000001));
#1632=CARTESIAN_POINT('Origin',(-2.25,1.25,-0.25));
#1633=CARTESIAN_POINT('',(-2.25,-6.85,-0.250000000000001));
#1634=CARTESIAN_POINT('',(-2.25,1.25,-0.25));
#1635=CARTESIAN_POINT('',(-1.75,-6.85,-0.250000000000001));
#1636=CARTESIAN_POINT('',(-1.75,1.25,-0.25));
#1637=CARTESIAN_POINT('',(-2.25,-6.85,-0.250000000000001));
#1638=CARTESIAN_POINT('Origin',(-1.75,1.25,0.25));
#1639=CARTESIAN_POINT('',(-1.75,-6.85,0.249999999999999));
#1640=CARTESIAN_POINT('',(-1.75,1.25,0.25));
#1641=CARTESIAN_POINT('',(-1.75,-6.85,0.249999999999999));
#1642=CARTESIAN_POINT('Origin',(-2.25,1.25,0.25));
#1643=CARTESIAN_POINT('',(-2.25,-6.85,0.249999999999999));
#1644=CARTESIAN_POINT('',(-2.25,1.25,0.25));
#1645=CARTESIAN_POINT('',(-2.25,-6.85,0.249999999999999));
#1646=CARTESIAN_POINT('Origin',(-4.,3.85,-2.2));
#1647=CARTESIAN_POINT('',(-2.,2.55,-2.2));
#1648=CARTESIAN_POINT('',(-2.,3.85,-2.2));
#1649=CARTESIAN_POINT('',(-2.,2.55,-2.2));
#1650=CARTESIAN_POINT('',(2.,2.55,-2.2));
#1651=CARTESIAN_POINT('',(-2.,2.55,-2.2));
#1652=CARTESIAN_POINT('',(2.,3.85,-2.2));
#1653=CARTESIAN_POINT('',(2.,2.55,-2.2));
#1654=CARTESIAN_POINT('',(4.,3.85,-2.2));
#1655=CARTESIAN_POINT('',(-4.,3.85,-2.2));
#1656=CARTESIAN_POINT('',(4.,-3.85,-2.2));
#1657=CARTESIAN_POINT('',(-4.,3.85,-2.2));
#1658=CARTESIAN_POINT('',(-4.,-3.85,-2.2));
#1659=CARTESIAN_POINT('',(-4.,3.85,-2.2));
#1660=CARTESIAN_POINT('Origin',(4.,-2.25,2.));
#1661=CARTESIAN_POINT('',(-4.,-2.25,2.));
#1662=CARTESIAN_POINT('',(-4.,-2.25,2.));
#1663=CARTESIAN_POINT('',(4.,-2.25,2.));
#1664=CARTESIAN_POINT('',(4.,-2.25,2.));
#1665=CARTESIAN_POINT('',(2.1,-2.25,2.));
#1666=CARTESIAN_POINT('',(4.,-2.25,2.));
#1667=CARTESIAN_POINT('',(2.1,2.05,2.));
#1668=CARTESIAN_POINT('',(2.1,2.05,2.));
#1669=CARTESIAN_POINT('',(-2.1,2.05,2.));
#1670=CARTESIAN_POINT('',(-2.1,2.05,2.));
#1671=CARTESIAN_POINT('',(-2.1,-2.25,2.));
#1672=CARTESIAN_POINT('',(-2.1,2.05,2.));
#1673=CARTESIAN_POINT('',(4.,-2.25,2.));
#1674=CARTESIAN_POINT('',(0.8,1.09,2.));
#1675=CARTESIAN_POINT('',(-0.8,1.09,2.));
#1676=CARTESIAN_POINT('',(0.8,1.09,2.));
#1677=CARTESIAN_POINT('',(0.8,-0.75,2.));
#1678=CARTESIAN_POINT('',(0.8,-0.75,2.));
#1679=CARTESIAN_POINT('',(-0.8,-0.75,2.));
#1680=CARTESIAN_POINT('',(0.8,-0.75,2.));
#1681=CARTESIAN_POINT('',(-0.8,-0.75,2.));
#1682=CARTESIAN_POINT('Origin',(1.75,1.25,0.250000000000002));
#1683=CARTESIAN_POINT('',(1.75,-6.85,-0.249999999999999));
#1684=CARTESIAN_POINT('',(1.75,1.25,-0.249999999999998));
#1685=CARTESIAN_POINT('',(1.75,-6.85,0.250000000000001));
#1686=CARTESIAN_POINT('Origin',(-2.25,1.25,0.25));
#1687=CARTESIAN_POINT('',(-2.25,-6.85,0.249999999999999));
#1688=CARTESIAN_POINT('Origin',(1.75,1.25,-0.249999999999998));
#1689=CARTESIAN_POINT('',(1.75,-6.85,-0.249999999999999));
#1690=CARTESIAN_POINT('Origin',(-0.25,1.25,0.250000000000001));
#1691=CARTESIAN_POINT('Origin',(4.,-3.85,3.1));
#1692=CARTESIAN_POINT('',(4.,-2.25,3.1));
#1693=CARTESIAN_POINT('',(4.,-2.25,3.1));
#1694=CARTESIAN_POINT('',(4.,3.85,-0.35));
#1695=CARTESIAN_POINT('',(4.,3.85,3.1));
#1696=CARTESIAN_POINT('',(4.,2.05,-0.35));
#1697=CARTESIAN_POINT('',(4.,2.05,-0.35));
#1698=CARTESIAN_POINT('',(4.,2.05,3.1));
#1699=CARTESIAN_POINT('',(4.,2.05,3.1));
#1700=CARTESIAN_POINT('',(4.,-3.85,3.1));
#1701=CARTESIAN_POINT('Origin',(-4.,-3.85,3.1));
#1702=CARTESIAN_POINT('',(-4.,-2.25,3.1));
#1703=CARTESIAN_POINT('',(-4.,-2.25,3.1));
#1704=CARTESIAN_POINT('',(-4.,2.05,3.1));
#1705=CARTESIAN_POINT('',(-4.,-3.85,3.1));
#1706=CARTESIAN_POINT('',(-4.,2.05,-0.35));
#1707=CARTESIAN_POINT('',(-4.,2.05,3.1));
#1708=CARTESIAN_POINT('',(-4.,3.85,-0.35));
#1709=CARTESIAN_POINT('',(-4.,2.05,-0.35));
#1710=CARTESIAN_POINT('',(-4.,3.85,3.1));
#1711=CARTESIAN_POINT('Origin',(1.75,-6.85,-0.249999999999999));
#1712=CARTESIAN_POINT('Origin',(3.5,-5.05,-1.7));
#1713=CARTESIAN_POINT('Origin',(-2.25,-6.85,-0.250000000000001));
#1714=CARTESIAN_POINT('Origin',(-2.,2.55,-1.4));
#1715=CARTESIAN_POINT('',(-2.,2.55,-1.4));
#1716=CARTESIAN_POINT('',(-2.,2.55,-2.2));
#1717=CARTESIAN_POINT('',(2.,2.55,-1.4));
#1718=CARTESIAN_POINT('',(-2.,2.55,-1.4));
#1719=CARTESIAN_POINT('',(2.,2.55,-2.2));
#1720=CARTESIAN_POINT('Origin',(2.,2.55,-2.2));
#1721=CARTESIAN_POINT('',(2.,3.85,-1.4));
#1722=CARTESIAN_POINT('',(2.,3.85,-2.2));
#1723=CARTESIAN_POINT('',(2.,2.55,-1.4));
#1724=CARTESIAN_POINT('Origin',(-4.,3.85,3.1));
#1725=CARTESIAN_POINT('',(3.2,3.85,-1.4));
#1726=CARTESIAN_POINT('',(-3.2,3.85,-1.4));
#1727=CARTESIAN_POINT('',(3.2,3.85,-0.35));
#1728=CARTESIAN_POINT('',(3.2,3.85,-1.4));
#1729=CARTESIAN_POINT('',(4.,3.85,-0.35));
#1730=CARTESIAN_POINT('Origin',(-2.,2.55,-2.2));
#1731=CARTESIAN_POINT('',(-2.,3.85,-1.4));
#1732=CARTESIAN_POINT('',(-2.,3.85,-2.2));
#1733=CARTESIAN_POINT('',(-2.,2.55,-1.4));
#1734=CARTESIAN_POINT('Origin',(-4.,3.85,3.1));
#1735=CARTESIAN_POINT('',(-3.2,3.85,-1.4));
#1736=CARTESIAN_POINT('',(-3.2,3.85,-1.4));
#1737=CARTESIAN_POINT('',(-3.2,3.85,-0.35));
#1738=CARTESIAN_POINT('',(4.,3.85,-0.35));
#1739=CARTESIAN_POINT('',(-3.2,3.85,-1.4));
#1740=CARTESIAN_POINT('Origin',(-2.1,2.05,-4.01082357085949));
#1741=CARTESIAN_POINT('',(-2.1,2.05,3.1));
#1742=CARTESIAN_POINT('',(-2.1,2.05,-4.01082357085949));
#1743=CARTESIAN_POINT('',(-2.1,-2.25,3.1));
#1744=CARTESIAN_POINT('',(-2.1,2.05,3.1));
#1745=CARTESIAN_POINT('',(-2.1,-2.25,-4.01082357085949));
#1746=CARTESIAN_POINT('Origin',(4.,2.05,3.1));
#1747=CARTESIAN_POINT('',(-3.2,2.05,-0.35));
#1748=CARTESIAN_POINT('',(-3.2,2.05,1.3));
#1749=CARTESIAN_POINT('',(-3.2,2.05,3.1));
#1750=CARTESIAN_POINT('',(4.,2.05,-0.35));
#1751=CARTESIAN_POINT('',(4.,2.05,3.1));
#1752=CARTESIAN_POINT('',(2.1,2.05,3.1));
#1753=CARTESIAN_POINT('',(2.1,2.05,-4.01082357085949));
#1754=CARTESIAN_POINT('',(4.,2.05,3.1));
#1755=CARTESIAN_POINT('',(3.2,2.05,-0.35));
#1756=CARTESIAN_POINT('',(4.,2.05,-0.35));
#1757=CARTESIAN_POINT('',(3.2,2.05,1.3));
#1758=CARTESIAN_POINT('',(3.2,2.05,3.1));
#1759=CARTESIAN_POINT('',(4.,2.05,1.3));
#1760=CARTESIAN_POINT('Origin',(0.8,1.09,2.));
#1761=CARTESIAN_POINT('',(0.8,1.09,2.6));
#1762=CARTESIAN_POINT('',(0.8,1.09,2.));
#1763=CARTESIAN_POINT('',(0.8,-0.75,2.6));
#1764=CARTESIAN_POINT('',(0.8,1.09,2.6));
#1765=CARTESIAN_POINT('',(0.8,-0.75,2.));
#1766=CARTESIAN_POINT('Origin',(0.8,-0.75,2.));
#1767=CARTESIAN_POINT('',(-0.8,-0.75,2.6));
#1768=CARTESIAN_POINT('',(-0.8,-0.75,2.));
#1769=CARTESIAN_POINT('',(0.8,-0.75,2.6));
#1770=CARTESIAN_POINT('Origin',(2.1,2.05,-4.01082357085949));
#1771=CARTESIAN_POINT('',(2.1,-2.25,3.1));
#1772=CARTESIAN_POINT('',(2.1,-2.25,-4.01082357085949));
#1773=CARTESIAN_POINT('',(2.1,2.05,3.1));
#1774=CARTESIAN_POINT('Origin',(4.,-2.25,3.1));
#1775=CARTESIAN_POINT('',(4.,-2.25,3.1));
#1776=CARTESIAN_POINT('Origin',(-0.8,1.09,2.));
#1777=CARTESIAN_POINT('',(-0.8,1.09,2.6));
#1778=CARTESIAN_POINT('',(-0.8,1.09,2.6));
#1779=CARTESIAN_POINT('',(-0.8,1.09,2.));
#1780=CARTESIAN_POINT('Origin',(4.,-2.25,3.1));
#1781=CARTESIAN_POINT('',(4.,-2.25,3.1));
#1782=CARTESIAN_POINT('Origin',(0.8,1.09,2.));
#1783=CARTESIAN_POINT('',(0.8,1.09,2.6));
#1784=CARTESIAN_POINT('Origin',(4.,2.05,-0.35));
#1785=CARTESIAN_POINT('',(3.2,2.05,-0.35));
#1786=CARTESIAN_POINT('Origin',(-4.,3.85,3.1));
#1787=CARTESIAN_POINT('Origin',(-4.,3.85,3.1));
#1788=CARTESIAN_POINT('Origin',(4.,2.05,-0.35));
#1789=CARTESIAN_POINT('',(-3.2,2.05,-0.35));
#1790=CARTESIAN_POINT('Origin',(-3.2,3.85,-1.4));
#1791=CARTESIAN_POINT('',(-3.2,-1.95,-1.4));
#1792=CARTESIAN_POINT('',(-3.2,3.85,-1.4));
#1793=CARTESIAN_POINT('',(3.2,-1.95,-1.4));
#1794=CARTESIAN_POINT('',(-3.2,-1.95,-1.4));
#1795=CARTESIAN_POINT('',(3.2,3.85,-1.4));
#1796=CARTESIAN_POINT('Origin',(3.2,3.85,-1.4));
#1797=CARTESIAN_POINT('',(3.2,-1.95,1.3));
#1798=CARTESIAN_POINT('',(3.2,-1.95,-1.4));
#1799=CARTESIAN_POINT('',(3.2,-1.95,1.3));
#1800=CARTESIAN_POINT('Origin',(-3.2,3.85,-1.4));
#1801=CARTESIAN_POINT('',(-3.2,-1.95,1.3));
#1802=CARTESIAN_POINT('',(-3.2,-1.95,1.3));
#1803=CARTESIAN_POINT('',(-3.2,-1.95,-1.4));
#1804=CARTESIAN_POINT('Origin',(-3.2,-1.95,1.3));
#1805=CARTESIAN_POINT('',(-3.2,-1.95,1.3));
#1806=CARTESIAN_POINT('Origin',(0.8,1.09,2.6));
#1807=CARTESIAN_POINT('Origin',(-3.2,-1.95,-1.4));
#1808=CARTESIAN_POINT('',(-2.25,-1.95,-0.25));
#1809=CARTESIAN_POINT('',(-2.25,-1.95,0.25));
#1810=CARTESIAN_POINT('',(-2.25,-1.95,-1.4));
#1811=CARTESIAN_POINT('',(-1.75,-1.95,-0.25));
#1812=CARTESIAN_POINT('',(-3.2,-1.95,-0.25));
#1813=CARTESIAN_POINT('',(-1.75,-1.95,0.25));
#1814=CARTESIAN_POINT('',(-1.75,-1.95,-1.4));
#1815=CARTESIAN_POINT('',(-3.2,-1.95,0.25));
#1816=CARTESIAN_POINT('',(1.75,-1.95,-0.249999999999999));
#1817=CARTESIAN_POINT('',(1.75,-1.95,0.250000000000001));
#1818=CARTESIAN_POINT('',(1.75,-1.95,-1.4));
#1819=CARTESIAN_POINT('',(2.25,-1.95,-0.249999999999999));
#1820=CARTESIAN_POINT('',(-3.2,-1.95,-0.249999999999999));
#1821=CARTESIAN_POINT('',(2.25,-1.95,0.250000000000002));
#1822=CARTESIAN_POINT('',(2.25,-1.95,-1.4));
#1823=CARTESIAN_POINT('',(-3.2,-1.95,0.250000000000002));
#1824=CARTESIAN_POINT('',(-0.25,-1.95,-0.249999999999999));
#1825=CARTESIAN_POINT('',(-0.25,-1.95,0.250000000000001));
#1826=CARTESIAN_POINT('',(-0.25,-1.95,-1.4));
#1827=CARTESIAN_POINT('',(0.25,-1.95,-0.249999999999999));
#1828=CARTESIAN_POINT('',(-3.2,-1.95,-0.249999999999999));
#1829=CARTESIAN_POINT('',(0.25,-1.95,0.250000000000001));
#1830=CARTESIAN_POINT('',(0.25,-1.95,-1.4));
#1831=CARTESIAN_POINT('',(-3.2,-1.95,0.250000000000001));
#1832=CARTESIAN_POINT('Origin',(1.75,1.25,-0.249999999999998));
#1833=CARTESIAN_POINT('',(2.25,1.25,-0.249999999999998));
#1834=CARTESIAN_POINT('',(2.25,1.25,-0.249999999999998));
#1835=CARTESIAN_POINT('',(1.75,1.25,-0.249999999999998));
#1836=CARTESIAN_POINT('',(1.75,1.25,-0.249999999999998));
#1837=CARTESIAN_POINT('',(1.75,1.25,-0.249999999999998));
#1838=CARTESIAN_POINT('Origin',(1.75,1.25,0.250000000000002));
#1839=CARTESIAN_POINT('',(1.75,1.25,0.250000000000002));
#1840=CARTESIAN_POINT('',(1.75,1.25,0.250000000000002));
#1841=CARTESIAN_POINT('',(1.75,1.25,0.250000000000002));
#1842=CARTESIAN_POINT('Origin',(-2.25,1.25,0.25));
#1843=CARTESIAN_POINT('',(-2.25,1.25,0.25));
#1844=CARTESIAN_POINT('',(-2.25,1.25,0.25));
#1845=CARTESIAN_POINT('',(-1.75,1.25,0.25));
#1846=CARTESIAN_POINT('',(-1.75,1.25,0.25));
#1847=CARTESIAN_POINT('',(-2.25,1.25,0.25));
#1848=CARTESIAN_POINT('Origin',(-0.25,1.25,0.250000000000001));
#1849=CARTESIAN_POINT('',(-0.25,1.25,0.250000000000001));
#1850=CARTESIAN_POINT('',(-0.25,1.25,0.250000000000001));
#1851=CARTESIAN_POINT('',(0.25,1.25,0.250000000000001));
#1852=CARTESIAN_POINT('',(0.25,1.25,0.250000000000001));
#1853=CARTESIAN_POINT('',(-0.25,1.25,0.250000000000001));
#1854=CARTESIAN_POINT('Origin',(-0.25,1.25,-0.249999999999999));
#1855=CARTESIAN_POINT('',(0.25,1.25,-0.249999999999999));
#1856=CARTESIAN_POINT('',(0.25,1.25,-0.249999999999999));
#1857=CARTESIAN_POINT('',(-0.25,1.25,-0.249999999999999));
#1858=CARTESIAN_POINT('',(-0.25,1.25,-0.249999999999999));
#1859=CARTESIAN_POINT('',(-0.25,1.25,-0.249999999999999));
#1860=CARTESIAN_POINT('Origin',(1.75,1.25,0.250000000000002));
#1861=CARTESIAN_POINT('',(2.25,1.25,0.250000000000002));
#1862=CARTESIAN_POINT('',(2.25,1.25,0.250000000000002));
#1863=CARTESIAN_POINT('',(1.75,1.25,0.250000000000002));
#1864=CARTESIAN_POINT('Origin',(0.25,1.25,0.250000000000001));
#1865=CARTESIAN_POINT('',(0.25,1.25,0.250000000000001));
#1866=CARTESIAN_POINT('Origin',(-2.25,1.25,-0.25));
#1867=CARTESIAN_POINT('',(-1.75,1.25,-0.25));
#1868=CARTESIAN_POINT('',(-1.75,1.25,-0.25));
#1869=CARTESIAN_POINT('',(-2.25,1.25,-0.25));
#1870=CARTESIAN_POINT('',(-2.25,1.25,-0.25));
#1871=CARTESIAN_POINT('',(-2.25,1.25,-0.25));
#1872=CARTESIAN_POINT('Origin',(-0.25,1.25,0.250000000000001));
#1873=CARTESIAN_POINT('',(-0.25,1.25,0.250000000000001));
#1874=CARTESIAN_POINT('Origin',(-2.25,1.25,0.25));
#1875=CARTESIAN_POINT('',(-2.25,1.25,0.25));
#1876=CARTESIAN_POINT('Origin',(2.25,1.25,0.250000000000002));
#1877=CARTESIAN_POINT('',(2.25,1.25,0.250000000000002));
#1878=CARTESIAN_POINT('Origin',(-1.75,1.25,0.25));
#1879=CARTESIAN_POINT('',(-1.75,1.25,0.25));
#1880=CARTESIAN_POINT('Origin',(1.75,1.25,-0.249999999999998));
#1881=CARTESIAN_POINT('Origin',(-2.25,1.25,-0.25));
#1882=CARTESIAN_POINT('Origin',(-0.25,1.25,-0.249999999999999));
#1883=UNCERTAINTY_MEASURE_WITH_UNIT(LENGTH_MEASURE(0.01),#1887,
'DISTANCE_ACCURACY_VALUE',
'Maximum model space distance between geometric entities at asserted c
onnectivities');
#1884=UNCERTAINTY_MEASURE_WITH_UNIT(LENGTH_MEASURE(0.01),#1887,
'DISTANCE_ACCURACY_VALUE',
'Maximum model space distance between geometric entities at asserted c
onnectivities');
#1885=(
GEOMETRIC_REPRESENTATION_CONTEXT(3)
GLOBAL_UNCERTAINTY_ASSIGNED_CONTEXT((#1883))
GLOBAL_UNIT_ASSIGNED_CONTEXT((#1887,#1889,#1890))
REPRESENTATION_CONTEXT('','3D')
);
#1886=(
GEOMETRIC_REPRESENTATION_CONTEXT(3)
GLOBAL_UNCERTAINTY_ASSIGNED_CONTEXT((#1884))
GLOBAL_UNIT_ASSIGNED_CONTEXT((#1887,#1889,#1890))
REPRESENTATION_CONTEXT('','3D')
);
#1887=(
LENGTH_UNIT()
NAMED_UNIT(*)
SI_UNIT(.MILLI.,.METRE.)
);
#1888=(
LENGTH_UNIT()
NAMED_UNIT(*)
SI_UNIT(.CENTI.,.METRE.)
);
#1889=(
NAMED_UNIT(*)
PLANE_ANGLE_UNIT()
SI_UNIT($,.RADIAN.)
);
#1890=(
NAMED_UNIT(*)
SI_UNIT($,.STERADIAN.)
SOLID_ANGLE_UNIT()
);
#1891=SHAPE_DEFINITION_REPRESENTATION(#1892,#1893);
#1892=PRODUCT_DEFINITION_SHAPE('',$,#1895);
#1893=SHAPE_REPRESENTATION('',(#1223),#1885);
#1894=PRODUCT_DEFINITION_CONTEXT('part definition',#1899,'design');
#1895=PRODUCT_DEFINITION('B03B-PASK-1','B03B-PASK-1',#1896,#1894);
#1896=PRODUCT_DEFINITION_FORMATION('ANY',$,#1901);
#1897=PRODUCT_RELATED_PRODUCT_CATEGORY('B03B-PASK-1','B03B-PASK-1',(#1901));
#1898=APPLICATION_PROTOCOL_DEFINITION('international standard',
'automotive_design',2009,#1899);
#1899=APPLICATION_CONTEXT(
'Core Data for Automotive Mechanical Design Process');
#1900=PRODUCT_CONTEXT('part definition',#1899,'mechanical');
#1901=PRODUCT('B03B-PASK-1','B03B-PASK-1','STEP AP214',(#1900));
#1902=PRESENTATION_STYLE_ASSIGNMENT((#1906));
#1903=PRESENTATION_STYLE_ASSIGNMENT((#1907));
#1904=PRESENTATION_STYLE_ASSIGNMENT((#1908));
#1905=PRESENTATION_STYLE_ASSIGNMENT((#1909));
#1906=SURFACE_STYLE_USAGE(.BOTH.,#1918);
#1907=SURFACE_STYLE_USAGE(.BOTH.,#1919);
#1908=SURFACE_STYLE_USAGE(.BOTH.,#1920);
#1909=SURFACE_STYLE_USAGE(.BOTH.,#1921);
#1910=SURFACE_STYLE_RENDERING_WITH_PROPERTIES($,#1934,(#1914));
#1911=SURFACE_STYLE_RENDERING_WITH_PROPERTIES($,#1935,(#1915));
#1912=SURFACE_STYLE_RENDERING_WITH_PROPERTIES($,#1936,(#1916));
#1913=SURFACE_STYLE_RENDERING_WITH_PROPERTIES($,#1937,(#1917));
#1914=SURFACE_STYLE_TRANSPARENT(0.);
#1915=SURFACE_STYLE_TRANSPARENT(0.);
#1916=SURFACE_STYLE_TRANSPARENT(0.);
#1917=SURFACE_STYLE_TRANSPARENT(0.);
#1918=SURFACE_SIDE_STYLE('',(#1922,#1910));
#1919=SURFACE_SIDE_STYLE('',(#1923,#1911));
#1920=SURFACE_SIDE_STYLE('',(#1924,#1912));
#1921=SURFACE_SIDE_STYLE('',(#1925,#1913));
#1922=SURFACE_STYLE_FILL_AREA(#1926);
#1923=SURFACE_STYLE_FILL_AREA(#1927);
#1924=SURFACE_STYLE_FILL_AREA(#1928);
#1925=SURFACE_STYLE_FILL_AREA(#1929);
#1926=FILL_AREA_STYLE('',(#1930));
#1927=FILL_AREA_STYLE('',(#1931));
#1928=FILL_AREA_STYLE('',(#1932));
#1929=FILL_AREA_STYLE('',(#1933));
#1930=FILL_AREA_STYLE_COLOUR('',#1934);
#1931=FILL_AREA_STYLE_COLOUR('',#1935);
#1932=FILL_AREA_STYLE_COLOUR('',#1936);
#1933=FILL_AREA_STYLE_COLOUR('',#1937);
#1934=COLOUR_RGB('',0.749019607843137,0.749019607843137,0.749019607843137);
#1935=COLOUR_RGB('',0.,0.,0.627450980392157);
#1936=COLOUR_RGB('',0.752941176470588,0.752941176470588,0.752941176470588);
#1937=COLOUR_RGB('',0.945098039215686,0.949019607843137,0.972549019607843);
ENDSEC;
END-ISO-10303-21;
